<?xml version="1.0" encoding="UTF-8" standalone="no"?>
<!--
*************Map created by Simplemaps.com********************		
*************Attribution is highly appreciated!***************
*************http://simplemaps.com****************************

The MIT License (MIT)

Copyright (c) 2020 Pareto Softare, LLC DBA Simplemaps.com

Permission is hereby granted, free of charge, to any person obtaining a copy
of this software and associated documentation files (the "Software"), to deal
in the Software without restriction, including without limitation the rights
to use, copy, modify, merge, publish, distribute, sublicense, and/or sell
copies of the Software, and to permit persons to whom the Software is
furnished to do so, subject to the following conditions:

The above copyright notice and this permission notice shall be included in
all copies or substantial portions of the Software.

THE SOFTWARE IS PROVIDED "AS IS", WITHOUT WARRANTY OF ANY KIND, EXPRESS OR
IMPLIED, INCLUDING BUT NOT LIMITED TO THE WARRANTIES OF MERCHANTABILITY,
FITNESS FOR A PARTICULAR PURPOSE AND NONINFRINGEMENT. IN NO EVENT SHALL THE
AUTHORS OR COPYRIGHT HOLDERS BE LIABLE FOR ANY CLAIM, DAMAGES OR OTHER
LIABILITY, WHETHER IN AN ACTION OF CONTRACT, TORT OR OTHERWISE, ARISING FROM,
OUT OF OR IN CONNECTION WITH THE SOFTWARE OR THE USE OR OTHER DEALINGS IN
THE SOFTWARE.

-->

<svg
   baseprofile="tiny"
   fill="#ececec"
   height="463.5"
   stroke="#000000"
   stroke-linecap="round"
   stroke-linejoin="round"
   stroke-width="0.2"
   version="1.2"
   viewBox="0 0 500 500"
   width="430.20001"
   id="svg301"
   sodipodi:docname="afrika.svg"
   inkscape:version="1.4.2 (ebf0e940, 2025-05-08)"
   xmlns:inkscape="http://www.inkscape.org/namespaces/inkscape"
   xmlns:sodipodi="http://sodipodi.sourceforge.net/DTD/sodipodi-0.dtd"
   xmlns="http://www.w3.org/2000/svg"
   xmlns:svg="http://www.w3.org/2000/svg">
  <defs
     id="defs301" />
  <sodipodi:namedview
     id="namedview301"
     pagecolor="#ffffff"
     bordercolor="#000000"
     borderopacity="0.25"
     inkscape:showpageshadow="2"
     inkscape:pageopacity="0.0"
     inkscape:pagecheckerboard="0"
     inkscape:deskcolor="#d1d1d1"
     showguides="false"
     inkscape:zoom="0.75096331"
     inkscape:cx="308.93653"
     inkscape:cy="220.3836"
     inkscape:window-width="1360"
     inkscape:window-height="740"
     inkscape:window-x="0"
     inkscape:window-y="25"
     inkscape:window-maximized="0"
     inkscape:current-layer="svg301"
     showgrid="false" />
  <circle
     cx="606"
     cy="25.200006"
     id="0"
     r="0" />
  <circle
     cx="281.60001"
     cy="560.19995"
     id="1"
     r="0" />
  <circle
     cx="1406.2999"
     cy="555.39996"
     id="2"
     r="0" />
  <path
     class="Angola"
     d="m 276.8,310 0.6,2 -0.7,3.1 0.9,3 -0.9,2.4 0.4,2.2 -11.7,-0.1 -0.8,20.5 3.6,5.2 3.6,4 -10.4,2.6 -13.5,-0.9 -3.8,-3 -22.7,0.2 -0.8,0.5 -3.3,-2.9 -3.6,-0.2 -3.4,1.1 -2.7,1.2 -0.5,-4 0.9,-5.7 2,-5.9 0.3,-2.7 1.9,-5.8 1.4,-2.6 3.3,-4.2 1.9,-2.9 0.6,-4.7 -0.3,-3.7 -1.6,-2.3 -1.5,-3.9 -1.3,-3.8 0.3,-1.4 1.7,-2.5 -1.6,-6.2 -1.2,-4.3 -2.8,-4.1 0.6,-1.2 2.3,-0.9 1.7,0.1 2,-0.7 16.7,0.1 1.3,4.7 1.6,3.9 1.3,2.1 2.1,3.3 3.8,-0.5 1.8,-0.9 3.1,0.9 0.9,-1.6 1.5,-3.7 3.5,-0.3 0.3,-1.1 h 2.9 l -0.5,2.3 6.8,-0.1 0.1,4.1 1.1,2.4 -0.9,3.9 0.4,4 1.8,2.4 -0.4,7.6 1.4,-0.6 2.4,0.2 3.5,-1 z"
     id="path1"
     data-code="ao" />
  <path
     class="Angola"
     d="m 210.9,277 -1.5,-4.8 2.3,-2.8 1.7,-1.1 2.1,2.2 -2,1.4 -1,1.6 -0.2,2.8 z"
     id="path2"
     data-code="ao" />
  <path
     d="m 310.5,268.4 -0.6,0.1 v -0.3 l -2,-6.1 -0.01,-0.06 -0.09,-1.04 -1.4,-2.9 3.5,0.5 1.7,-3.7 3.1,0.4 0.3,2.5 1.2,1.5 v 2.1 l -1.4,1.3 -2.3,3.4 z"
     id="BI"
     name="Burundi"
     data-code="bi" />
  <path
     d="m 162.3,165 -0.2,2.1 1.3,3.8 -1.1,2.6 0.6,1.7 -2.8,4 -1.7,2 -1.1,4 0.2,4.1 -0.3,10.3 -4.7,0.8 -1.4,-4.4 0.3,-14.8 -1.2,-1.3 -0.2,-3.2 -2,-2.2 -1.7,-1.9 0.7,-3.4 2,-0.7 1.1,-2.8 2.8,-0.6 1.2,-1.9 1.9,-1.9 h 2 z"
     id="BJ"
     name="Benin"
     data-code="bj" />
  <path
     d="m 144.1,144 -0.5,3.1 0.8,2.9 3.1,4.2 0.2,3.1 6.5,1.5 -0.1,4.4 -1.2,1.9 -2.8,0.6 -1.1,2.8 -2,0.7 -4.9,-0.1 -2.6,-0.5 -1.8,1 -2.5,-0.5 -9.8,0.3 -0.2,3.7 0.8,4.8 -3.9,-1.6 -2.6,0.2 -2,1.6 -2.5,-1.3 -1,-2.2 -2.5,-1.4 -0.4,-3.7 1.6,-2.7 -0.2,-2.2 4.5,-5.3 0.9,-4.4 1.5,-1.6 2.7,0.9 2.4,-1.3 0.8,-1.7 4.3,-2.8 1.1,-2 5.3,-2.7 3.1,-0.9 1.4,1.2 z"
     id="BF"
     name="Burkina Faso"
     data-code="bf" />
  <path
     d="m 283.2,353.7 1.9,5.1 1.1,1.2 1.6,3.7 6.1,7 2.3,0.7 -0.1,2.3 1.5,4.1 4.3,1 3.4,2.9 -8.1,4.7 -5.2,4.8 -2,4.3 -1.8,2.4 -3,0.5 -1.2,3.1 -0.6,2 -3.6,1.4 -4.5,-0.3 -2.5,-1.8 -2.3,-0.7 -2.8,1.4 -1.5,3.1 -2.7,1.9 -2.8,2.9 -4,0.7 -1.1,-2.3 0.6,-3.9 -3,-6.1 -1.4,-1 0.6,-18.7 5.5,-0.2 0.8,-22.9 4.2,-0.2 8.7,-2.3 2,2.7 3.7,-2.5 h 1.7 l 3.2,-1.5 z"
     id="BW"
     name="Botswana"
     data-code="bw" />
  <path
     d="m 276.9,184.5 3.9,2.5 3.1,2.6 0.1,2.1 3.9,3.3 2.4,2.8 1.4,3.8 4.3,2.6 0.9,2 -1.8,0.7 -3.7,-0.1 -4.2,-0.7 -2.1,0.5 -0.9,1.6 -1.8,0.2 -2.2,-1.4 -6.3,3.2 -2.6,-0.6 -0.8,0.5 -1.6,3.9 -4.3,-1.3 -4.1,-0.6 -3.6,-2.4 -4.7,-2.2 -3,2.1 -2.2,3.2 -0.5,4.5 -3.6,-0.3 -3.9,-1.1 -3.3,3.4 -3,6 -0.6,-1.9 -0.3,-2.9 -2.6,-2.1 -2.1,-3.3 -0.5,-2.3 -2.7,-3.4 0.5,-1.9 -0.6,-2.7 0.4,-5 1.4,-1.1 2.8,-6.5 4.6,-0.5 1,-1.7 1,0.2 1.4,1.4 7.1,-2.4 2.4,-2.5 2.9,-2.3 -0.6,-2.2 1.6,-0.6 5.5,0.4 5.2,-3 4,-7 2.8,-2.6 3.6,-1.1 0.7,2.7 3.3,4 v 2.7 l -0.8,2.6 0.4,2 1.9,1.9 z"
     id="CF"
     name="Central African Republic"
     data-code="cf" />
  <path
     d="m 111.5,173.2 2.5,1.4 1,2.2 2.5,1.3 2,-1.6 2.6,-0.2 3.9,1.6 1.5,9.2 -2.4,5.3 -1.5,7.3 2.4,5.5 -0.2,2.6 h -2.6 l -3.9,-1.2 h -3.7 l -6.7,1.2 -3.9,1.8 -5.6,2.4 -1.1,-0.2 0.4,-5.3 0.6,-0.8 -0.2,-2.5 -2.4,-2.7 -1.8,-0.4 -1.6,-1.8 1.2,-2.9 -0.5,-3.1 0.2,-1.8 h 0.9 l 0.4,-2.8 -0.4,-1.3 0.5,-0.9 2.1,-0.7 -1.4,-5.2 -1.3,-2.6 0.5,-2.2 1.1,-0.5 0.8,-0.6 1.5,1 h 4.4 l 1,-1.8 1,0.1 1.6,-0.7 0.9,2.7 1.3,-0.8 z"
     id="CI"
     name="Côte d'Ivoire"
     data-code="ci" />
  <path
     d="m 228.4,192.2 -2.8,6.5 -1.4,1.1 -0.4,5 0.6,2.7 -0.5,1.9 2.7,3.4 0.5,2.3 2.1,3.3 2.6,2.1 0.3,2.9 0.6,1.9 -0.4,3.4 -4.5,-1.5 -4.6,-1.7 -7.1,-0.2 -0.7,-0.4 -3.4,0.8 -3.4,-0.8 -2.7,0.4 -9.3,-0.1 0.9,-5.1 -2.3,-4.3 -2.6,-1 -1.1,-2.9 -1.5,-0.9 0.1,-1.8 1.4,-4.6 2.7,-6.2 h 1.6 l 3.4,-3.8 2.1,-0.1 3.2,2.7 3.9,-2.2 0.5,-2.7 1.3,-2.6 0.8,-3.2 3,-2.6 1.1,-4.5 1.2,-1.5 0.8,-3.3 1.4,-4.1 4.7,-5 0.3,-2.1 0.6,-1.2 -2.3,-2.5 0.2,-2.1 1.5,-0.3 2.3,4.1 0.5,4.2 -0.2,4.3 3.2,5.8 h -3.2 l -1.6,0.4 -2.6,-0.6 -1.2,3 3.4,3.8 2.5,1.1 0.8,2.6 1.8,4.4 z"
     id="CM"
     name="Cameroon"
     data-code="cm" />
  <path
     d="m 296.9,206.2 3.5,5.3 2.6,0.8 1.5,-1.1 2.6,0.4 3.1,-1.3 1.4,2.7 5.1,4.3 -0.3,7.5 2.3,0.9 -1.9,2.2 -2.1,1.8 -2.2,3.3 -1.2,3 -0.3,5.1 -1.3,2.5 -0.1,4.8 -1.6,1.8 -0.2,3.8 -0.8,0.5 -0.6,3.6 1.4,2.9 0.1,1 -1.2,10.3 1.5,3.6 -1,2.7 1.8,4.6 3.4,3.5 0.7,3.5 1.6,1.7 -0.3,1.1 -0.9,-0.3 -7.7,1.1 -1.5,0.8 -1.7,4.1 1.2,2.8 -1.1,7.6 -0.9,6.4 1.5,1.2 3.9,2.5 1.6,-1.2 0.2,6.9 h -4.3 l -2.2,-3.5 -2,-2.8 -4.3,-0.9 -1.2,-3.3 -3.5,2 -4.4,-0.9 -1.9,-2.9 -3.5,-0.6 -2.7,0.1 -0.3,-2 -1.9,-0.1 -2.6,-0.4 -3.5,1 -2.4,-0.2 -1.4,0.6 0.4,-7.6 -1.8,-2.4 -0.4,-4 0.9,-3.9 -1.1,-2.4 -0.1,-4.1 -6.8,0.1 0.5,-2.3 h -2.9 l -0.3,1.1 -3.5,0.3 -1.5,3.7 -0.9,1.6 -3.1,-0.9 -1.8,0.9 -3.8,0.5 -2.1,-3.3 -1.3,-2.1 -1.6,-3.9 -1.3,-4.7 -16.7,-0.1 -2,0.7 -1.7,-0.1 -2.3,0.9 -0.8,-2 1.4,-0.7 0.2,-2.8 1,-1.6 2,-1.4 1.5,0.7 2,-2.5 3.1,0.1 0.3,1.8 2.1,1.1 3.4,-4 3.3,-3.1 1.4,-2.1 -0.1,-5.3 2.5,-6.2 2.6,-3.3 3.7,-3.1 0.7,-2 0.1,-2.4 0.9,-2.2 -0.3,-3.7 0.7,-5.7 1.1,-4 1.7,-3.4 0.3,-3.9 0.5,-4.5 2.2,-3.2 3,-2.1 4.7,2.2 3.6,2.4 4.1,0.6 4.3,1.3 1.6,-3.9 0.8,-0.5 2.6,0.6 6.3,-3.2 2.2,1.4 1.8,-0.2 0.9,-1.6 2.1,-0.5 4.2,0.7 3.7,0.1 z"
     id="CD"
     name="Democratic Republic of the Congo"
     data-code="cd" />
  <path
     d="m 246.5,217.3 -0.3,3.9 -1.7,3.4 -1.1,4 -0.7,5.7 0.3,3.7 -0.9,2.2 -0.1,2.4 -0.7,2 -3.7,3.1 -2.6,3.3 -2.5,6.2 0.1,5.3 -1.4,2.1 -3.3,3.1 -3.4,4 -2.1,-1.1 -0.3,-1.8 -3.1,-0.1 -2,2.5 -1.5,-0.7 -2.1,-2.2 -1.7,1.1 -2.3,2.8 -4.6,-6.8 4.3,-3.6 -2.1,-4.2 2,-1.6 3.8,-0.8 0.4,-2.9 3.1,3.1 5,0.3 1.7,-3 0.7,-4.3 -0.6,-5 -2.7,-3.8 2.5,-7.5 -1.4,-1.2 -4.2,0.5 -1.6,-3.3 0.4,-2.8 7.1,0.2 4.6,1.7 4.5,1.5 0.4,-3.4 3,-6 3.3,-3.4 3.9,1.1 z"
     id="CG"
     name="Republic of Congo"
     data-code="cg" />
  <path
     d="m 385.1,166.2 -1.9,3.5 -1.3,-1.2 -1.3,0.5 -3.2,-0.1 -0.2,-2 -0.5,-1.8 1.8,-3 1.9,-2.8 2.4,0.6 1.7,-1.6 1.4,2 -0.1,2.6 -3.1,1.6 z"
     id="DJ"
     name="Djibouti"
     data-code="dj" />
  <path
     d="m 186.6,2.5999996 -1,3.3 1,6.1000004 -1.1,5.3 -3.2,3.6 0.6,4.8 4.5,3.9 0.1,1.5 3.4,2.6 2.6,11.5 1.9,5.7 0.4,3 -0.8,5.2 0.4,3 -0.6,3.5 0.6,4 -2.2,2.7 3.4,4.7 0.2,2.7 2.1,3.6 2.5,-1.2 4.5,3 2.5,4 -18.8,12.3 -16,12.6 -7.8,2.8 -6.2,0.7 -0.1,-4.1 -2.6,-1.1 -3.5,-1.8 -1.3,-3 -18.7,-14 -18.6,-14 -20.5,-15.6 0.1,-1.2 0.1,-0.4 0.1,-7.6 8.9,-4.8 5.4,-1 4.5,-1.7 2.1,-3.2 6.4,-2.5 0.3,-4.8 3.1,-0.6 2.5,-2.3 7.1,-1.1 1,-2.5 -1.4,-1.4 -1.9,-6.8 -0.3,-3.9 -1.9,-4.1 5.1,-3.5 5.8,-1.1000004 3.3,-2.6 5.1,-2 9,-1.1 8.8,-0.5 2.7,0.9 4.9,-2.5 5.7,-0.1 2.2,1.5 z"
     id="DZ"
     name="Algeria"
     data-code="dz" />
  <path
     d="m 327.7,39.4 3.9,9.4 0.7,1.6 -1.3,2.6 -0.7,4.8 -1.2,3.4 -1.2,1.1 -2,-2.1 -2.7,-2.8 -4.7,-9.2 -0.5,0.6 2.8,6.7 3.9,6.5 4.9,10 2.3,3.5 2,3.6 5.4,7.1 -1,1.1 0.4,4.2 6.8,5.8 1.1,1.3 H 324.5 303 280.7 l -1,-23.7 -1.3,-22.8 -2,-5.2 1.1,-3.9 -1,-2.8 1.7,-3.1 7.2,-0.1 5.4,1.7 5.5,1.9 2.6,1 4,-2 2.1,-1.8 4.7,-0.6 3.9,0.8 1.8,3.2 1.1,-2.1 4.4,1.5 4.3,0.4 z"
     id="EG"
     name="Egypt"
     data-code="eg" />
  <path
     d="m 384.5,158.3 -1.7,1.6 -2.4,-0.6 -2,-2.1 -2.5,-3.7 -2.6,-2.1 -1.5,-2.2 -5,-2.6 -3.9,-0.1 -1.4,-1.3 -3.2,1.5 -3.6,-2.9 -1.5,4.8 -6.6,-1.4 -0.7,-2.5 2,-9.5 0.3,-4.2 1.7,-2 4,-1.1 2.7,-3.6 3.6,7.4 1.9,5.9 3.2,3.1 8,6.1 3.3,3.6 3.2,3.8 1.8,2.2 z"
     id="ER"
     name="Eritrea"
     data-code="er" />
  <path
     d="m 362.9,146.5 3.9,0.1 5,2.6 1.5,2.2 2.6,2.1 2.5,3.7 2,2.1 -1.9,2.8 -1.8,3 0.5,1.8 0.2,2 3.2,0.1 1.3,-0.5 1.3,1.2 -1.2,2.2 2.2,3.6 2.2,3.1 2.2,2.3 18.7,7.6 4.8,-0.1 -15.6,19.3 -7.3,0.3 -5,4.5 -3.6,0.1 -1.5,2.1 h -3.9 l -2.3,-2.2 -5.2,2.7 -1.6,2.7 -3.8,-0.6 -1.3,-0.7 -1.3,0.2 -1.8,-0.1 -7.2,-5.4 h -4 l -1.9,-2.1 -0.1,-3.6 -2.9,-1.1 -3.5,-7 -2.6,-1.5 -1,-2.6 -3,-3.1 -3.5,-0.5 1.9,-3.6 3,-0.2 0.8,-1.9 -0.2,-5 v -0.8 l 1.5,-6.7 2.6,-1.8 0.5,-2.6 2.3,-5 3.3,-3.1 2,-6.4 0.7,-5.5 6.6,1.4 1.5,-4.8 3.6,2.9 3.2,-1.5 z"
     id="ET"
     name="Ethiopia"
     data-code="et" />
  <path
     d="m 216.1,225.3 -0.4,2.8 1.6,3.3 4.2,-0.5 1.4,1.2 -2.5,7.5 2.7,3.8 0.6,5 -0.7,4.3 -1.7,3 -5,-0.3 -3.1,-3.1 -0.4,2.9 -3.8,0.8 -2,1.6 2.1,4.2 -4.3,3.6 -5.8,-6.5 -3.7,-5.3 -3.5,-6.6 0.2,-2.2 1.3,-2 1.3,-4.7 1.2,-4.8 1.9,-0.3 h 8.2 v -7.7 l 2.7,-0.4 3.4,0.8 3.4,-0.8 z"
     id="GA"
     name="Gabon"
     data-code="ga" />
  <path
     d="m 142.1,169.1 -0.4,2 2.3,3.3 v 4.7 l 0.6,5 1.4,2.4 -1.3,5.7 0.5,3.2 1.5,4.1 1.3,2.3 -8.9,3.7 -3.2,2.2 -5.1,1.9 -5,-1.8 0.2,-2.6 -2.4,-5.5 1.5,-7.3 2.4,-5.3 -1.5,-9.2 -0.8,-4.8 0.2,-3.7 9.8,-0.3 2.5,0.5 1.8,-1 z"
     id="GH"
     name="Ghana"
     data-code="gh" />
  <path
     d="m 77.1,159.9 0.3,2.4 h 0.9 l 1.5,-0.9 0.9,0.2 1.6,1.7 2.4,0.5 1.5,-1.4 1.9,-0.9 1.3,-0.9 1.1,0.2 1.3,1.4 0.6,1.8 2.3,2.7 -1.1,1.6 -0.3,2.1 1.2,-0.6 0.7,0.7 -0.3,1.9 1.7,1.9 -1.1,0.5 -0.5,2.2 1.3,2.6 1.4,5.2 -2.1,0.7 -0.5,0.9 0.4,1.3 -0.4,2.8 h -0.9 l -1.6,-0.2 -1.1,2.6 h -1.6 l -1.1,-1.4 0.4,-2.6 -2.4,-3.9 -1.4,0.7 -1.3,0.2 -1.5,0.3 0.1,-2.3 -0.9,-1.7 0.2,-1.9 -1.2,-2.7 -1.6,-2.3 h -4.5 l -1.3,1.2 -1.6,0.2 -1,1.4 -0.6,1.7 -3.1,2.9 -2.4,-3.8 -2.2,-2.5 -1.4,-0.9 -1.4,-1.3 -0.6,-2.8 -0.8,-1.4 -1.7,-1.1 2.6,-3.1 1.7,0.1 1.5,-1 1.2,-0.1 0.9,-0.8 -0.4,-2.1 0.6,-0.7 0.1,-2.2 2.7,0.1 4.1,1.5 1.2,-0.1 0.4,-0.7 3.1,0.5 z"
     id="GN"
     name="Guinea"
     data-code="gn" />
  <path
     d="m 47.2,155.4 0.8,-2.9 6.1,-0.1 1.3,-1.6 1.8,-0.1 2.2,1.6 h 1.7 l 1.9,-1 1.1,1.8 -2.5,1.5 -2.4,-0.2 -2.4,-1.3 -2.1,1.5 h -1 l -1.4,0.9 z"
     id="GM"
     name="The Gambia"
     data-code="gm" />
  <path
     d="m 64.8,159 -0.1,2.2 -0.6,0.7 0.4,2.1 -0.9,0.8 -1.2,0.1 -1.5,1 -1.7,-0.1 -2.6,3.1 -2.9,-2.6 -2.4,-0.5 -1.3,-1.8 0.1,-1 -1.7,-1.3 -0.4,-1.4 3,-1 1.9,0.2 1.5,-0.8 z"
     id="GW"
     name="Guinea-Bissau"
     data-code="gw" />
  <path
     d="m 205.9,225.3 v 7.7 h -8.2 l -1.9,0.3 -1.1,-0.9 1.9,-7.2 z"
     id="GQ"
     name="Equatorial Guinea"
     data-code="gq" />
  <path
     d="m 379.1,214.7 -4.9,7.2 0.2,23.4 3.3,5.3 -4,2.6 -1.4,2.7 -2.2,0.4 -0.8,4.6 -1.9,2.6 -1.1,4.2 -2.3,2.1 -8.1,-6.4 -0.3,-3.7 -20.5,-13.1 0.4,-4.7 -1.4,-2.5 v -0.3 l 1.6,-2.6 2.8,-4.2 2.1,-4.7 -2.6,-7.4 -0.7,-3.2 -2.7,-4.5 3.4,-3.8 3.8,-4.2 2.9,1.1 0.1,3.6 1.9,2.1 h 4 l 7.2,5.4 1.8,0.1 1.3,-0.2 1.3,0.7 3.8,0.6 1.6,-2.7 5.2,-2.7 2.3,2.2 z"
     id="KE"
     name="Kenya"
     data-code="ke" />
  <path
     d="m 94.2,190.5 -0.2,1.8 0.5,3.1 -1.2,2.9 1.6,1.8 1.8,0.4 2.4,2.7 0.2,2.5 -0.6,0.8 -0.4,5.3 -1.5,0.1 -5.8,-3.1 -5.2,-4.9 -4.8,-3.5 -3.8,-4.1 1.4,-2.1 0.3,-1.9 2.6,-3.4 2.6,-3 1.3,-0.2 1.4,-0.7 2.4,3.9 -0.4,2.6 1.1,1.4 h 1.6 l 1.1,-2.6 z"
     id="LR"
     name="Liberia"
     data-code="lr" />
  <path
     d="m 278.2,37.1 -1.7,3.1 1,2.8 -1.1,3.9 2,5.2 1.3,22.8 1,23.7 0.5,12.8 h -6.4 v 2.7 l -22.6,-12.3 -22.5,-12.3 -5.5,3.5 -3.8,2.4 -3.2,-3.5 -8.8,-2.8 -2.5,-4 -4.5,-3 -2.5,1.2 -2.1,-3.6 -0.2,-2.7 -3.4,-4.7 2.2,-2.7 -0.6,-4 0.6,-3.5 -0.4,-3 0.8,-5.2 -0.4,-3 -1.9,-5.7 2.6,-1.4 0.4,-2.8 -0.6,-2.6 3.6,-2.5 1.6,-2.1 2.6,-1.8 0.1,-4.9 6.4,2.2 2.3,-0.6 4.5,1.1 7.3,2.9 2.8,5.7 4.9,1.2 7.8,2.7 6,3.2 2.5,-1.7 2.5,-2.9 -1.6,-4.9 1.5,-3.2 3.7,-3 3.7,-0.8 7.4,1.3 2,2.8 2,0.1 1.8,1.1 5.4,0.7 z"
     id="LY"
     name="Libya"
     data-code="ly" />
  <path
     d="m 294.7,435.9 -2,0.7 -3.7,-5 3.2,-4 3.1,-2.5 2.7,-1.4 2.2,2 1.7,2 -1.9,3.1 -1.1,2.1 -3.1,1 z"
     id="LS"
     name="Lesotho"
     data-code="ls" />
  <path
     d="m 130.4,14 1.9,4.1 0.3,3.9 1.9,6.8 1.4,1.4 -1,2.5 -7.1,1.1 -2.5,2.3 -3.1,0.6 -0.3,4.8 -6.4,2.5 -2.1,3.2 -4.5,1.7 -5.4,1 -8.9,4.8 -0.1,7.6 h -0.9 l 0.1,3.4 -3.4,0.2 -1.8,1.5 H 86 l -2,-0.9 -4.6,0.7 -1.9,5 -1.8,0.5 -2.7,8.1 -7.9,6.9 -2,8.9 -2.4,2.9 -0.7,2.3 -12.5,0.5 h -0.1 l 0.3,-3 2.2,-1.7 1.9,-3.4 -0.3,-2.2 2,-4.5 3.2,-4.1 1.9,-1 1.6,-3.7 0.2,-3.5 2.1,-3.9 3.8,-2.4 3.6,-6.5 0.1,-0.1 2.9,-2.5 5.1,-0.7 4.4,-4.4 2.8,-1.7 4.7,-5.4 -1.2,-7.9 2.2,-5.6 0.9,-3.4 3.6,-4.3 5.4,-2.9 4.1,-2.7 3.7,-6.6 1.8,-4 3.9,0.1 3.1,2.7 5.1,-0.4 5.5,1.4 z"
     id="MA"
     name="Morocco"
     data-code="ma" />
  <path
     d="m 423.5,326.9 0.4,7.7 1.3,3 -0.7,3.1 -1.2,1.8 -1.6,-3.7 -1.2,1.9 0.8,4.7 -0.7,2.8 -1.7,1.4 -0.7,5.5 -2.7,7.5 -3.4,8.8 -4.3,12.2 -2.9,8.9 -3.1,7.5 -4.6,1.5 -5.1,2.7 -3,-1.6 -4.2,-2.3 -1.2,-3.4 v -5.7 l -1.5,-5.1 -0.2,-4.7 1.3,-4.6 2.6,-1.1 0.2,-2.1 2.9,-4.9 0.8,-4.1 -1.1,-3 -0.8,-4.1 -0.1,-5.9 2.2,-3.6 1,-4.1 2.8,-0.2 3.2,-1.3 2.2,-1.2 2.4,-0.1 3.4,-3.6 4.9,-4 1.8,-3.2 -0.6,-2.8 2.4,0.8 3.3,-4.4 0.3,-3.9 2,-2.9 1.8,2.8 1.4,2.7 z"
     id="MG"
     name="Madagascar"
     data-code="mg" />
  <path
     d="m 165.8,116.8 0.1,14.8 -3.1,4.3 -0.4,4 -5,1 -7.7,0.5 -2,2.3 -3.6,0.3 h -3.6 l -1.4,-1.2 -3.1,0.9 -5.3,2.7 -1.1,2 -4.3,2.8 -0.8,1.7 -2.4,1.3 -2.7,-0.9 -1.5,1.6 -0.9,4.4 -4.5,5.3 0.2,2.2 -1.6,2.7 0.4,3.7 -2.4,1 -1.3,0.8 -0.9,-2.7 -1.6,0.7 -1,-0.1 -1,1.8 h -4.4 l -1.5,-1 -0.8,0.6 -1.7,-1.9 0.3,-1.9 -0.7,-0.7 -1.2,0.6 0.3,-2.1 1.1,-1.6 -2.3,-2.7 -0.6,-1.8 -1.3,-1.4 -1.1,-0.2 -1.3,0.9 -1.9,0.9 -1.5,1.4 -2.4,-0.5 -1.6,-1.7 -0.9,-0.2 -1.5,0.9 h -0.9 l -0.3,-2.4 0.3,-2 -0.5,-2.4 -2,-1.8 -1.1,-3.7 -0.2,-4 1.9,-1.2 1,-3.8 1.8,-0.1 3.9,1.8 3.2,-1.3 2.1,0.4 0.9,-1.4 22.5,-0.1 1.3,-4.5 -1,-0.8 -2.5,-27.7 -2.4,-27.7 8.5,-0.1 18.6,14 18.7,14 1.3,3 3.5,1.8 2.6,1.1 0.1,4.1 z"
     id="ML"
     name="Mali"
     data-code="ml" />
  <path
     d="m 322.3,411.5 h -4.1 l -0.3,-2.9 -0.6,-2.9 -0.4,-2.3 1.4,-7.1 -1.1,-4.6 -2.2,-9 6.2,-7.3 1.7,-4.6 0.8,-0.6 0.9,-3.8 -0.8,-1.9 0.4,-4.8 1.3,-4.4 0.4,-8.2 -2.8,-2 -2.7,-0.5 -1.1,-1.6 -2.6,-1.3 -4.7,0.1 -0.2,-2.4 -0.4,-4.6 17.2,-5.3 3.2,3.1 1.5,-0.6 2.2,1.6 0.2,2.6 -1.3,3 0.2,4.5 3.5,4 1.9,-4.5 2.5,-1.3 -0.1,-8.3 -2.2,-4.6 -1.9,-2.1 h -0.4 l -0.6,-7.3 1.5,-6.1 2.2,-0.2 6.7,1.8 1.5,-0.8 3.9,-0.2 2.1,-1.9 3.4,0.1 6.2,-2.5 4.6,-3.7 0.9,2.8 -0.5,6.4 0.5,5.7 -0.2,10 0.8,3.1 -1.9,4.6 -2.4,4.5 -3.7,4 -5.3,2.4 -6.5,3.1 -6.6,6.9 -2.2,1.2 -4.2,4.6 -2.3,1.4 -0.8,4.6 2.4,4.9 0.9,3.7 v 2 l 1,-0.4 -0.5,6.3 -1.1,3 1.2,1.1 -1,2.7 -2.4,2.3 -4.7,2.1 -6.9,3.5 -2.5,2.4 0.3,2.7 1.3,0.4 z"
     id="MZ"
     name="Mozambique"
     data-code="mz" />
  <path
     d="m 114.8,79.5 -8.5,0.1 2.4,27.7 2.5,27.7 1,0.8 -1.3,4.5 -22.5,0.1 -0.9,1.4 -2.1,-0.4 -3.2,1.3 -3.9,-1.8 -1.8,0.1 -1,3.8 -1.9,1.2 -3.6,-4.4 -3.4,-4.8 -3.6,-1.7 -2.7,-1.8 h -3.1 l -2.8,1.4 -2.7,-0.5 -2,2 -0.4,-3.4 1.6,-3.2 0.8,-6 -0.4,-6.4 -0.6,-3.2 0.6,-3.2 -1.4,-3 -2.8,-2.8 1.3,-2.1 h 21.7 l -0.9,-9.3 1.5,-3.3 5.2,-0.5 0.2,-16.5 18,0.4 0.2,-9.8 z"
     id="MR"
     name="Mauritania"
     data-code="mr" />
  <path
     d="m 337.9,326.9 h 0.4 l 1.9,2.1 2.2,4.6 0.1,8.3 -2.5,1.3 -1.9,4.5 -3.5,-4 -0.2,-4.5 1.3,-3 -0.2,-2.6 -2.2,-1.6 -1.5,0.6 -3.2,-3.1 -2.9,-1.6 2,-6 1.8,-2.2 -0.9,-5.4 1.3,-5.2 1,-1.7 -1.3,-5.4 -2.6,-2.9 5.5,1.2 1,1.7 -0.1,0.8 1.8,4.1 0.2,7.7 -1.8,3.6 1.6,4.7 -0.2,2.8 1.2,1.9 -0.1,2.4 0.9,1.4 1,-1.6 1.9,2.5 0.2,-0.8 -1,-3.4 -1.1,-0.3 z"
     id="MW"
     name="Malawi"
     data-code="mw" />
  <path
     d="m 271.8,352.3 4.6,-1.4 3.6,0.3 2.2,1.5 v 0.5 l -3.2,1.5 h -1.7 l -3.7,2.5 -2,-2.7 -8.7,2.3 -4.2,0.2 -0.8,22.9 -5.5,0.2 -0.6,18.7 -1.1,23.7 -5,3.3 -2.9,0.5 -3.4,-1.2 -2.5,-0.5 -0.8,-2.7 -2,-1.8 -2.8,3.2 -3.9,-4.9 -2,-4.6 -1,-6.3 -1.2,-4.6 -1.6,-9.9 0.1,-7.7 -0.6,-3.5 -2.1,-2.7 -2.8,-5.3 -2.8,-7.7 -1.1,-4 -4.4,-6.3 -0.3,-4.9 2.7,-1.2 3.4,-1.1 3.6,0.2 3.3,2.9 0.8,-0.5 22.7,-0.2 3.8,3 13.5,0.9 z"
     id="NA"
     name="Namibia"
     data-code="na" />
  <path
     d="m 224.2,93 1.6,10 2.2,1.7 0.1,2 2.4,2.2 -1.2,2.8 -1.8,13 -0.2,8.4 -7,6 -2.3,8.5 2.4,2.4 v 4.1 l 3.7,0.1 -0.6,3.1 -1.5,0.3 -0.2,2.1 -1,0.1 -3.9,-7 -1.4,-0.3 -4.3,3.6 -4.4,-1.9 -3,-0.3 -1.6,0.9 -3.3,-0.2 -3.3,2.7 -2.9,0.2 -6.8,-3.3 -2.7,1.5 -2.9,-0.1 -2.1,-2.4 -5.6,-2.4 -6.1,0.8 -1.4,1.3 -0.8,3.7 -1.6,2.6 -0.4,5.8 -4.3,-3.7 h -2 l -1.9,1.9 0.1,-4.4 -6.5,-1.5 -0.2,-3.1 -3.1,-4.2 -0.8,-2.9 0.5,-3.1 3.6,-0.3 2,-2.3 7.7,-0.5 5,-1 0.4,-4 3.1,-4.3 -0.1,-14.8 7.8,-2.8 16,-12.6 18.8,-12.3 8.8,2.8 3.2,3.5 z"
     id="NE"
     name="Niger"
     data-code="ne" />
  <path
     d="m 221.8,159.7 2.3,2.5 -0.6,1.2 -0.3,2.1 -4.7,5 -1.4,4.1 -0.8,3.3 -1.2,1.5 -1.1,4.5 -3,2.6 -0.8,3.2 -1.3,2.6 -0.5,2.7 -3.9,2.2 -3.2,-2.7 -2.1,0.1 -3.4,3.8 h -1.6 l -2.7,6.2 -1.4,4.6 -5.9,2.3 -2.1,-0.3 -2.2,1.4 -4.5,-0.1 -3.1,-4.1 -1.9,-4.6 -4,-4.2 h -4.2 -5 l 0.3,-10.3 -0.2,-4.1 1.1,-4 1.7,-2 2.8,-4 -0.6,-1.7 1.1,-2.6 -1.3,-3.8 0.2,-2.1 0.4,-5.8 1.6,-2.6 0.8,-3.7 1.4,-1.3 6.1,-0.8 5.6,2.4 2.1,2.4 2.9,0.1 2.7,-1.5 6.8,3.3 2.9,-0.2 3.3,-2.7 3.3,0.2 1.6,-0.9 3,0.3 4.4,1.9 4.3,-3.6 1.4,0.3 3.9,7 z"
     id="NG"
     name="Nigeria"
     data-code="ng" />
  <path
     d="m 314.4,247.1 2.2,3.6 -0.3,3.8 -1.6,0.8 -3.1,-0.4 -1.7,3.7 -3.5,-0.5 0.6,-3.6 0.8,-0.5 0.2,-3.8 1.6,-1.8 1.4,0.7 z"
     id="RW"
     name="Rwanda"
     data-code="rw" />
  <path
     d="m 94.5,62.3 -0.1,0.4 -0.1,1.2 -0.2,9.8 -18,-0.4 -0.2,16.5 -5.2,0.5 -1.5,3.3 0.9,9.3 H 48.4 l -1.3,2.1 0.3,-2.7 h 0.1 l 12.5,-0.5 0.7,-2.3 2.4,-2.9 2,-8.9 7.9,-6.9 2.7,-8.1 1.8,-0.5 1.9,-5 4.6,-0.7 2,0.9 h 2.5 l 1.8,-1.5 3.4,-0.2 -0.1,-3.4 z"
     id="EH"
     name="Western Sahara"
     data-code="eh" />
  <path
     d="m 346.6,147.2 -0.7,5.5 -2,6.4 -3.3,3.1 -2.3,5 -0.5,2.6 -2.6,1.8 -1.5,6.7 v 0.8 l -0.8,-0.2 0.1,-3.2 -0.8,-2.2 -2.9,-2.5 -0.9,-4.6 0.6,-4.8 -2.6,-0.4 -0.4,1.4 -3.4,0.4 1.5,1.8 0.5,3.9 -3,3.5 -2.7,4.6 -2.9,0.7 -4.8,-3.7 -2.1,1.3 -0.5,1.8 -2.9,1.3 -0.2,1.3 h -5.6 l -0.8,-1.3 -4.1,-0.3 -2,1.1 -1.6,-0.5 -2.9,-3.8 -1,-1.7 -4.1,0.9 -1.5,2.9 -1.3,5.8 -2,1.2 -1.7,0.7 -0.5,-0.3 -1.9,-1.9 -0.4,-2 0.8,-2.6 V 175 l -3.3,-4 -0.7,-2.7 v -1.6 l -2.1,-1.9 -0.1,-3.7 -1.3,-2.5 -1.9,0.4 0.5,-2.4 1.4,-2.6 -0.7,-2.7 1.8,-2 -1.2,-1.5 1.3,-3.9 2.5,-4.8 4.8,0.5 -1.1,-25.5 v -2.7 h 6.4 l -0.5,-12.8 h 22.3 21.5 22.1 l 2.1,6.3 -1.2,1.1 1.2,6.7 2.5,7.6 2.2,1.6 3.2,2.4 -2.7,3.6 -4,1.1 -1.7,2 -0.3,4.2 -2,9.5 z"
     id="SD"
     name="Sudan"
     data-code="sd" />
  <path
     d="m 333.7,179.1 0.2,5 -0.8,1.9 -3,0.2 -1.9,3.6 3.5,0.5 3,3.1 1,2.6 2.6,1.5 3.5,7 -3.8,4.2 -3.4,3.8 -3.5,3 h -4 l -4.5,1.5 -3.6,-1.5 -2.3,1.8 -5.1,-4.3 -1.4,-2.7 -3.1,1.3 -2.6,-0.4 -1.5,1.1 -2.6,-0.8 -3.5,-5.3 -0.9,-2 -4.3,-2.6 -1.4,-3.8 -2.4,-2.8 -3.9,-3.3 -0.1,-2.1 -3.1,-2.6 -3.9,-2.5 1.7,-0.7 2,-1.2 1.3,-5.8 1.5,-2.9 4.1,-0.9 1,1.7 2.9,3.8 1.6,0.5 2,-1.1 4.1,0.3 0.8,1.3 h 5.6 l 0.2,-1.3 2.9,-1.3 0.5,-1.8 2.1,-1.3 4.8,3.7 2.9,-0.7 2.7,-4.6 3,-3.5 -0.5,-3.9 -1.5,-1.8 3.4,-0.4 0.4,-1.4 2.6,0.4 -0.6,4.8 0.9,4.6 2.9,2.5 0.8,2.2 -0.1,3.2 z"
     id="SS"
     name="South Sudan"
     data-code="ss" />
  <path
     d="m 73.6,146 0.2,4 1.1,3.7 2,1.8 0.5,2.4 -0.3,2 -0.8,0.4 -3.1,-0.5 -0.4,0.7 -1.2,0.1 -4.1,-1.5 -2.7,-0.1 -10.4,-0.3 -1.5,0.8 -1.9,-0.2 -3,1 -0.8,-4.9 5.1,0.1 1.4,-0.9 h 1 l 2.1,-1.5 2.4,1.3 2.4,0.2 2.5,-1.5 -1.1,-1.8 -1.9,1 h -1.7 l -2.2,-1.6 -1.8,0.1 -1.3,1.6 -6.1,0.1 -2.3,-5 -2.7,-2.2 2.5,-1.3 2.8,-4.5 1.4,-3.3 2,-2 2.7,0.5 2.8,-1.4 h 3.1 l 2.7,1.8 3.6,1.7 3.4,4.8 z"
     id="SN"
     name="Senegal"
     data-code="sn" />
  <path
     d="m 84.1,185.9 -2.6,3 -2.6,3.4 -0.3,1.9 -1.4,2.1 -1.5,-0.5 -4,-2.6 -3,-3.4 -0.9,-2.4 -0.7,-4.7 3.1,-2.9 0.6,-1.7 1,-1.4 1.6,-0.2 1.3,-1.2 h 4.5 l 1.6,2.3 1.2,2.7 -0.2,1.9 0.9,1.7 -0.1,2.3 z"
     id="SL"
     name="Sierra Leone"
     data-code="sl" />
  <path
     d="m 317.3,405.7 0.6,2.9 0.3,2.9 -1.4,2.8 -3.2,0.7 -3.1,-3.5 0.1,-2.2 1.7,-2.4 0.6,-1.9 1.7,-0.4 z"
     id="SZ"
     name="Swaziland"
     data-code="sz" />
  <path
     d="m 274.8,114.1 1.1,25.5 -4.8,-0.5 -2.5,4.8 -1.3,3.9 1.2,1.5 -1.8,2 0.7,2.7 -1.4,2.6 -0.5,2.4 1.9,-0.4 1.3,2.5 0.1,3.7 2.1,1.9 v 1.6 l -3.6,1.1 -2.8,2.6 -4,7 -5.2,3 -5.5,-0.4 -1.6,0.6 0.6,2.2 -2.9,2.3 -2.4,2.5 -7.1,2.4 -1.4,-1.4 -1,-0.2 -1,1.7 -4.6,0.5 0.8,-1.8 -1.8,-4.4 -0.8,-2.6 -2.5,-1.1 -3.4,-3.8 1.2,-3 2.6,0.6 1.6,-0.4 h 3.2 l -3.2,-5.8 0.2,-4.3 -0.5,-4.2 -2.3,-4.1 0.6,-3.1 -3.7,-0.1 V 150 l -2.4,-2.4 2.3,-8.5 7,-6 0.2,-8.4 1.8,-13 1.2,-2.8 -2.4,-2.2 -0.1,-2 -2.2,-1.7 -1.6,-10 5.5,-3.5 22.5,12.3 z"
     id="TD"
     name="Chad"
     data-code="td" />
  <path
     d="m 147,169.2 -0.7,3.4 1.7,1.9 2,2.2 0.2,3.2 1.2,1.3 -0.3,14.8 1.4,4.4 -4.5,1.4 -1.3,-2.3 -1.5,-4.1 -0.5,-3.2 1.3,-5.7 -1.4,-2.4 -0.6,-5 v -4.7 l -2.3,-3.3 0.4,-2 z"
     id="TG"
     name="Togo"
     data-code="tg" />
  <path
     d="m 203.8,27.1 -0.1,4.9 -2.6,1.8 -1.6,2.1 -3.6,2.5 0.6,2.6 -0.4,2.8 -2.6,1.4 -2.6,-11.5 -3.4,-2.6 -0.1,-1.5 -4.5,-3.9 -0.6,-4.8 3.2,-3.6 1.1,-5.3 -1,-6.1000004 1,-3.3 5.7,-2.5 3.7,0.7 v 3.3 l 4.4,-2.4 0.4,1.2 -2.5,3.2 0.1,2.9 1.9,1.6000004 -0.5,5.6 -3.5,3.2 1.2,3.5 2.8,0.1 1.4,3.1 z"
     id="TN"
     name="Tunisia"
     data-code="tn" />
  <path
     d="m 322.6,246.4 -0.2,3.9 -1.1,4.5 1.6,2.5 2.5,-1.5 3.3,-0.4 0.7,0.8 3.3,-1.6 -2.3,-2.2 1.9,-2.9 2.8,-2.9 20.5,13.1 0.3,3.7 8.1,6.4 -2.8,8 0.3,3.6 3.5,2.3 0.2,1.7 -1.7,3.9 0.3,1.9 -0.4,3.1 1.8,4 2.2,6.4 2,1.4 -4.6,3.7 -6.2,2.5 -3.4,-0.1 -2.1,1.9 -3.9,0.2 -1.5,0.8 -6.7,-1.8 -2.2,0.2 0.1,-0.1 -1.8,-2.4 -0.3,-6.8 -2.9,-3.4 -0.4,1.2 -1,-1.7 -5.5,-1.2 -3.2,-1.9 -3.6,-1.1 -2.2,-1.1 -0.3,-0.2 -2.7,-6.6 -0.4,-3.9 -4.5,-4.4 1.4,-2.4 -1.1,-2.6 0.2,-2.7 -1,-0.9 0.3,-2.8 0.6,-0.1 2,-2.3 2.3,-3.4 1.4,-1.3 v -2.1 l -1.2,-1.5 -0.3,-2.5 1.6,-0.8 0.3,-3.8 -2.2,-3.6 2,-0.8 z"
     id="TZ"
     name="Tanzania"
     data-code="tz" />
  <path
     d="m 334.6,212.5 2.7,4.5 0.7,3.2 2.6,7.4 -2.1,4.7 -2.8,4.2 -1.6,2.6 v 0.3 l -0.2,-0.4 -3,-1.3 -2.4,1.6 -3.6,0.9 -2.6,3.7 0.3,2.5 -6.2,-0.1 -2,0.8 -3.4,2 -1.4,-0.7 0.1,-4.8 1.3,-2.5 0.3,-5.1 1.2,-3 2.2,-3.3 2.1,-1.8 1.9,-2.2 -2.3,-0.9 0.3,-7.5 2.3,-1.8 3.6,1.5 4.5,-1.5 h 4 z"
     id="UG"
     name="Uganda"
     data-code="ug" />
  <path
     d="m 317.7,294.8 0.3,0.2 2.2,1.1 3.6,1.1 3.2,1.9 2.6,2.9 1.3,5.4 -1,1.7 -1.3,5.2 0.9,5.4 -1.8,2.2 -2,6 2.9,1.6 -17.2,5.3 0.4,4.6 -4.3,0.9 -3.3,2.5 -0.8,2.2 -2,0.6 -5.1,5.2 -3.2,4.2 -1.9,0.1 -1.8,-0.7 -6.2,-0.7 -1,-0.5 v -0.5 l -2.2,-1.5 -3.6,-0.3 -4.6,1.4 -3.6,-4 -3.6,-5.2 0.8,-20.5 11.7,0.1 -0.4,-2.2 0.9,-2.4 -0.9,-3 0.7,-3.1 -0.6,-2 1.9,0.1 0.3,2 2.7,-0.1 3.5,0.6 1.9,2.9 4.4,0.9 3.5,-2 1.2,3.3 4.3,0.9 2,2.8 2.2,3.5 h 4.3 l -0.2,-6.9 -1.6,1.2 -3.9,-2.5 -1.5,-1.2 0.9,-6.4 1.1,-7.6 -1.2,-2.8 1.7,-4.1 1.5,-0.8 7.7,-1.1 0.9,0.3 -0.3,1.4 1.9,0.5 1.2,1.3 1,-0.3 z"
     id="ZM"
     name="Zambia"
     data-code="zm" />
  <path
     d="m 315,382.7 -2.9,-0.7 -1.9,0.8 -2.7,-1.1 h -2.2 l -3.4,-2.9 -4.3,-1 -1.5,-4.1 0.1,-2.3 -2.3,-0.7 -6.1,-7 -1.6,-3.7 -1.1,-1.2 -1.9,-5.1 6.2,0.7 1.8,0.7 1.9,-0.1 3.2,-4.2 5.1,-5.2 2,-0.6 0.8,-2.2 3.3,-2.5 4.3,-0.9 0.2,2.4 4.7,-0.1 2.6,1.3 1.1,1.6 2.7,0.5 2.8,2 -0.4,8.2 -1.3,4.4 -0.4,4.8 0.8,1.9 -0.9,3.8 -0.8,0.6 -1.7,4.6 z"
     id="ZW"
     name="Zimbabwe"
     data-code="zw" />
  <path
     d="m 377.7,250.6 -3.3,-5.3 -0.2,-23.4 4.9,-7.2 1.5,-2.1 3.6,-0.1 5,-4.5 7.3,-0.3 15.6,-19.3 -4.8,0.1 -18.7,-7.6 -2.2,-2.3 -2.2,-3.1 -2.2,-3.6 1.2,-2.2 1.9,-3.5 1.9,1.2 1.2,2.7 2.7,2.7 h 2.8 l 5.2,-1.7 6.1,-0.7 4.9,-2 2.8,-0.4 2,-1.2 3.2,-0.2 1.8,-0.2 2.5,-0.9 3,-0.7 2.5,-2.2 h 2.2 l 0.2,1.8 -0.4,3.7 0.2,3.4 -1.1,2.3 -1.4,7 -2.4,7.1 -3.3,8.2 -4.6,9.4 -4.7,7.2 -6.6,8.8 -5.6,5.2 -8.4,6.4 -5.3,4.8 -6.2,7.8 -1.3,3.4 z"
     id="SO"
     name="Somalia"
     data-code="so" />
  <path
     d="m 315,382.7 2.2,9 1.1,4.6 -1.4,7.1 0.4,2.3 -2.7,-1.1 -1.7,0.4 -0.6,1.9 -1.7,2.4 -0.1,2.2 3.1,3.5 3.2,-0.7 1.4,-2.8 h 4.1 l -1.7,4.7 -1,5.3 -1.7,2.9 -4,3.3 -1.1,0.9 -2.6,3.3 -1.8,3.3 -3.5,4.6 -6.7,6.6 -4.1,3.8 -4.3,3 -5.9,2.4 -2.7,0.4 -0.9,1.8 -3.2,-1 -2.7,1.2 -5.7,-1.2 -3.3,0.8 -2.2,-0.4 -5.8,2.6 -4.6,1 -3.5,2.4 -2.4,0.2 -2.1,-2.3 -1.8,-0.1 -2.2,-2.9 -0.3,0.9 -0.6,-1.7 0.3,-3.8 -1.5,-4.3 1.8,-1.2 0.1,-4.9 -3.3,-6 -2.4,-5.4 v -0.1 l -3.6,-8.3 2.8,-3.2 2,1.8 0.8,2.7 2.5,0.5 3.4,1.2 2.9,-0.5 5,-3.3 1.1,-23.7 1.4,1 3,6.1 -0.6,3.9 1.1,2.3 4,-0.7 2.8,-2.9 2.7,-1.9 1.5,-3.1 2.8,-1.4 2.3,0.7 2.5,1.8 4.5,0.3 3.6,-1.4 0.6,-2 1.2,-3.1 3,-0.5 1.8,-2.4 2,-4.3 5.2,-4.8 8.1,-4.7 h 2.2 l 2.7,1.1 1.9,-0.8 z m -20.3,53.2 1.1,-2 3.1,-1 1.1,-2.1 1.9,-3.1 -1.7,-2 -2.2,-2 -2.7,1.4 -3.1,2.5 -3.2,4 3.7,5 z"
     id="ZA"
     name="South Africa"
     data-code="za" />
  <path
     class="Cape Verde"
     d="M 3.4,144.5 3.2,144.8 3,144.6 v -0.3 l 0.3,-0.1 z"
     id="path138"
     data-code="cv" />
  <path
     class="Cape Verde"
     d="M 5.3,144.6 5.1,144.7 4.7,144.6 4.4,144.3 4.3,144 4.5,143.6 5,143.3 h 0.4 l 0.2,0.7 -0.1,0.4 z"
     id="path139"
     data-code="cv" />
  <path
     class="Cape Verde"
     d="m 8.8,141.5 0.2,0.1 v 0.2 l 0.2,0.2 0.4,0.5 h 0.2 l 0.2,0.3 0.2,0.5 0.2,0.2 -0.3,0.5 -0.3,0.1 L 9.3,144 9,143.9 8.7,143.6 v -0.2 l -0.2,-0.1 -0.1,-0.4 0.1,-0.2 v -0.3 L 8.7,142 8.5,141.5 Z"
     id="path140"
     data-code="cv" />
  <path
     class="Cape Verde"
     d="m 11.9,141.5 0.3,0.1 0.1,0.6 -0.1,0.4 -0.4,0.2 -0.4,-0.4 0.2,-0.4 -0.1,-0.2 z"
     id="path141"
     data-code="cv" />
  <path
     class="Cape Verde"
     d="m 13.9,135.8 0.3,-0.2 0.5,0.2 0.1,0.2 v 0.7 l -0.4,0.3 -0.3,0.2 H 13.8 L 13.3,137 v -0.5 l 0.2,-0.2 v -0.6 l 0.1,-0.1 z"
     id="path142"
     data-code="cv" />
  <path
     class="Cape Verde"
     d="m 5.9,133 0.4,-0.1 0.3,0.2 H 7 l 0.3,0.2 0.1,0.2 H 6.9 l -0.7,-0.3 -0.2,0.1 -0.3,0.6 -0.3,-0.6 -0.1,-0.1 -0.1,-0.4 0.3,-0.1 z"
     id="path143"
     data-code="cv" />
  <path
     class="Cape Verde"
     d="m 13.7,132.5 0.1,0.1 -0.1,0.6 -0.2,0.1 v -0.5 l -0.2,-0.3 v -0.3 l -0.1,-0.3 0.4,-0.3 0.2,0.2 -0.1,0.6 z"
     id="path144" />
  <path
     class="Cape Verde"
     d="m 2.4,131.2 0.2,0.3 0.1,0.3 -0.7,0.3 -0.3,-0.2 -0.2,-0.2 0.4,-0.4 z"
     id="path145"
     data-code="cv" />
  <path
     class="Cape Verde"
     d="m 1.6,129.4 0.3,0.1 v 0.2 l 0.3,0.3 -0.2,0.4 -0.6,0.3 -0.4,0.4 -0.7,0.1 v -0.1 -0.5 l -0.2,-0.2 v -0.2 L 0.3,130 h 0.2 l 0.2,-0.2 0.7,-0.4 z"
     id="path146"
     data-code="cv" />
</svg>
