<?xml version="1.0" encoding="UTF-8" standalone="no"?>
<!--
*************Map created by Simplemaps.com********************		
*************Attribution is highly appreciated!***************
*************http://simplemaps.com****************************

The MIT License (MIT)

Copyright (c) 2020 Pareto Softare, LLC DBA Simplemaps.com

Permission is hereby granted, free of charge, to any person obtaining a copy
of this software and associated documentation files (the "Software"), to deal
in the Software without restriction, including without limitation the rights
to use, copy, modify, merge, publish, distribute, sublicense, and/or sell
copies of the Software, and to permit persons to whom the Software is
furnished to do so, subject to the following conditions:

The above copyright notice and this permission notice shall be included in
all copies or substantial portions of the Software.

THE SOFTWARE IS PROVIDED "AS IS", WITHOUT WARRANTY OF ANY KIND, EXPRESS OR
IMPLIED, INCLUDING BUT NOT LIMITED TO THE WARRANTIES OF MERCHANTABILITY,
FITNESS FOR A PARTICULAR PURPOSE AND NONINFRINGEMENT. IN NO EVENT SHALL THE
AUTHORS OR COPYRIGHT HOLDERS BE LIABLE FOR ANY CLAIM, DAMAGES OR OTHER
LIABILITY, WHETHER IN AN ACTION OF CONTRACT, TORT OR OTHERWISE, ARISING FROM,
OUT OF OR IN CONNECTION WITH THE SOFTWARE OR THE USE OR OTHER DEALINGS IN
THE SOFTWARE.

-->

<svg
   baseprofile="tiny"
   fill="#ececec"
   height="560.20001"
   stroke="#000000"
   stroke-linecap="round"
   stroke-linejoin="round"
   stroke-width="0.2"
   version="1.2"
   viewBox="0 0 700 600"
   width="733.40002"
   id="svg301"
   sodipodi:docname="asien.svg"
   inkscape:version="1.4.2 (ebf0e940, 2025-05-08)"
   xmlns:inkscape="http://www.inkscape.org/namespaces/inkscape"
   xmlns:sodipodi="http://sodipodi.sourceforge.net/DTD/sodipodi-0.dtd"
   xmlns="http://www.w3.org/2000/svg"
   xmlns:svg="http://www.w3.org/2000/svg">
  <defs
     id="defs301" />
  <sodipodi:namedview
     id="namedview301"
     pagecolor="#ffffff"
     bordercolor="#000000"
     borderopacity="0.25"
     inkscape:showpageshadow="2"
     inkscape:pageopacity="0.0"
     inkscape:pagecheckerboard="0"
     inkscape:deskcolor="#d1d1d1"
     showgrid="false"
     inkscape:zoom="0.47000522"
     inkscape:cx="297.86903"
     inkscape:cy="312.76248"
     inkscape:window-width="1424"
     inkscape:window-height="683"
     inkscape:window-x="0"
     inkscape:window-y="25"
     inkscape:window-maximized="0"
     inkscape:current-layer="svg301" />
  <path
     d="m 279,251.5 1.5,1.8 -2.9,0.8 -2.4,1.1 -5.9,0.8 -5.3,1.3 -2.4,2.8 1.9,2.7 1.4,3.2 -2,2.7 0.8,2.5 -0.9,2.3 -5.2,-0.2 3.1,4.2 -3.1,1.7 -1.4,3.8 1.1,3.9 -1.8,1.8 -2.1,-0.6 -4,0.9 -0.2,1.7 h -4.1 l -2.3,3.7 0.8,5.4 -6.6,2.7 -3.9,-0.6 -0.9,1.4 -3.4,-0.8 -5.3,1 -9.6,-3.3 3.9,-5.8 -1.1,-4.1 -4.3,-1.1 -1.2,-4.1 -2.7,-5.1 1.6,-3.5 -2.5,-1 0.5,-4.7 0.6,-8 5.9,2.5 3.9,-0.9 0.4,-2.9 4,-0.9 2.6,-2 -0.2,-5.1 4.2,-1.3 0.3,-2.2 2.9,1.7 1.6,0.2 h 3 l 4.3,1.4 1.8,0.7 3.4,-2 2.1,1.2 0.9,-2.9 3.2,0.1 0.6,-0.9 -0.2,-2.6 1.7,-2.2 3.3,1.4 -0.1,2 1.7,0.3 0.9,5.4 2.7,2.1 1.5,-1.4 2.2,-0.6 2.5,-2.9 3.8,0.5 z"
     id="AF"
     name="Afghanistan"
     data-code="af" />
  <path
     d="m 192.2,326.6 1.3,5.1 h -2.8 v 4.2 l 1.1,0.9 -2.4,1.3 0.2,2.6 -1.3,2.6 v 2.6 l -1,1.4 -16.9,-3.2 -2.7,-6.6 -0.3,-1.4 0.9,-0.4 0.4,1.8 4.2,-1 4.6,0.2 3.4,0.2 3.3,-4.4 3.7,-4.1 3,-4 z"
     id="AE"
     name="United Arab Emirates"
     data-code="ae" />
  <path
     d="m 126.8,242.9 -1.8,0.2 -2.8,-3.7 -0.2,-1 h -2.3 l -1.9,-1.7 -1,0.1 -2.4,-1.8 -4.2,-1.6 -0.1,-3.1 -1.3,-2.2 7,-1 1.4,1.6 2.2,1.1 -0.7,1.6 3.2,2.2 -1.1,2.1 2.6,1.7 2.5,1 z"
     id="AM"
     name="Armenia"
     data-code="am" />
  <path
     class="Azerbaijan"
     d="m 125,243.1 -3.8,-0.9 -3.2,-2.9 -1.2,-2.5 1,-0.1 1.9,1.7 h 2.3 l 0.2,1 z"
     id="path7"
     data-code="az" />
  <path
     class="Azerbaijan"
     d="m 131.3,226.1 2.5,-2.6 3.5,3.3 3.6,4.6 2.5,0.3 1.9,1.7 -4.2,0.5 0.1,5 -0.4,2.2 -1.7,1.5 0.8,3.1 -1.3,0.4 -3.9,-3.4 1.2,-3.1 -1.9,-1.9 -1.9,0.5 -5.3,4.7 -0.9,-4.5 -2.5,-1 -2.6,-1.7 1.1,-2.1 -3.2,-2.2 0.7,-1.6 -2.2,-1.1 -1.4,-1.6 1.1,-1.1 4.2,1.9 2.9,0.3 0.6,-0.7 -3.3,-3.5 1.2,-0.8 1.5,0.2 4.3,3.8 2.4,0.5 z"
     id="path8"
     data-code="az" />
  <path
     d="m 396.6,350.2 0.6,4.6 -2.1,-1 1.1,5.2 -2.1,-3.3 -0.8,-3.3 -1.5,-3.1 -2.8,-3.7 -5.2,-0.3 0.9,2.7 -1.2,3.5 -2.6,-1.3 -0.6,1.2 -1.7,-0.7 -2.2,-0.6 -1.6,-5.3 -2.6,-4.8 0.3,-3.9 -3.7,-1.7 0.9,-2.3 3,-2.4 -4.6,-3.4 1.2,-4.4 4.9,2.8 2.7,0.3 1.2,4.5 5.4,0.9 5.1,-0.1 3.4,1.1 -1.6,5.4 -2.4,0.4 -1.2,3.6 3.6,3.4 0.3,-4.2 h 1.5 z"
     id="BD"
     name="Bangladesh"
     data-code="bd" />
  <path
     d="m 529.1,462.7 2.2,-2.4 4.6,-3.6 -0.1,3.2 -0.1,4.1 -2.7,-0.2 -1.1,2.2 z"
     id="BN"
     name="Brunei Darussalam"
     data-code="bn" />
  <path
     d="m 384.8,313.4 2.6,2.1 0.5,3.9 -4.5,0.2 -4.7,-0.4 -3.2,1 -5.5,-2.5 -0.4,-1.2 2.6,-4.8 2.6,-1.6 4.3,1.4 2.9,0.2 z"
     id="BT"
     name="Bhutan"
     data-code="bt" />
  <path
     class="China"
     d="m 498.2,371.8 -4.3,3.1 -4.9,-2 -1,-5.5 2.2,-2.9 5.8,-1.8 3.3,0.1 1.6,2.5 -2,2.8 z"
     id="path39"
     data-code="cn" />
  <path
     class="China"
     d="m 521.6,175.4 9,4.5 6,5.8 h 7.6 l 2.6,-2.4 6.9,-1.9 1.3,5.7 -0.3,2.3 2.8,6.8 0.6,6.2 -6.9,-1.1 -2.9,2.2 4.7,5.4 3.9,7.5 -2.5,0.1 1.9,3.3 -5.5,-3.8 v 3.6 l -6.4,2.7 2.8,3.4 -4.6,-0.3 -3.6,-2 -1.1,4.6 -3.9,3.4 -2.1,4.1 -6.3,1.8 -2.4,3 -4.8,1.8 1.3,-3 -2.3,-2.5 2,-4.3 -4.5,-3.3 -3.4,2.2 -3.6,4.5 -1.3,4.1 -5,0.3 -1.3,3 4.8,4.3 4.8,1.1 1.4,2.8 5.1,1.9 3.8,-4.6 5.9,2.5 3.5,0.2 2.3,3.3 -6.7,1.8 -1,3.5 -3.8,3.2 -0.9,4.5 7.1,3.5 4.6,6.3 5.5,5.9 5.5,4.9 1.6,4.8 -2.8,1.8 2.4,3.4 3.9,2 0.8,5.2 0.1,5.1 -2.8,0.6 -2.1,6.9 -2.3,8.5 -3.4,7.6 -6.4,5.9 -6.6,5.5 -6.1,0.7 -2.9,2.8 -2.3,-2 -2.5,3.1 -7.2,3.3 -5.8,0.9 -0.7,6.8 -3.1,0.4 -2.2,-4.7 0.9,-2.4 -7.8,-2.1 -2.4,1.1 -5.9,-1.7 -3.1,-2.6 0.3,-3.7 -5.3,-1.2 -3.1,-2.4 -4.1,3.4 -5.3,0.8 -4.4,-0.1 -2.7,1.6 -2.7,0.9 2,7.4 -3,-0.2 -0.8,-1.5 -0.5,-2.7 -3.8,1.9 -2.6,-1.2 -4.5,-2.4 0.8,-5.3 -3.7,-1.3 -2.4,-5.9 -5.6,1.1 -0.7,-7.6 4.2,-5.4 -0.9,-5.3 -1.3,-4.9 -2.7,-1.5 -2.7,-3.8 -3.1,0.5 -6.1,-1 1.2,-2.7 -3.6,-4 -3.2,2.7 -4.9,-1.5 -5.4,4 -3.9,4.8 -4.2,0.8 -2.8,-1.7 -2.9,-0.2 -4.3,-1.4 -2.6,1.6 -2.6,4.8 -1.5,-5.1 -3.1,1.4 -6.5,-0.7 -6.5,-1.4 -5,-2.9 -4.5,-1.2 -2.5,-3.1 -3.3,-0.9 -6.4,-4.2 -4.8,-2 -1.9,1.5 -8.6,-4.5 -6.2,-4 -3.2,-7.1 4.1,0.9 -0.6,-3.3 -3,-3.3 -0.8,-5.2 -7.7,-7.6 -9.5,-2.5 -2.9,-5 -4.7,-3 -1.5,-1.8 -1.8,-3.6 -0.5,-2.5 -3.7,-1.5 -1.5,0.7 -3.1,-6 1.1,-1.4 -1.2,-1.5 4.1,-3 3.2,-1.3 5.8,0.9 0.6,-4.1 6.4,-0.7 1,-2.6 6.9,-3.4 0.2,-1.4 -1.7,-3.7 2.9,-1.6 -8.8,-11 9.1,-2.5 2,-1.4 -1,-11.3 10.8,2.1 1.6,-2.9 -2.5,-6.2 3.8,-0.6 1.9,-4.2 1.7,-0.5 3.3,4.4 5.7,3.3 8.2,2.3 5.8,5.1 1.4,7.3 3,2.8 6.5,1.1 7.2,0.8 8,4 3.4,0.7 5,5.8 4.7,3.8 5.6,-0.2 11.3,1.5 6.4,-0.9 5.6,0.9 9.4,3.9 h 6.2 l 3.3,1.9 4.4,-3.4 7.2,-2.2 7.6,-0.2 4.9,-2.2 2,-3.4 2.4,-2.2 -1.9,-2.1 -2.9,-2.4 0.5,-4.1 3.2,0.6 5.9,1.3 3.2,-3.4 6.4,-2.4 1.3,-4.2 2.5,-1.8 6.8,-0.8 4.4,0.7 -0.8,-2.2 -7.2,-4.4 -5.2,-2 -2.5,2.3 -5.5,-1 -2.3,0.8 -2.8,-2.5 -0.3,-6.3 -0.6,-4.7 7.4,2.4 4.4,-3.9 -1.9,-2.8 -0.2,-6.5 1.3,-2 -2.5,-3.4 -3.7,-1.4 1.7,-3.1 5.1,-1.1 6.2,-0.2 8.6,1.9 6,2.2 7.7,6.2 3.8,2.7 4.5,3.8 6.2,6 z"
     id="path40"
     data-code="cn" />
  <path
     d="m 111.7,217.8 5.1,1.3 2.1,2.6 3.6,1.5 -1.2,0.8 3.3,3.5 -0.6,0.7 -2.9,-0.3 -4.2,-1.9 -1.1,1.1 -7,1 -5.6,-3.2 -5.500001,0.3 0.3,-2.7 -2.1,-4.3 -3.4,-2.4 -3,-0.7 -2.2,-1.9 0.4,-0.8 4.6,1.1 7.7,1 7.600001,3.1 1.2,1.2 z"
     id="GE"
     name="Georgia"
     data-code="ge" />
  <path
     class="Indonesia"
     d="m 563.5,557.5 -2.4,0.1 -7.1,-4.5 5.4,-1.3 2.8,2 1.8,1.9 z"
     id="path47"
     data-code="id" />
  <path
     class="Indonesia"
     d="m 588.3,548.8 0.5,1.3 -0.1,1.9 -4.1,4.8 -5,1.4 -0.6,-0.7 0.7,-2.2 2.8,-3.9 z"
     id="path48"
     data-code="id" />
  <path
     class="Indonesia"
     d="m 548.7,543.7 1.9,1.7 3.6,-0.5 1.2,2.7 -6.7,1.3 -3.9,0.9 -3.1,-0.1 2.2,-3.7 h 3.2 z"
     id="path49"
     data-code="id" />
  <path
     class="Indonesia"
     d="m 577,543.7 -1.1,3.6 -8.6,1.8 -7.5,-0.8 0.2,-2.4 4.6,-1.3 3.4,1.9 3.8,-0.5 z"
     id="path50"
     data-code="id" />
  <path
     class="Indonesia"
     d="m 496.8,535.2 10.8,0.7 1.4,-2.7 10.3,3.1 1.8,4.2 8.4,1.2 6.7,3.8 -6.6,2.4 -6.1,-2.6 -5.1,0.2 -5.8,-0.5 -5.2,-1.1 -6.4,-2.5 -4.1,-0.6 -2.4,0.8 -10.2,-2.7 -0.8,-2.7 -5.1,-0.5 4.2,-6.1 6.8,0.4 4.4,2.5 2.4,0.5 z"
     id="path51"
     data-code="id" />
  <path
     class="Indonesia"
     d="m 644.7,531.6 -3.2,4.4 -0.2,-4.8 1.1,-2.3 1.3,-2.2 1.2,1.9 z"
     id="path52"
     data-code="id" />
  <path
     class="Indonesia"
     d="m 603.3,513.9 -2.2,2.2 -3.8,-1.2 -1,-2.8 5.7,-0.3 z"
     id="path53"
     data-code="id" />
  <path
     class="Indonesia"
     d="m 621.7,511.6 1.8,4.9 -4.6,-2.7 -4.7,-0.5 -3.3,0.4 -3.9,-0.2 1.5,-3.5 7,-0.3 z"
     id="path54"
     data-code="id" />
  <path
     class="Indonesia"
     d="m 681.5,508.4 -1,20.9 -1.6,21 -4.6,-5.3 -5.6,-1.3 -1.5,1.8 -7.2,0.2 2.8,-5.2 3.7,-1.8 -1,-7 -2.3,-5.3 -10.7,-5.5 -4.6,-0.5 -8.3,-6 -1.8,3.2 -2.2,0.5 -1.1,-2.3 0.1,-2.8 -4.2,-3.2 6.2,-2.3 4,0.1 -0.4,-1.7 h -8.3 l -2.2,-3.8 -5,-1.2 -2.3,-3.2 7.6,-1.5 2.9,-2.1 9.1,2.6 0.9,2.4 1.3,10.4 5.7,3.8 5,-6.8 6.6,-3.8 h 5 l 4.8,2.2 4.1,2.3 z"
     id="path55"
     data-code="id" />
  <path
     class="Indonesia"
     d="m 592.4,482.6 -4.5,6.4 -4.3,1.2 -5.4,-1.2 -9.5,0.3 -4.9,0.9 -0.8,4.9 5,5.7 3.1,-2.9 10.6,-2.2 -0.5,2.9 -2.5,-0.9 -2.5,3.8 -5.1,2.5 5.1,8.2 -1.1,2.2 4.8,7.4 -0.3,4.2 -3.1,1.9 -2.1,-2.3 3,-5.2 -5.7,2.5 -1.3,-1.8 0.8,-2.5 -3.9,-3.8 0.7,-6.2 -3.9,1.9 0.2,7.5 -0.2,9.2 -3.7,0.9 -2.3,-1.8 1.9,-5.9 -0.6,-6.2 -2.4,-0.1 -1.6,-4.4 2.5,-4.2 0.9,-5.1 3,-9.7 1.1,-2.6 4.8,-4.8 4.5,1.9 7.1,0.9 6.5,-0.3 5.6,-4.6 z"
     id="path56"
     data-code="id" />
  <path
     class="Indonesia"
     d="m 612,484.5 -0.3,5.6 -2.9,-0.7 -0.9,3.9 2.3,3.4 -1.6,0.8 -2.2,-4.1 -1.7,-8.2 1,-5.1 1.8,-2.3 0.5,3.5 3.4,0.5 z"
     id="path57"
     data-code="id" />
  <path
     class="Indonesia"
     d="m 504,478.8 1,4.3 3.9,3.7 3.7,-1.3 3.6,0.4 3.3,-3.2 2.7,-0.6 5.4,1.8 4.6,-1.4 2.6,-8.9 2.1,-2.2 1.7,-7.3 h 6.5 l 5,1.1 -3,5.8 4.4,6 -0.9,3 6.4,5.9 -6.7,0.8 -1.8,4.4 0.2,5.8 -5.5,4.4 -0.4,6.4 -2.5,9.8 -0.7,-2.3 -6.6,2.9 -2.1,-3.9 -4,-0.4 -2.8,-2.1 -6.8,2.4 -1.9,-3.2 -3.8,0.4 -4.6,-0.7 -0.6,-8.6 -2.8,-1.8 -2.7,-5.5 -0.8,-5.6 0.6,-6 z"
     id="path58"
     data-code="id" />
  <path
     class="Indonesia"
     d="m 481.2,529.3 -6.2,0.1 -4.5,-5.3 -7.1,-5.3 -2.3,-3.9 -4.1,-5.2 -2.7,-4.8 -4.2,-9 -4.9,-5.4 -1.7,-5.5 -2.2,-5 -5.2,-4 -3.1,-5.5 -4.4,-3.6 -6.2,-7.1 -0.6,-3.3 3.6,0.3 8.9,1.2 5.2,6.3 4.6,4.4 3.2,2.6 5.5,6.9 5.8,0.1 4.8,4.4 3.4,5.4 4.3,3 -2.3,5.2 3.3,2.2 2,0.2 0.9,4.5 1.9,3.5 4.1,0.6 2.6,4.1 -1.7,8 z"
     id="path59"
     data-code="id" />
  <path
     d="m 323.6,297.9 -2.8,3 -0.9,6 5.8,2.4 5.8,3.1 7.8,3.6 7.7,0.9 3.8,3.2 4.3,0.6 6.9,1.5 4.6,-0.1 0.1,-2.5 -1.5,-4.1 -0.2,-2.7 3.1,-1.4 1.5,5.1 0.4,1.2 5.5,2.5 3.2,-1 4.7,0.4 4.5,-0.2 -0.5,-3.9 -2.6,-2.1 4.2,-0.8 3.9,-4.8 5.4,-4 4.9,1.5 3.2,-2.7 3.6,4 -1.2,2.7 6.1,1 1,2.4 -1.7,1.2 1.4,3.9 -4.2,-1.1 -6.2,4.4 0.9,3.7 -2,5.4 0.3,3.1 -1.6,5.3 -4.6,-1.5 0.9,6.7 -1,2.2 1,2.7 -2.5,1.5 -4.4,-10.2 h -1.5 l -0.3,4.2 -3.6,-3.4 1.2,-3.6 2.4,-0.4 1.6,-5.4 -3.4,-1.1 -5.1,0.1 -5.4,-0.9 -1.2,-4.5 -2.7,-0.3 -4.9,-2.8 -1.2,4.4 4.6,3.4 -3,2.4 -0.9,2.3 3.7,1.7 -0.3,3.9 2.6,4.8 1.6,5.3 -0.5,2.4 -3.8,-0.1 -6.6,1.3 0.9,4.8 -2.4,3.8 -7.5,4.4 -5.3,7.5 -3.8,4.1 -5,4.2 0.3,2.9 -2.6,1.6 -4.8,2.3 -2.6,0.3 -1.2,4.9 1.9,8.4 0.7,5.3 -1.9,6.1 0.7,10.9 -2.9,0.3 -2.3,4.9 1.9,2.2 -5.1,1.8 -1.7,4.3 -2.2,1.9 -5.6,-6 -3.1,-9 -2.5,-6.5 -2.2,-3 -3.4,-6.2 -2,-8 -1.4,-4 -5.9,-8.8 -3.5,-12.5 -2.6,-8.2 -0.8,-7.8 -1.7,-6 -7.7,3.9 -4,-0.8 -8.1,-7.8 2.4,-2.3 -1.9,-2.5 -7.1,-5.5 3.2,-4.3 h 12.1 l -1.8,-5.5 -3.5,-3.2 -1.4,-5 -4,-2.8 4.9,-6.8 6.5,0.5 4.5,-6.7 2.2,-6.5 3.9,-6.5 -1,-4.6 3.8,-3.7 -5.1,-3.1 -2.9,-4.4 -3.3,-5.6 2,-2.8 8.5,1.6 5.7,-1 3.8,-5.4 7.7,7.6 0.8,5.2 3,3.3 0.6,3.3 -4.1,-0.9 3.2,7.1 6.2,4 z"
     id="IN"
     name="India"
     data-code="in" />
  <path
     d="m 125,243.1 1.8,-0.2 5.3,-4.7 1.9,-0.5 1.9,1.9 -1.2,3.1 3.9,3.4 1.3,-0.4 2.5,4.8 5.3,1.3 4.3,3.2 7.7,1.1 8,-1.7 0.2,-1.5 4.4,-1.2 3,-3.7 3.6,0.2 2,-1.2 3.9,0.6 6.6,3.3 4.3,0.7 7.3,5.6 4,0.3 1.7,5.3 -0.6,8 -0.5,4.7 2.5,1 -1.6,3.5 2.7,5.1 1.2,4.1 4.3,1.1 1.1,4.1 -3.9,5.8 3.2,3.4 2.8,3.9 5.7,2.8 1,5.6 2.7,1.1 0.9,2.9 -7.5,3.4 -1.1,7.4 -10.6,-1.9 -6.2,-1.5 -6.3,-0.8 -3.3,-7.9 -2.8,-1.1 -4.1,1.1 -5.1,3.1 -7,-2.1 -6.1,-5 -5.5,-1.8 -4.4,-6.1 -5.2,-8.5 -2.8,1 -3.7,-2.1 -1.7,2.5 -3.5,-3.4 -0.5,-3.4 h -1.7 l 0.2,-4.7 -3.5,-4.8 -7.1,-3.6 -4.6,-6.1 0.5,-5 2.3,-2.2 -0.9,-3.7 -3.8,-2 -4.7,-7.6 -3.8,-5.1 0.7,-2 -2.9,-7.3 3.3,-1.9 1.2,2.5 3.2,2.9 z"
     id="IR"
     name="Iran"
     data-code="ir" />
  <path
     d="m 119.5,253.1 4.7,7.6 3.8,2 0.9,3.7 -2.3,2.2 -0.5,5 4.6,6.1 7.1,3.6 3.5,4.8 -0.2,4.7 h 1.7 l 0.5,3.4 3.5,3.4 -3.3,-0.3 -3.7,-0.6 -3.3,6.2 -10.2,-0.5 -16.8,-12.9 -8.6,-4.5 -6.800001,-1.8 -3.1,-7.8 L 102,270.7 l 1,-7.7 -1.2,-4.7 2.7,-1.6 2.1,-4 2.1,-1 6.3,0.9 2.1,1.6 z"
     id="IQ"
     name="Iraq"
     data-code="iq" />
  <path
     d="m 75.099999,278.1 0.4,2.6 -0.6,1 h 0.1 l -0.7,2 -2.1,-0.8 -0.7,4.2 1.5,0.7 -1.3,0.9 -0.1,1.7 2.5,-0.8 0.4,2.5 -1.8,10.2 -0.7,-1.6 -3.9,-9.4 1.4,-2.1 -0.4,-0.4 1.1,-3 0.6,-4.8 0.6,-1.7 h 0.1 1.8 l 0.4,-1.1 z"
     id="IL"
     name="Israel"
     data-code="il" />
  <path
     d="m 94.099999,285.2 -0.9,1 -10.4,3.2 6,6.5 -1.6,1 -0.7,2.2 -4.1,0.9 -1.1,2.3 -2.1,2 -6.2,-1.1 -0.3,-0.9 1.8,-10.2 -0.4,-2.5 0.6,-1.9 -0.4,-4 0.7,-2 6.3,2.6 9.7,-6.9 z"
     id="JO"
     name="Jordan"
     data-code="jo" />
  <path
     class="Japan"
     d="m 604.5,272.5 1.6,2.2 -1.3,3.9 -3.1,-2.1 -2.1,1.5 0.1,3.7 -4.3,-1.8 -1.2,-3 1.3,-3.9 3.4,0.8 1,-2.7 z"
     id="path63"
     data-code="jp" />
  <path
     class="Japan"
     d="m 629.1,253.3 0.6,5.1 2.5,3.2 -0.6,4.5 -5.4,3 -9.2,0.4 -4.4,7.4 -4.7,-2.5 -2.4,-4.8 -8.6,1.4 -5.1,3 -6.2,0.2 7.4,4.7 0.8,10.9 -2.5,2.7 -3.6,-2.5 -0.9,-5.8 -4.1,-1.8 -4,-4.4 4.3,-2 1.1,-4.1 3.9,-3.3 2,-4.4 9.7,-1.9 6.3,1.3 v -11.4 l 5.1,3.1 4.5,-6.4 1.7,-2.5 -1,-7.8 -5.1,-7.2 -0.2,-4 4.8,-1.2 8.2,8.9 2.8,5.1 -1.3,6.5 z"
     id="path64"
     data-code="jp" />
  <path
     class="Japan"
     d="m 617.2,208.5 4.5,1.3 1.8,-2.6 6,7.1 -6.4,1.7 -0.4,6.3 -10.9,-4.3 1.6,6.9 -5.7,0.1 -4.7,-6.3 -0.6,-4.9 5.2,-0.3 -4.4,-8.8 -1.8,-4.9 10.5,6.6 z"
     id="path65"
     data-code="jp" />
  <path
     d="m 234.3,150.4 4.4,-0.3 9.2,-5.8 -0.8,2 8.4,4.7 18.3,15.6 1.1,-3.2 8.4,3.5 6.2,-1.6 3.3,1.1 4.1,3.6 4,1.2 3.3,2.7 6,-0.9 4.4,3.8 -1.9,4.2 -3.8,0.6 2.5,6.2 -1.6,2.9 -10.8,-2.1 1,11.3 -2,1.4 -9.1,2.5 8.8,11 -2.9,1.6 1.7,3.7 -3.5,-1 -3.4,-2.3 -7.9,-0.6 -8.6,-0.2 -1.6,0.7 -8.2,-2.7 -2.5,1.4 0.5,3.7 -9.2,-2.2 -3.1,0.9 -0.3,2.8 -2.6,1.2 -5.4,4.4 -0.9,4.6 h -2 l -2.3,-3 -6.7,-0.2 -2.5,-5.2 -2.6,-0.1 -1.5,-6.4 -7.6,-4.6 -8.6,0.5 -5.7,0.9 -6.6,-5.7 -4.8,-2.4 -9.2,-4.5 -1.1,-0.5 -12,3.7 6.2,23.4 -2.6,0.3 -4.8,-5 -3.9,-1.8 -5.6,1.3 -1.8,2.2 -0.6,-1.6 0.6,-2.6 -1.5,-2.2 -6.5,-2.2 -3.7,-5.7 -3.2,-1.6 -0.6,-2.1 5.1,0.6 -1,-4.6 4.1,-1 4.7,0.9 -0.7,-6.1 -1.9,-3.9 -5,0.3 -4.7,-1.5 -5.1,2.7 -4.4,1.4 -2.8,-1.1 -0.2,-3.2 -4.3,-4.2 -3.6,0.2 -5.3,-4.2 1.7,-4.8 -1.8,-1.2 2.2,-6.9 6,3.6 -0.6,-4.5 8.1,-6.7 7.6,-0.2 12,4.3 6.6,2.5 4.4,-2.6 7.7,-0.1 7.3,3.2 0.8,-1.9 7,0.3 0.2,-2.9 -9.4,-4.3 3.5,-3 -1.5,-1.6 4,-1.6 -5.1,-4.2 1.4,-2.1 17,-2.1 1.7,-1.5 10.9,-2.3 3.1,-2.5 9.1,1.3 4.4,6.3 4.3,-1.5 7.1,2.1 z"
     id="KZ"
     name="Kazakhstan"
     data-code="kz" />
  <path
     d="m 296.5,220.1 -0.2,1.4 -6.9,3.4 -1,2.6 -6.4,0.7 -0.6,4.1 -5.8,-0.9 -3.2,1.3 -4.1,3 1.2,1.5 -1.1,1.4 -9.6,1 -7.1,-2.1 -5.5,0.5 -0.6,-3.6 6,1 1.4,-1.9 4.1,0.6 5.3,-4.6 -7.2,-3.4 -3.2,1.6 -4.6,-2.4 3,-4.1 -1.7,-0.6 0.3,-2.8 3.1,-0.9 9.2,2.2 -0.5,-3.7 2.5,-1.4 8.2,2.7 1.6,-0.7 8.6,0.2 7.9,0.6 3.4,2.3 z"
     id="KG"
     name="Kyrgyzstan"
     data-code="kg" />
  <path
     d="m 485.8,400.5 1.8,4.3 0.1,7.7 -9,5 2.8,3.8 -5.9,0.5 -4.6,2.6 -4.8,-0.9 -2.6,-3.4 -3.5,-6.6 -2.1,-7.8 3.1,-5.3 7.1,-1.2 5.3,0.9 5,2.5 2,-4.4 z"
     id="KH"
     name="Cambodia"
     data-code="kh" />
  <path
     d="m 548.9,249.4 v -0.6 l 2.5,0.2 0.6,-2.8 3.6,-0.4 2,-0.4 v -1.5 l 8.3,7.5 3.3,4.2 3.4,7.4 -0.5,3.5 -4.3,1.2 -3.1,2.7 -4.6,0.5 -2.1,-3.5 -1.1,-4.8 -5.3,-6.6 3.4,-1.1 z"
     id="KR"
     name="Republic of Korea"
     data-code="kr" />
  <path
     d="m 143.5,299.3 1.5,2.8 -0.3,1.5 2.4,4.8 -3.9,0.2 -1.7,-3.1 -5,-0.6 3.3,-6.2 z"
     id="KW"
     name="Kuwait"
     data-code="kw" />
  <path
     d="m 485.8,400.5 -5.3,-2.3 -2,4.4 -5,-2.5 1.5,-2.9 -0.4,-5.4 -5.3,-5.6 -1.3,-6.4 -5,-5.2 -4.3,-0.4 -0.8,2.2 -3.2,0.2 -1.9,-1.1 -5.3,3.8 -1,-5.8 0.4,-6.7 -3.8,-0.3 -0.9,-3.9 -2.7,-2 0.8,-2.3 4.1,-4.2 0.8,1.5 3,0.2 -2,-7.4 2.7,-0.9 4,5.1 3.5,5.8 h 6.8 l 3,5.6 -3.3,1.7 -1.2,2.3 7.3,3.9 5.7,7.6 4.4,5.6 4.9,4.5 2,4.5 z"
     id="LA"
     name="Lao PDR"
     data-code="la" />
  <path
     d="m 75.099999,278.1 -1.4,0.1 -0.4,1.1 h -1.8 l 1.3,-5.3 2.2,-4.5 v -0.2 l 2.5,0.3 1.2,2.5 -2.7,2.5 z"
     id="LB"
     name="Lebanon"
     data-code="lb" />
  <path
     d="m 341.9,451.9 -4.8,1.5 -2.9,-5.1 -1.4,-9.2 2,-10.4 4.1,3.5 2.8,4.5 3.1,6.7 -0.6,6.7 z"
     id="LK"
     name="Sri Lanka"
     data-code="lk" />
  <path
     d="m 444.4,354.1 -4.1,4.2 -0.8,2.3 -3,1.5 -2.8,2.8 -3.9,0.3 -1.5,6.9 -2.2,1.2 3.5,5.6 4.1,4.7 2.9,4.3 -1.4,5.5 -1.8,1.2 1.8,3.2 4.3,5.1 1,3.6 0.2,3 2.7,5.9 -2.6,6 -2.2,6.6 -0.9,-4.8 1.3,-4.9 -2.2,-3.8 -0.2,-7 -2.6,-3.4 -2.7,-7.6 -2,-8.1 -3.1,-5.4 -3.2,3.3 -5.8,4.5 -3.3,-0.5 -3.6,-1.5 0.9,-8 -2,-6 -5.3,-7.4 0.3,-2.3 -3.4,-0.9 -4.6,-5.2 -1.1,-5.2 2.1,1 -0.6,-4.6 2.5,-1.5 -1,-2.7 1,-2.2 -0.9,-6.7 4.6,1.5 1.6,-5.3 -0.3,-3.1 2,-5.4 -0.9,-3.7 6.2,-4.4 4.2,1.1 -1.4,-3.9 1.7,-1.2 -1,-2.4 3.1,-0.5 2.7,3.8 2.7,1.5 1.3,4.9 0.9,5.3 -4.2,5.4 0.7,7.6 5.6,-1.1 2.4,5.9 3.7,1.3 -0.8,5.3 4.5,2.4 2.6,1.2 3.8,-1.9 z"
     id="MM"
     name="Myanmar"
     data-code="mm" />
  <path
     d="m 392.2,171.4 4,-1.2 5.7,-0.8 5.4,0.9 6.6,2.9 4.9,3.2 h 4.6 l 6.8,1 3.6,-1.6 5.9,-1 4.4,-4.4 3.4,0.7 3.9,2.1 5.6,-0.6 0.6,4.7 0.3,6.3 2.8,2.5 2.3,-0.8 5.5,1 2.5,-2.3 5.2,2 7.2,4.4 0.8,2.2 -4.4,-0.7 -6.8,0.8 -2.5,1.8 -1.3,4.2 -6.4,2.4 -3.2,3.4 -5.9,-1.3 -3.2,-0.6 -0.5,4.1 2.9,2.4 1.9,2.1 -2.4,2.2 -2,3.4 -4.9,2.2 -7.6,0.2 -7.2,2.2 -4.4,3.4 -3.3,-1.9 h -6.2 l -9.4,-3.9 -5.6,-0.9 -6.4,0.9 -11.3,-1.5 -5.6,0.2 -4.7,-3.8 -5,-5.8 -3.4,-0.7 -8,-4 -7.2,-0.8 -6.5,-1.1 -3,-2.8 -1.4,-7.3 -5.8,-5.1 -8.2,-2.3 -5.7,-3.3 -3.3,-4.4 4.7,-1.1 6.7,-5.3 5.9,-2.9 5.3,1.9 5.2,0.1 4.8,2.9 5,0.2 8,1.6 2.4,-4.4 -4,-3.6 1.3,-6.4 7,2.5 4.8,0.8 6.7,1.6 3.6,4.6 z"
     id="MN"
     name="Mongolia"
     data-code="mn" />
  <path
     class="Malaysia"
     d="m 460.3,451.8 1.4,0.6 3.5,3.9 2.5,4.3 0.6,4.3 -0.5,2.9 0.6,2.2 0.5,3.8 2.1,1.8 2.3,5.7 v 2.1 l -4,0.5 -5.5,-4.8 -6.8,-5.1 -0.8,-3.3 -3.4,-4.3 -1,-5.3 -2.2,-3.5 0.4,-4.7 -1.4,-2.7 0.9,-1.1 4.8,2.8 0.6,3.3 3.7,-0.8 z"
     id="path66"
     data-code="my" />
  <path
     class="Malaysia"
     d="m 550.1,465.2 -5,-1.1 h -6.5 l -1.7,7.3 -2.1,2.2 -2.6,8.9 -4.6,1.4 -5.4,-1.8 -2.7,0.6 -3.3,3.2 -3.6,-0.4 -3.7,1.3 -3.9,-3.7 -1,-4.3 4.2,2.2 4.3,-1.2 1,-5.4 2.4,-1.2 6.8,-1.4 3.8,-5.1 2.6,-4 2.8,3.3 1.1,-2.2 2.7,0.2 0.1,-4.1 0.1,-3.2 4.1,-4.4 2.6,-5 2.3,-0.1 3.1,3.3 0.4,2.8 3.8,1.8 4.8,1.9 -0.2,2.5 -3.8,0.3 1.1,3.2 z"
     id="path67"
     data-code="my" />
  <path
     d="m 365,312.8 0.2,2.7 1.5,4.1 -0.1,2.5 -4.6,0.1 -6.9,-1.5 -4.3,-0.6 -3.8,-3.2 -7.7,-0.9 -7.8,-3.6 -5.8,-3.1 -5.8,-2.4 0.9,-6 2.8,-3 1.9,-1.5 4.8,2 6.4,4.2 3.3,0.9 2.5,3.1 4.5,1.2 5,2.9 6.5,1.4 z"
     id="NP"
     name="Nepal"
     data-code="np" />
  <path
     class="Oman"
     d="m 179.8,384.8 -2.2,-4.5 -5.2,-10.6 16.3,-6.4 2.6,-12.8 -3,-4.6 v -2.6 l 1.3,-2.6 -0.2,-2.6 2.4,-1.3 -1.1,-0.9 v -4.2 h 2.8 l 3,4.4 3.3,2.3 4.1,0.9 3.4,1.1 2.9,3.7 1.7,2.1 2,0.9 0.2,1.4 -1.7,3.8 -0.7,1.8 -2.2,2.1 -1.7,4.4 -2.5,-0.4 -1,1.6 -0.7,3.2 1.1,4.3 -0.5,0.8 h -2.5 l -3.3,2.4 -0.3,3.1 -1.2,1.4 -3.5,-0.1 -2,1.6 0.2,2.6 -2.6,1.8 -3.1,-0.6 -3.6,2.2 z"
     id="path72"
     data-code="om" />
  <path
     class="Oman"
     d="m 192.2,326.6 -1.3,-2.2 1.4,-2.1 0.7,0.5 -0.2,2.7 z"
     id="path73"
     data-code="om" />
  <path
     d="m 297.6,263.8 -3.8,5.4 -5.7,1 -8.5,-1.6 -2,2.8 3.3,5.6 2.9,4.4 5.1,3.1 -3.8,3.7 1,4.6 -3.9,6.5 -2.2,6.5 -4.5,6.7 -6.5,-0.5 -4.9,6.8 4,2.8 1.4,5 3.5,3.2 1.8,5.5 h -12.1 l -3.2,4.3 -4.2,-1.6 -2.2,-4.6 -4.9,-4.9 -10,1.2 -9,0.1 -7.6,0.9 1.1,-7.4 7.5,-3.4 -0.9,-2.9 -2.7,-1.1 -1,-5.6 -5.7,-2.8 -2.8,-3.9 -3.2,-3.4 9.6,3.3 5.3,-1 3.4,0.8 0.9,-1.4 3.9,0.6 6.6,-2.7 -0.8,-5.4 2.3,-3.7 h 4.1 l 0.2,-1.7 4,-0.9 2.1,0.6 1.8,-1.8 -1.1,-3.9 1.4,-3.8 3.1,-1.7 -3.1,-4.2 5.2,0.2 0.9,-2.3 -0.8,-2.5 2,-2.7 -1.4,-3.2 -1.9,-2.7 2.4,-2.8 5.3,-1.3 5.9,-0.8 2.4,-1.1 2.9,-0.8 4.7,3 2.9,5 z"
     id="PK"
     name="Pakistan"
     data-code="pk" />
  <path
     class="Philippines"
     d="m 596.5,437.7 0.9,4.3 0.6,3.6 -1.6,5.8 -2.5,-6.5 -2.4,3.3 2.1,4.7 -1.4,3 -6.9,-3.7 -1.9,-4.7 1.5,-3 -3.8,-3.1 -1.6,2.7 -2.6,-0.3 -4,3.6 -1,-1.9 1.8,-5.4 3.4,-1.8 2.9,-2.4 2.2,2.9 4.2,-1.7 0.7,-2.9 4,-0.2 -0.8,-4.9 4.9,3 0.7,3.2 z"
     id="path74"
     data-code="ph" />
  <path
     class="Philippines"
     d="m 581.9,425.7 -1.8,2.1 -1.4,4.1 -1.6,1.9 -3.9,-4.4 1,-1.8 1.3,-1.8 0.2,-3.9 3.1,-0.4 -0.5,4.3 3.6,-6.2 z"
     id="path75"
     data-code="ph" />
  <path
     class="Philippines"
     d="m 551.6,431.9 -7.1,6.1 2.4,-4.5 3.8,-4 3,-4.4 2.3,-6.4 1.6,5.3 -3.5,3.5 z"
     id="path76"
     data-code="ph" />
  <path
     class="Philippines"
     d="m 569.1,415.4 3.6,2 h 3.5 l 0.2,2.6 -2.3,2.8 -3.4,1.9 -0.5,-3 0.1,-3.3 z"
     id="path77"
     data-code="ph" />
  <path
     class="Philippines"
     d="m 589.2,413.6 2.4,7.2 -4.5,-1.7 0.3,2.2 1.8,3.9 -2.6,1.5 -0.6,-4.6 -1.8,-0.3 -1.2,-3.9 3.3,0.5 -0.3,-2.4 -4,-4.9 5.4,0.1 z"
     id="path78"
     data-code="ph" />
  <path
     class="Philippines"
     d="m 566.2,407.8 -0.9,5.6 -2.7,-3.2 -3.5,-4.9 4.8,0.2 z"
     id="path79"
     data-code="ph" />
  <path
     class="Philippines"
     d="m 559.7,372.9 3.8,1.9 1.4,-1.7 0.8,1.6 -0.4,2.7 2.6,4.6 -0.6,5.3 -2.9,2.1 -0.1,5.2 2,5.1 3,0.7 2.4,-0.7 7.5,3.5 -0.1,3.5 2.1,1.6 -0.3,2.9 -4.7,-3.1 -2.5,-3.4 -1.2,2.4 -4,-3.9 -5,1 -3,-1.4 -0.1,-2.7 1.6,-1.6 -1.9,-1.5 -0.4,2.3 -3.3,-3.7 -1.3,-2.8 -1.1,-6.1 2.6,2.1 -1.1,-10.1 0.8,-5.8 z"
     id="path80"
     data-code="ph" />
  <path
     class="Papua New Guinea"
     d="m 678.9,550.3 1.6,-21 1,-20.9 9.6,4.4 10.3,3.7 3.7,3.3 3,3.2 0.6,3.8 9.2,4 1.1,3.4 -5.2,0.7 0.9,4.3 4.7,4.2 3,6.8 3.3,-0.2 -0.6,2.8 4.3,1.1 -1.8,1.2 5.7,2.7 -0.9,1.9 -3.8,0.4 -1.2,-1.6 -4.7,-0.8 -5.6,-0.9 -4,-4.1 -2.8,-3.6 -2.5,-5.6 -7.1,-2.8 -4.9,1.8 -3.7,2.2 0.3,4.7 -4.6,2.2 -3.1,-1.1 z"
     id="path83"
     data-code="pg" />
  <path
     d="m 556.3,219.8 1.4,1.1 -2.2,-0.4 -1,2.2 -0.3,2.1 2.8,4.6 -1.9,1.4 -0.3,1.1 -0.9,1.9 -2.9,1.1 -1.4,1.7 1.3,2.7 -0.3,0.7 2.6,1.1 4.4,2.8 v 1.5 l -2,0.4 -3.6,0.4 -0.6,2.8 -2.5,-0.2 v 0.6 l -3.2,-1.2 -0.1,1.2 -1.3,0.5 -0.7,-1.2 -1.7,-0.6 -1.9,-1 0.1,-2.8 0.9,-0.8 -1,-1.1 -0.4,-3.5 -0.9,-1 -3.4,-0.7 -3.4,-1.7 2.1,-4.1 3.9,-3.4 1.1,-4.6 3.6,2 4.6,0.3 -2.8,-3.4 6.4,-2.7 V 216 Z"
     id="KP"
     name="Dem. Rep. Korea"
     data-code="kp" />
  <path
     d="m 74.299999,283.7 0.4,4 -0.6,1.9 -2.5,0.8 0.1,-1.7 1.3,-0.9 -1.5,-0.7 0.7,-4.2 z"
     id="PS"
     name="Palestine"
     data-code="ps" />
  <path
     d="m 166.1,333.6 -1.5,0.5 -1.8,-1.3 -0.8,-4.7 1.1,-3.3 1.5,-0.7 1.8,2 0.5,3.7 z"
     id="QA"
     name="Qatar"
     data-code="qa" />
  <path
     d="m 136.5,304.9 5,0.6 1.7,3.1 3.9,-0.2 2.7,5.6 2.9,1.4 1.2,2.3 4,2.7 0.7,2.6 -0.4,2.2 0.9,2.1 1.8,1.8 0.9,2.1 1,1.6 1.8,1.3 1.5,-0.5 1.3,2.5 0.3,1.4 2.7,6.6 16.9,3.2 1,-1.4 3,4.6 -2.6,12.8 -16.3,6.4 -15.9,2.5 -5,2.9 -3.5,6.7 -2.6,1.1 -1.5,-2.1 -2.1,0.3 -5.5,-0.7 -1.1,-0.6 -6.4,0.1 -1.5,0.6 -2.4,-1.6 -1.3,3.1 0.8,2.7 -2.4,2.1 -0.9,-2.8 -1.8,-1.9 -0.5,-2.6 -3.1,-2.3 -3.3,-5.4 -1.9,-5.2 -4.1,-4.4 -2.5,-1.1 -4.100001,-6.1 -0.9,-4.4 v -3.8 l -3.6,-7.2 -2.8,-2.5 -3,-1.3 -2.1,-3.7 0.2,-1.4 -1.8,-3.4 -1.7,-1.4 -2.5,-4.8 -3.8,-5.1 -3.1,-4.4 h -2.7 l 0.5,-3.5 0.1,-2.3 0.4,-2.6 6.2,1.1 2.1,-2 1.1,-2.3 4.1,-0.9 0.7,-2.2 1.6,-1 -6,-6.5 10.4,-3.2 0.9,-1 6.800001,1.8 8.6,4.5 16.8,12.9 z"
     id="SA"
     name="Saudi Arabia"
     data-code="sa" />
  <path
     d="m 90.999999,277.4 -9.7,6.9 -6.3,-2.6 h -0.1 l 0.6,-1 -0.4,-2.6 0.9,-3.5 2.7,-2.5 -1.2,-2.5 -2.5,-0.3 -1.1,-4.9 1,-2.7 1.3,-1.4 1.2,-1.4 -0.2,-3.5 1.9,1.2 5.6,-1.8 3,1.2 h 4.4 l 5.7,-2.4 2.900001,0.1 5.9,-1 -2.1,4 -2.7,1.6 1.2,4.7 -1,7.7 z"
     id="SY"
     name="Syria"
     data-code="sy" />
  <path
     d="m 473.5,400.1 -5.3,-0.9 -7.1,1.2 -3.1,5.3 2.1,7.8 -5.3,-3 -4.8,0.2 0.3,-5.1 h -4.9 l 0.2,7.1 -2.2,9.4 -1.4,5.7 0.7,4.6 3.7,0.2 2.7,5.9 1.3,5.5 3.4,3.7 3.4,0.7 3.1,3.4 -1.7,2.6 -3.7,0.8 -0.6,-3.3 -4.8,-2.8 -0.9,1.1 -2.3,-2.4 -1.2,-3.2 -3.2,-3.6 -2.9,-3.1 -0.7,3.8 -1.3,-3.6 0.4,-4 1.2,-6.1 2.2,-6.6 2.6,-6 -2.7,-5.9 -0.2,-3 -1,-3.6 -4.3,-5.1 -1.8,-3.2 1.8,-1.2 1.4,-5.5 -2.9,-4.3 -4.1,-4.7 -3.5,-5.6 2.2,-1.2 1.5,-6.9 3.9,-0.3 2.8,-2.8 3,-1.5 2.7,2 0.9,3.9 3.8,0.3 -0.4,6.7 1,5.8 5.3,-3.8 1.9,1.1 3.2,-0.2 0.8,-2.2 4.3,0.4 5,5.2 1.3,6.4 5.3,5.6 0.4,5.4 z"
     id="TH"
     name="Thailand"
     data-code="th" />
  <path
     d="m 253,233.5 -1.4,1.9 -6,-1 0.6,3.6 5.5,-0.5 7.1,2.1 9.6,-1 3.1,6 1.5,-0.7 3.7,1.5 0.5,2.5 1.8,3.6 h -5.4 l -3.8,-0.5 -2.5,2.9 -2.2,0.6 -1.5,1.4 -2.7,-2.1 -0.9,-5.4 -1.7,-0.3 0.1,-2 -3.3,-1.4 -1.7,2.2 0.2,2.6 -0.6,0.9 -3.2,-0.1 -0.9,2.9 -2.1,-1.2 -3.4,2 -1.8,-0.7 1.3,-6.5 -2.4,-4.8 -4.2,-1.5 0.6,-2.8 4.4,0.3 1.5,-3.5 0.5,-4.1 6.5,-1.5 -0.2,3 1.3,1.7 z"
     id="TJ"
     name="Tajikistan"
     data-code="tj" />
  <path
     d="m 234.3,251.9 -1.6,-0.2 -2.9,-1.7 -0.3,2.2 -4.2,1.3 0.2,5.1 -2.6,2 -4,0.9 -0.4,2.9 -3.9,0.9 -5.9,-2.5 -1.7,-5.3 -4,-0.3 -7.3,-5.6 -4.3,-0.7 -6.6,-3.3 -3.9,-0.6 -2,1.2 -3.6,-0.2 -3,3.7 -4.4,1.2 -1.9,-4.5 -0.6,-6.7 -4.6,-2.2 0.4,-4.3 -3.5,-0.4 -0.1,-5.4 5.3,1.6 4.1,-2 -4.7,-3.9 -2.4,-3.6 -3.8,1.6 0.6,4.7 -2.6,-4.1 1.8,-2.2 5.6,-1.3 3.9,1.8 4.8,5 2.6,-0.3 5.9,-0.1 -1.7,-3.2 3.8,-2.2 3.4,-3.7 7.9,3.4 1.9,5 2.3,1.3 5.5,-0.3 2.1,1.2 4.3,6.6 7.1,4.4 4.2,3 6.3,3.1 7.7,2.8 z"
     id="TM"
     name="Turkmenistan"
     data-code="tm" />
  <path
     d="m 588.7,552 0.1,-1.9 -0.5,-1.3 0.8,-1.5 4.9,-1.4 4,-0.3 1.8,-0.8 2.1,0.8 -2.2,1.8 -6.1,2.8 z"
     id="TL"
     name="Timor-Leste"
     data-code="tl" />
  <path
     class="Turkey"
     d="m 97.699999,225.2 5.500001,-0.3 5.6,3.2 1.3,2.2 0.1,3.1 4.2,1.6 2.4,1.8 -3.3,1.9 2.9,7.3 -0.7,2 3.8,5.1 -2.4,1.1 -2.1,-1.6 -6.3,-0.9 -2.1,1 -5.9,1 -2.900001,-0.1 -5.7,2.4 h -4.4 l -3,-1.2 -5.6,1.8 -1.9,-1.2 0.2,3.5 -1.2,1.4 -1.3,1.4 -2.3,-2.9 1.7,-2.4 -3.2,0.6 -4.6,-1.5 -3.2,3.7 -8,0.7 -4.7,-3.4 -5.7,-0.2 -1,2.6 -3.6,0.8 -5.4,-3.4 -5.8,0.1 -3.8,-6.4 -4.2,-3.5 2,-5 -3.6,-3.1 5.1,-6.1 8,-0.2 1.6,-4.9 10,0.9 5.6,-4.1 5.8,-1.8 8.5,-0.2 9.8,4.5 7.9,2.5 5.8,-1 4.6,0.6 z"
     id="path85"
     data-code="tr" />
  <path
     class="Turkey"
     d="m 17.899999,229.8 1.2,-0.7 1.1,-4 -2.7,-1.7 5,-2 4.6,0.8 0.9,2.5 4.8,2 -0.7,1.6 -6.2,0.3 -2,2 -3.9,3.4 -2,-2.9 z"
     id="path86"
     data-code="tr" />
  <path
     d="m 553.9,345.4 -1.4,5.3 -4,-5.5 -1.5,-4.7 1.9,-6.3 3.3,-4.9 3,1.9 -0.1,3.9 z"
     id="TW"
     name="Taiwan"
     data-code="tw" />
  <path
     d="m 248.7,220.6 1.7,0.6 -3,4.1 4.6,2.4 3.2,-1.6 7.2,3.4 -5.3,4.6 -4.1,-0.6 -2.1,0.1 -1.3,-1.7 0.2,-3 -6.5,1.5 -0.5,4.1 -1.5,3.5 -4.4,-0.3 -0.6,2.8 4.2,1.5 2.4,4.8 -1.3,6.5 -4.3,-1.4 h -3 l -0.8,-3.9 -7.7,-2.8 -6.3,-3.1 -4.2,-3 -7.1,-4.4 -4.3,-6.6 -2.1,-1.2 -5.5,0.3 -2.3,-1.3 -1.9,-5 -7.9,-3.4 -3.4,3.7 -3.8,2.2 1.7,3.2 -5.9,0.1 -6.2,-23.4 12,-3.7 1.1,0.5 9.2,4.5 4.8,2.4 6.6,5.7 5.7,-0.9 8.6,-0.5 7.6,4.6 1.5,6.4 2.6,0.1 2.5,5.2 6.7,0.2 2.3,3 h 2 l 0.9,-4.6 5.4,-4.4 z"
     id="UZ"
     name="Uzbekistan"
     data-code="uz" />
  <path
     d="m 482.5,353.4 -6.5,5.4 -3.7,6.1 -0.6,4.5 5.3,6.7 6.5,8.4 5.7,4 4.1,5.1 4,11.9 0.4,11.3 -4.3,4.2 -6.1,4.2 -4.2,5.3 -6.6,6 -2.3,-4.1 1.2,-4.4 -4.4,-3.6 4.6,-2.6 5.9,-0.5 -2.8,-3.8 9,-5 -0.1,-7.7 -1.8,-4.3 0.2,-6.4 -2,-4.5 -4.9,-4.5 -4.4,-5.6 -5.7,-7.6 -7.3,-3.9 1.2,-2.3 3.3,-1.7 -3,-5.6 h -6.8 l -3.5,-5.8 -4,-5.1 2.7,-1.6 4.4,0.1 5.3,-0.8 4.1,-3.4 3.1,2.4 5.3,1.2 -0.3,3.7 3.1,2.6 z"
     id="VN"
     name="Vietnam"
     data-code="vn" />
  <path
     d="m 179.8,384.8 -4,1.7 -0.9,2.9 v 2.2 l -5.4,2.7 -8.8,3 -4.7,4.5 -2.5,0.4 -1.7,-0.4 -3.2,2.7 -3.5,1.2 -4.7,0.3 -1.4,0.4 -1.1,1.7 -1.5,0.5 -0.8,1.6 -2.8,-0.2 -1.7,0.9 -4,-0.3 -1.6,-3.8 v -3.5 l -1,-1.9 -1.3,-4.7 -1.8,-2.6 1.1,-0.4 -0.7,-2.9 0.6,-1.2 -0.4,-2.8 2.4,-2.1 -0.8,-2.7 1.3,-3.1 2.4,1.6 1.5,-0.6 6.4,-0.1 1.1,0.6 5.5,0.7 2.1,-0.3 1.5,2.1 2.6,-1.1 3.5,-6.7 5,-2.9 15.9,-2.5 5.2,10.6 z"
     id="YE"
     name="Yemen"
     data-code="ye" />
  <path
     class="Russian Federation"
     d="m 585.5,167.3 13.7,11 -8.9,-2 3.7,9 9.6,6.4 3,4.4 -6.5,-3.8 0.1,4.9 -4.7,-5.3 -3.8,-6.1 -5.6,-6.7 -2.4,-4.8 -6.4,-8.2 -8,-6.1 -6.8,-8.4 1.9,-2.8 -4.4,-2.8 1.3,-0.9 4.9,4 6.9,5.9 5.2,6.1 z"
     id="path91"
     data-code="ru" />
  <path
     class="Russian Federation"
     d="m 444.4,38.1 -5.9,0.1 -8.9,-0.6 -1,-0.3 0.7,-2 4.2,-0.5 8.4,2 z"
     id="path93"
     data-code="ru" />
  <path
     class="Russian Federation"
     d="m 457,28.6 -1.1,2 -6.9,-0.4 -10.3,-2 -1.8,-1.6 8.3,0.7 z"
     id="path94"
     data-code="ru" />
  <path
     class="Russian Federation"
     d="m 431.5,26.2 3.1,3.8 -14.3,-0.2 -4.6,1.2 -12.5,-3.3 -3.4,-3.4 3.5,-0.9 10.2,0.2 z"
     id="path95"
     data-code="ru" />
  <path
     class="Russian Federation"
     d="m 114.8,51.2 -2.2,0.4 -13.500001,-0.7 -2.3,-2.3 -7.9,-1.4 -2,-2.9 3.5,-1.1 -1.6,-2.8 5.4,-4.4 -4,-0.6 6.7,-4.5 -2.5,-2.3 L 101.2,26 l 10.3,-3.2 11.7,-0.9 5,-1.8 6.7,-0.6 4.2,1.9 -1.3,1.5 -11.4,2.5 -9.9,2.3 -8.7,4.8 -2.8,5 -3.3,5 3.1,4.3 z"
     id="path96"
     data-code="ru" />
  <path
     class="Russian Federation"
     d="m 557.7,220.9 -1.4,-1.1 -1.9,-3.3 2.5,-0.1 -3.9,-7.5 -4.7,-5.4 2.9,-2.2 6.9,1.1 -0.6,-6.2 -2.8,-6.8 0.3,-2.3 -1.3,-5.7 -6.9,1.9 -2.6,2.4 h -7.6 l -6,-5.8 -9,-4.5 -10,-2 -6.2,-6 -4.5,-3.8 -3.8,-2.7 -7.7,-6.2 -6,-2.2 -8.6,-1.9 -6.2,0.2 -5.1,1.1 -1.7,3.1 3.7,1.4 2.5,3.4 -1.3,2 0.2,6.5 1.9,2.8 -4.4,3.9 -7.4,-2.4 -5.6,0.6 -3.9,-2.1 -3.4,-0.7 -4.4,4.4 -5.9,1 -3.6,1.6 -6.8,-1 h -4.6 l -4.9,-3.2 -6.6,-2.9 -5.4,-0.9 -5.7,0.8 -4,1.2 -8.5,-2.6 -3.6,-4.6 -6.7,-1.6 -4.8,-0.8 -7,-2.5 -1.3,6.4 4,3.6 -2.4,4.4 -8,-1.6 -5,-0.2 -4.8,-2.9 -5.2,-0.1 -5.3,-1.9 -5.9,2.9 -6.7,5.3 -4.7,1.1 -1.7,0.5 -4.4,-3.8 -6,0.9 -3.3,-2.7 -4,-1.2 -4.1,-3.6 -3.3,-1.1 -6.2,1.6 -8.4,-3.5 -1.1,3.2 -18.3,-15.6 -8.4,-4.7 0.8,-2 -9.2,5.8 -4.4,0.3 -1.1,-3.3 -7.1,-2.1 -4.3,1.5 -4.4,-6.3 -9.1,-1.3 -3.1,2.5 -10.9,2.3 -1.7,1.5 -17,2.1 -1.4,2.1 5.1,4.2 -4,1.6 1.5,1.6 -3.5,3 9.4,4.3 -0.2,2.9 -7,-0.3 -0.8,1.9 -7.3,-3.2 -7.7,0.1 -4.4,2.6 -6.6,-2.5 -12,-4.3 -7.6,0.2 -8.1,6.7 0.6,4.5 -6,-3.6 -2.2,6.9 1.8,1.2 -1.7,4.8 5.3,4.2 3.6,-0.2 4.3,4.2 0.2,3.2 2.8,1.1 -1.4,3.7 -4.6,1 -3.6,6.5 6,6.1 0.4,4.2 7.3,7.5 -2.5,2.6 -0.6,1.6 -2.4,-0.5 -4.3,-3.8 -1.5,-0.2 -3.6,-1.5 -2.1,-2.6 -5.1,-1.3 -2.9,1 -1.2,-1.2 -7.600001,-3.1 -7.7,-1 -4.6,-1.1 -0.4,0.8 -7.6,-5.4 -6.2,-2.4 -5.1,-3.7 3.6,-1 3.2,-5.2 -3.3,-2.5 6.9,-2.6 -0.4,-1.4 -4.3,1 -0.4,-2.7 2.2,-1.8 4.8,-0.4 0.3,-2.1 -1.8,-3.5 1.3,-3.2 -0.4,-1.9 -7.7,-2 -2.9,0.1 -3.6,-2.9 -3.6,1 -6.7,-2.2 -0.1,-1.2 -2.3,-2.7 -3.9,-0.3 -0.8,-1.9 0.9,-1.3 -3.8,-3.5 -4.9,0.6 -1.5,-0.3 -1,1.4 -1.8,-0.2 -2,-4 -1.5,-2 0.8,-0.6 3.9,0.2 1.6,-1.3 -1.7,-1.6 -3.4,-1.1 v -1.1 l -2.1,-1.1 -3.8,-4 0.7,-1.6 -1.1,-2.9 -4.8,-1.4 -2.4,0.7 -0.9,-1.5 -5.3,-1.5 -2.1,-3.6 -1,-2.9 -2.4999999,-1.3 1.5999999,-1.9 -2.3999999,-5.6 2.5999999,-3.4 -0.8999999,-1 4.4999999,-3.3 -5.3999999,-2.8 7.9999999,-7.4 3.4,-3.4 0.9,-2.9 -7.4,-3.9 0.9,-3.8 -4.8999999,-4.2 1.6999999,-4.8 -6.4999999,-6.3 2.9,-4.2 -7.30000004,-3.7 -0.4,-3.8 3.20000004,-0.5 6.4,-2.1 3.6999999,-1.9 7.7,3.2 11.7,1.3 17.7,6.2 4.1,2.6 1.5,3.7 -3.7,2.9 -6.5,1.5 -20.2,-4.2 -2.9,0.7 8.1,4.1 1,2.6 1.9,5.8 6.1,1.7 3.8,1.5 -0.2,-2.8 -3.4,-2.4 2.1,-2.2 11.6,3.6 3.2,-1.4 -4.3,-4.2 8.1,-5.4 4.1,0.3 4.6,1.9 1.1,-3.8 -4.7,-3.3 0.8,-3.3 -4.3,-3.4 12.3,1.8 3.6,3 -5.1,0.7 1.2,3.1 4.1,1.9 6,-1.2 -0.4,-3.5 7.7,-2.7 12.400001,-4.6 3.2,0.2 -2.5,3.3 5.4,0.6 2.1,-1.9 7.7,-0.1 5,-2.3 6.4,3.3 2.8,-3.6 -6,-3.1 1.2,-1.8 13,1.6 6.6,1.7 18.6,6.2 1.1,-2.8 -5.9,-2.9 -0.8,-1.1 -5.3,-0.6 -0.2,-2.5 -4.7,-4.2 -1.1,-1.7 4.3,-4.7 -0.6,-4.8 2.2,-1 11.4,1.4 2.9,2.9 -0.9,4.2 3.7,1.7 3.8,3.7 3.8,7.4 6.7,3.3 0.5,3.7 -3.5,7.8 5.3,0.8 0.5,-2 3.8,-1.4 -0.5,-2.7 1.9,-2.7 -4.4,-3.1 -0.4,-3.6 -4.8,-0.4 -2.9,-3 -0.4,-5.4 -8.2,-4.3 4.7,-3.5 -3.7,-3.7 1.9,-0.1 4.2,2.8 2.1,5.1 5,1 -4.6,-3.8 5.1,-2.1 8.1,-0.3 9.6,3 -6.9,-4.3 -4.9,-5.5 5.9,-1 9.5,0.2 7.8,-0.7 -5.6,-2.6 1.3,-3.3 4.2,-0.2 4.9,-2.4 9.3,-0.7 -0.2,-1.4 9.3,-0.4 4.3,1.1 5.4,-2.6 7,0.1 -1.5,-2.2 0.9,-2 6.2,-2 8.3,1.6 -3.5,1.2 9.4,0.7 4.1,2.4 1.9,-1.2 10.9,0.1 11.6,2.4 5.5,1.8 2.5,2.6 -2.4,1.5 -6.6,2.8 -1.1,1.5 5.6,0.7 7.2,1.3 2.4,-1 5.8,3.3 0.2,-1.3 5.2,-0.8 13.6,0.8 3.8,2.4 17.4,0.8 -4.8,-3.9 9.5,0.9 6.1,-0.1 9.9,2.7 6,3.3 0.4,2.2 10.1,4.2 9,2.1 -3,-5.5 9.4,2.3 5,-1.4 9.8,1.6 1,-1.4 7.6,0.7 -9.4,-4.9 2.1,-2.2 40.4,3.4 7.9,3.1 16.3,4 14.8,-1 9.3,0.9 6.6,2.2 5.1,3.9 7.3,1.5 3.9,-1.1 7,-0.1 9.3,1 6.9,-0.6 14.3,4.8 2.5,-1.7 -8.5,-3.4 -1.8,-2.4 15.3,1.5 8,-0.3 15.8,2.5 9.5,2.4 33.2,22.1 -2,2.5 -6.2,-0.4 8.2,3 9.1,4.7 4.2,1.5 3.8,2.4 1,1.5 -10,-1.2 -6.6,4.3 -3,0.7 -1.6,4.1 -2,3.6 1.7,2.7 -11.5,-4.1 -6.1,4.6 -4.7,-2.2 -1.4,2.6 -7,-0.9 3.1,3.9 1.1,5.8 2.9,2.4 6.8,1.3 9.1,8.7 -4.1,0.3 3.4,5 4.7,2.6 -5,3.1 5.4,7 -5.7,1.5 4.5,6.2 -1.7,5.8 -5.7,-4.3 -10.5,-8.9 -16.2,-13.6 -6.5,-8.3 0.1,-3.6 -2.8,-2.8 5.7,-1.3 -0.2,-7.5 0.7,-6 2.5,-4.7 -6.6,-8.2 -4.7,0.5 3.2,4.8 -3.6,6.4 -12.3,-7.2 -9.1,2 v 9.8 l 7.7,3.6 -8.5,1.6 -6.4,0.6 -4.3,-4.3 -8,-0.9 -2.5,2.9 -15.1,-1 -13.2,1.7 -3.5,11.7 -5,14.2 8.2,0.8 5.7,3.8 5.8,1.3 0.4,-3 5.6,0.4 12.8,6.7 4.7,5.2 1.4,6.2 5.5,7.4 5.3,9.9 -1,9.1 1.3,4.3 -2,7.4 -2.1,7.3 -0.9,3.7 -4.6,3.7 -3.1,0.1 -5.2,-3.1 -4.1,4.7 z"
     id="path97"
     data-code="ru" />
  <path
     class="Russian Federation"
     d="m 263.1,13 -18.1,1.8 -1.3,-6.1000001 2.2,-0.5 3.1,0.3 L 261.6,11.1 Z"
     id="path98"
     data-code="ru" />
  <path
     class="Russian Federation"
     d="m 241.1,10.3 -7.1,0.6 -11.7,-1.3000001 -8.1,-1.7 -6.6,-3.2 -5.9,-0.8 5.4,-2.90000005 6.2,-0.9 9.6,2.00000005 13.7,4.2 z"
     id="path100"
     data-code="ru" />
  <path
     d="m 160.1,323.2 0.3,0.1 0.2,-0.1 0.4,0.7 -0.1,0.2 0.1,0.9 v 0.7 l -0.2,0.4 -0.1,-0.4 -0.6,-0.8 0.1,-0.4 -0.2,-0.7 v -0.4 z"
     id="BH"
     name="Bahrain"
     data-code="bh" />
  <circle
     cx="-106.09998"
     cy="179"
     id="0"
     r="0" />
  <circle
     cx="-430.5"
     cy="714"
     id="1"
     r="0" />
  <circle
     cx="694.19995"
     cy="709.20001"
     id="2"
     r="0" />
</svg>
