<?xml version="1.0" encoding="UTF-8" standalone="no"?>
<!--
*************Map created by Simplemaps.com********************		
*************Attribution is highly appreciated!***************
*************http://simplemaps.com****************************

The MIT License (MIT)

Copyright (c) 2020 Pareto Softare, LLC DBA Simplemaps.com

Permission is hereby granted, free of charge, to any person obtaining a copy
of this software and associated documentation files (the "Software"), to deal
in the Software without restriction, including without limitation the rights
to use, copy, modify, merge, publish, distribute, sublicense, and/or sell
copies of the Software, and to permit persons to whom the Software is
furnished to do so, subject to the following conditions:

The above copyright notice and this permission notice shall be included in
all copies or substantial portions of the Software.

THE SOFTWARE IS PROVIDED "AS IS", WITHOUT WARRANTY OF ANY KIND, EXPRESS OR
IMPLIED, INCLUDING BUT NOT LIMITED TO THE WARRANTIES OF MERCHANTABILITY,
FITNESS FOR A PARTICULAR PURPOSE AND NONINFRINGEMENT. IN NO EVENT SHALL THE
AUTHORS OR COPYRIGHT HOLDERS BE LIABLE FOR ANY CLAIM, DAMAGES OR OTHER
LIABILITY, WHETHER IN AN ACTION OF CONTRACT, TORT OR OTHERWISE, ARISING FROM,
OUT OF OR IN CONNECTION WITH THE SOFTWARE OR THE USE OR OTHER DEALINGS IN
THE SOFTWARE.

-->

<svg
   baseprofile="tiny"
   fill="#ececec"
   height="220.89999"
   stroke="#000000"
   stroke-linecap="round"
   stroke-linejoin="round"
   stroke-width="0.2"
   version="1.2"
   viewBox="0 0 350 200"
   width="303"
   id="svg301"
   sodipodi:docname="europa.svg"
   inkscape:version="1.4.2 (ebf0e940, 2025-05-08)"
   xmlns:inkscape="http://www.inkscape.org/namespaces/inkscape"
   xmlns:sodipodi="http://sodipodi.sourceforge.net/DTD/sodipodi-0.dtd"
   xmlns="http://www.w3.org/2000/svg"
   xmlns:svg="http://www.w3.org/2000/svg">
  <defs
     id="defs301" />
  <sodipodi:namedview
     id="namedview301"
     pagecolor="#ffffff"
     bordercolor="#000000"
     borderopacity="0.25"
     inkscape:showpageshadow="2"
     inkscape:pageopacity="0.0"
     inkscape:pagecheckerboard="0"
     inkscape:deskcolor="#d1d1d1"
     inkscape:zoom="0.81714935"
     inkscape:cx="372.02502"
     inkscape:cy="77.09729"
     inkscape:window-width="1392"
     inkscape:window-height="699"
     inkscape:window-x="208"
     inkscape:window-y="122"
     inkscape:window-maximized="0"
     inkscape:current-layer="svg301"
     inkscape:clip-to-page="false"
     inkscape:antialias-rendering="true" />
  <path
     d="m 205.89999,169.3 0.4,1.2 1.4,-0.6 1.2,1.7 1.3,0.7 0.6,2.3 -0.5,2.2 1,2.7 2.3,1.5 0.1,1.7 -1.7,0.9 -0.1,2.1 -2.2,3.1 -0.9,-0.4 -0.2,-1.4 -3.1,-2.2 -0.7,-3 0.1,-4.4 0.5,-1.9 -0.9,-1 -0.5,-2.1 z"
     id="AL"
     name="Albania"
     data-code="al" />
  <path
     d="m 188.49999,132.1 -0.3,0.8 0.7,2.1 -0.2,2.6 h -2.8 l 1.1,1.4 -1.3,4 -0.9,1.1 -4.4,0.1 -2.4,1.5 -4.2,-0.5 -7.3,-1.7 -1.3,-2.1 -4.9,1.1 -0.5,1.2 -3.1,-0.9 -2.6,-0.2 -2.3,-1.2 0.7,-1.5 -0.2,-1.1 1.4,-0.3 2.7,1.7 0.6,-1.7 4.4,0.3 3.5,-1.1 2.4,0.2 1.7,1.3 0.4,-1.1 -1,-4.1 1.7,-0.8 1.6,-2.9 3.8,2.1 2.6,-2.6 1.7,-0.5 4,1.9 2.3,-0.3 z"
     id="AT"
     name="Austria"
     data-code="at" />
  <path
     d="m 134.39999,118.4 -0.4,4.2 -1.3,0.2 -0.4,3.5 -4.4,-2.9 -2.5,0.5 -3.5,-2.9 -2.4,-2.5 -2.2,-0.1 -0.8,-2.2 3.9,-1.2 3.6,0.5 4.5,-1.3 3.1,2.7 z"
     id="BE"
     name="Belgium"
     data-code="be" />
  <path
     d="m 250.49999,162.9 -2.3,2.6 -1.3,4.5 2.1,3.6 -4.6,-0.8 -5,2 0.3,3.2 -4.6,0.6 -3.9,-2.3 -4,1.8 -3.8,-0.2 -0.8,-4.2 -2.8,-2.1 0.7,-0.8 -0.6,-0.8 0.6,-2 1.8,-2 -2.8,-2.7 -0.7,-2.4 1.1,-1.4 1.8,2.6 1.9,-0.4 4,0.9 7.6,0.4 2.3,-1.6 5.9,-1.5 4,2.3 z"
     id="BG"
     name="Bulgaria"
     data-code="bg" />
  <path
     d="m 200.89999,155.6 1.9,-0.1 -1.1,2.8 2.7,2.5 -0.5,2.9 -1.1,0.3 -0.9,0.6 -1.6,1.5 -0.4,3.5 -4.8,-2.4 -2.1,-2.7 -2.1,-1.4 -2.5,-2.4 -1.3,-1.9 -2.7,-3 0.8,-2.6 2,1.5 1,-1.4 2.3,-0.1 4.5,1.1 3.5,-0.1 z"
     id="BA"
     name="Bosnia and Herzegovina"
     data-code="ba" />
  <path
     d="m 259.49999,104 -3.9,-0.2 -0.8,0.6 1.5,2 2,4 -4.1,0.3 -1.3,1.4 0.3,3.1 -2.1,-0.6 -4.3,0.3 -1.5,-1.5 -1.7,1.1 -1.9,-0.9 -3.9,-0.1 -5.7,-1.5 -4.9,-0.5 -3.8,0.2 -2.4,1.6 -2.3,0.3 -0.5,-2.8 -1.9,-2.8 2.8,-1.3 -0.4,-2.4 -1.7,-2.3 -0.6,-2.7 h 4.7 l 4.8,-2.3 0.5,-3.4 3.6,-2 -1,-2.7 2.7,-1 4.6,-2.3 5.3,1.5 0.9,1.5 2.4,-0.7 4.8,1.4 1.1,2.9 -0.7,1.6 3.8,4 2.1,1.1 v 1.1 l 3.4,1.1 1.7,1.6 z"
     id="BY"
     name="Belarus"
     data-code="by" />
  <path
     d="m 152.29999,138.8 0.2,1.1 -0.7,1.5 2.3,1.2 2.6,0.2 -0.3,2.5 -2.1,1.1 -3.8,-0.8 -1,2.5 -2.4,0.2 -0.9,-1 -2.7,2.2 -2.5,0.3 -2.2,-1.4 -1.8,-2.7 -2.4,1 v -2.9 l 3.6,-3.5 -0.2,-1.6 2.3,0.6 1.3,-1.1 h 4.2 l 1,-1.3 z"
     id="CH"
     name="Switzerland"
     data-code="ch" />
  <path
     d="m 177.59999,116.5 2.5,2 3.7,0.5 -0.2,1.7 2.8,1.3 0.6,-1.6 3.4,0.7 0.7,2 3.7,0.3 2.6,3.1 h -1.5 l -0.7,1.1 -1.1,0.3 -0.2,1.4 -0.9,0.3 -0.1,0.6 -1.6,0.6 -2.2,-0.1 -0.6,1.4 -2.4,-1.2 -2.3,0.3 -4,-1.9 -1.7,0.5 -2.6,2.6 -3.8,-2.1 -3,-2.6 -2.6,-1.5 -0.7,-2.7 -1,-1.8 3.4,-1.3 1.7,-1.6 3.5,-1.2 1.1,-1.2 1.3,0.7 z"
     id="CZ"
     name="Czech Republic"
     data-code="cz" />
  <path
     d="m 171.79999,100.2 1.4,3.1 -1.2,1.7 1.9,2.1 1.5,3.3 -0.2,2.2 2.4,3.9 -2.2,0.6 -1.3,-0.7 -1.1,1.2 -3.5,1.2 -1.7,1.6 -3.4,1.3 1,1.8 0.7,2.7 2.6,1.5 3,2.6 -1.6,2.9 -1.7,0.8 1,4.1 -0.4,1.1 -1.7,-1.3 -2.4,-0.2 -3.5,1.1 -4.4,-0.3 -0.6,1.7 -2.7,-1.7 -1.4,0.3 -5.5,-1.9 -1,1.3 h -4.2 l 0.4,-4.5 2.4,-4.2 -7.2,-1.2 -2.4,-1.6 0.2,-2.7 -1,-1.4 0.4,-4.2 -1.1,-6.5 h 2.9 l 1.2,-2.3 0.9,-5.6 -0.9,-2.1 0.8,-1.3 4,-0.3 1,1.3 3.1,-3 -1.3,-2.3 -0.4,-3.4 3.7,0.8 2.9,-0.9 0.3,2.3 4.9,1.4 0.1,2.2 4.7,-1.2 2.6,-1.6 5.6,2.4 z"
     id="DE"
     name="Germany"
     data-code="de" />
  <path
     class="Denmark"
     d="m 163.99999,89 -2.4,4.9 -5.2,-3.5 -0.9,-2.5 6.8,-2 z"
     id="path41"
     data-code="dk" />
  <path
     class="Denmark"
     d="m 151.19999,92.8 -2.9,0.9 -3.7,-0.8 -2.1,-3.4 -0.4,-6.1 0.6,-1.7 1.3,-1.8 4,-0.3 1.6,-1.7 3.6,-1.7 v 3.1 l -1.2,2 0.7,1.6 2.6,0.9 -1,2.3 -1.4,-0.6 -3.1,4.3 z"
     id="path42"
     data-code="dk" />
  <path
     d="m 231.59999,65.9 0.9,1 -2.6,3.4 2.4,5.6 -1.6,1.9 -3.8,-0.1 -4.4,-2.2 -2.1,-0.7 -3.8,1 -0.1,-3.5 -1.5,0.8 -3.3,-2.1 -1,-3.4 5.5,-1.7 5.6,-0.8 5.1,0.9 z"
     id="EE"
     name="Estonia"
     data-code="ee" />
  <path
     d="m 221.99999,11.4 0.4,3.8 7.3,3.7 -2.9,4.2 6.5,6.3 -1.7,4.8 4.9,4.2 -0.9,3.8 7.4,3.9 -0.9,2.9 -3.4,3.4 -8,7.4 -8,0.5 -7.6,2.1 -7.1,1.3 -3.2,-3.2 -4.7,-1.9 0.1,-5.8 -3,-5.2 1.6,-3.4 3.3,-3.5 8.8,-6.2 2.6,-1.2 -0.9,-2.4 -6.5,-2.6 -1.8,-2.2 -1.8,-8.5 -7.2,-3.7 -6,-2.7 2.2,-1.4000002 5.1,2.8000002 5.3,-0.2 4.7,1.3 3.4,-2.4 1.1,-4.0000002 5.9,-1.8 5.8,2.1 z"
     id="FI"
     name="Finland"
     data-code="fi" />
  <path
     class="United Kingdom"
     d="m 74.599989,99.5 -3.5,-1.2 -3,0.1 1.2,-3.3 -0.9,-3.2 4,-0.3 4.9,3.8 z"
     id="path43"
     data-code="gb" />
  <path
     class="United Kingdom"
     d="m 90.499989,70.8 -5.1,6.5 4.7,-0.8 h 5.1 l -1.3,4.9 -4.3,5.4 4.9,0.3 0.3,0.7 4.2,7.1 3.200001,1 2.9,7 1.4,2.4 5.9,1.1 -0.6,4 -2.4,1.8 1.9,3.2 -4.4,3.2 -6.5,-0.1 -8.400001,1.8 -2.2,-1.3 -3.3,2.9 -4.5,-0.7 -3.6,2.4 -2.5,-1.2 7.3,-6.5 4.4,-1.4 -7.6,-1 -1.3,-2.5 5.1,-1.9 -2.5,-3.3 1,-4 7.1,0.6 0.8,-3.6 -3.1,-3.7 -0.1,-0.1 -5.7,-1.1 -1.1,-1.6 1.8,-2.7 -1.5,-1.7 -2.6,2.9 -0.1,-5.9 -2.2,-3 1.9,-6.2 3.8,-4.8 3.6,0.4 z"
     id="path44"
     data-code="gb" />
  <path
     class="Greece"
     d="m 230.59999,213.9 3.1,2.2 4.1,-0.4 4,0.4 v 1.2 l 2.8,-0.8 -0.5,1.9 -7.6,0.5 -0.1,-1 -6.6,-1.3 z"
     id="path45"
     data-code="gr" />
  <path
     class="Greece"
     d="m 239.79999,181.2 -3.2,-0.2 -2.7,-0.6 -6.2,1.6 4,3.6 -2.5,1.1 h -2.9 l -3.1,-3.3 -0.9,1.4 1.6,3.8 2.9,3 -1.9,1.4 3.2,2.9 2.8,1.9 0.4,3.6 -5,-1.7 1.8,3.3 -3.3,0.6 2.5,5.7 -3.5,0.1 -4.6,-2.8 -2.4,-5.1 -1.3,-4.3 -2.3,-2.9 -3,-3.7 -0.5,-1.8 2.2,-3.1 0.1,-2.1 1.7,-0.9 -0.1,-1.7 3.4,-0.5 1.8,-1.4 2.8,0.1 0.8,-1.1 1,-0.2 3.8,0.2 4,-1.8 3.9,2.3 4.6,-0.6 -0.3,-3.2 2.7,1.7 -1.1,4 z"
     id="path46"
     data-code="gr" />
  <path
     d="m 199.39999,148.9 1.5,2.5 1.7,1.8 -1.7,2.4 -2.4,-1.4 -3.5,0.1 -4.5,-1.1 -2.3,0.1 -1,1.4 -2,-1.5 -0.8,2.6 2.7,3 1.3,1.9 2.5,2.4 2.1,1.4 2.1,2.7 4.8,2.4 -0.5,1 -5,-2.3 -3.2,-2.3 -4.8,-1.9 -4.7,-4.6 1,-0.5 -2.5,-2.7 -0.3,-2.1 -3.3,-1 -1.4,2.7 -1.6,-2.1 v -2.2 l 0.1,-0.1 3.6,0.2 0.8,-1 1.8,1 2,0.1 -0.1,-1.7 1.7,-0.7 0.3,-2.5 3.9,-1.7 1.6,0.8 4,2.7 4.3,1.2 z"
     id="HR"
     name="Croatia"
     data-code="hr" />
  <path
     d="m 214.09999,133.2 3,1.7 0.5,1.7 -2.9,1.3 -1.9,4.2 -2.6,4.3 -3.9,1.2 -3.2,-0.3 -3.7,1.6 -1.8,1 -4.3,-1.2 -4,-2.7 -1.6,-0.8 -1.2,-2.1 -0.8,-0.1 1.3,-4 -1.1,-1.4 h 2.8 l 0.2,-2.6 2.7,1.7 1.9,0.6 4.1,-0.7 0.3,-1.3 1.9,-0.2 2.3,-0.9 0.6,0.4 2.3,-0.8 1,-1.5 1.6,-0.4 5.5,1.9 z"
     id="HU"
     name="Hungary"
     data-code="hu" />
  <path
     d="m 74.599989,99.5 0.7,4.4 -3.9,5.5 -8.8,3.6 -6.8,-0.9 4.3,-6.4 -2.1,-6.2 6.7,-4.8 3.7,-2.8 0.9,3.2 -1.2,3.3 3,-0.1 z"
     id="IE"
     name="Ireland"
     data-code="ie" />
  <path
     d="m 42.699989,25.8 -1.4,3.6 4.4,3.8 -6.1,4.3 -13.1,3.9 -3.9,1.1 -5.6,-0.9 -11.8999998,-1.8 4.8,-2.5 -8.99999999,-2.7 7.89999999,-1.1 0.1,-1.7 -8.79999999,-1.3 3.59999999,-3.7 6.5999998,-0.8 6,3.8 7,-3 5.1,1.5 7.3,-2.9 z"
     id="IS"
     name="Iceland"
     data-code="is" />
  <path
     class="Italy"
     d="m 186.09999,197.7 -1.7,5.1 0.9,1.9 -0.9,3.3 -4.2,-2.4 -2.7,-0.7 -7.5,-3.2 0.5,-3.3 6.2,0.6 5.4,-0.7 z"
     id="path60"
     data-code="it" />
  <path
     class="Italy"
     d="m 152.09999,178.7 3.3,4.5 -0.4,8.5 -2.4,-0.4 -2.1,2.1 -2,-1.7 -0.5,-7.7 -1.3,-3.6 2.9,0.3 z"
     id="path61"
     data-code="it" />
  <path
     class="Italy"
     d="m 173.79999,145.2 -0.4,3.1 1.4,2.7 -4.1,-1 -3.9,2.3 0.4,3.1 -0.5,1.8 1.9,3.2 5,3.2 2.9,5.3 6.1,5.1 4,-0.1 1.4,1.4 -1.4,1.3 4.8,2.3 4,1.9 4.7,3.4 0.6,1.1 -0.8,2.3 -3.1,-3 -4.6,-1 -1.9,4.1 3.9,2.4 -0.4,3.3 -2.1,0.4 -2.5,5.5 -2.2,0.5 -0.1,-2 0.9,-3.4 1.1,-1.4 -2.3,-3.7 -1.8,-3.2 -2.2,-0.8 -1.8,-2.7 -3.4,-1.2 -2.4,-2.6 -3.8,-0.4 -4.3,-2.8 -4.9,-4.2 -3.7,-3.6 -1.9,-6.3 -2.6,-0.7 -4.2,-2.1 -2.3,0.8 -2.9,3 -2.1,0.4 0.5,-2.7 -2.8,-0.8 -1.5,-4.9 1.7,-1.9 -1.5,-2.4 0.1,-1.8 2.2,1.4 2.5,-0.3 2.7,-2.2 0.9,1 2.4,-0.2 1,-2.5 3.8,0.8 2.1,-1.1 0.3,-2.5 3.1,0.9 0.5,-1.2 4.9,-1.1 1.3,2.1 z"
     id="path62"
     data-code="it" />
  <path
     d="m 228.99999,88.9 1,2.7 -3.6,2 -0.5,3.4 -4.8,2.3 h -4.7 l -1.4,-1.9 -2.5,-0.7 -0.6,-1.5 0.2,-1.7 -2.2,-0.9 -5.1,-1.1 -1.7,-5.1 5.1,-1.8 7.9,0.4 4.5,-0.6 0.9,1.2 2.5,0.4 z"
     id="LT"
     name="Lithuania"
     data-code="lt" />
  <path
     d="m 134.79999,126.7 -1.4,0.1 -1.1,-0.5 0.4,-3.5 1.3,-0.2 1,1.4 z"
     id="LU"
     name="Luxembourg"
     data-code="lu" />
  <path
     d="m 230.69999,77.8 2.5,1.3 1,2.9 2.1,3.6 -4.6,2.3 -2.7,1 -5,-2.9 -2.5,-0.4 -0.9,-1.2 -4.5,0.6 -7.9,-0.4 -5.1,1.8 -0.5,-4.5 1.7,-3.8 4.1,-2 4.4,4.5 3.7,-0.2 0.1,-4.6 3.8,-1 2.1,0.7 4.4,2.2 z"
     id="LV"
     name="Latvia"
     data-code="lv" />
  <path
     d="m 247.29999,151.6 -1.3,-2.9 0.2,-2.7 -0.6,-2.7 -3.4,-3.8 -2,-2.6 -1.8,-1.8 -1.6,-0.7 1.1,-0.9 3.2,-0.6 4,1.9 2,0.3 2.6,1.7 -0.1,2.1 2,1 1.1,2.6 2,1.6 -0.2,1 1,0.6 -1.3,0.5 -3,-0.2 -0.6,-0.9 -1,0.5 0.6,1.1 -1.1,2.1 -0.6,2.1 z"
     id="MD"
     name="Moldova"
     data-code="md" />
  <path
     d="m 223.39999,177.9 -1,0.2 -0.8,1.1 -2.8,-0.1 -1.8,1.4 -3.4,0.5 -2.3,-1.5 -1,-2.7 0.5,-2.2 0.7,0.1 0.1,-1.3 2.9,-1 1.2,-0.3 1.7,-0.3 2.4,-0.2 2.8,2.1 z"
     id="MK"
     name="Macedonia"
     data-code="mk" />
  <path
     d="m 208.49999,168.5 -0.8,1.4 -1.4,0.6 -0.4,-1.2 -1.9,3.1 0.5,2.1 -1.1,-0.5 -1.7,-2.1 -2.3,-1.3 0.5,-1 0.4,-3.5 1.6,-1.5 0.9,-0.6 1.4,1.1 0.9,0.9 1.7,0.7 2.1,1.3 z"
     id="ME"
     name="Montenegro"
     data-code="me" />
  <path
     class="Norway"
     d="m 231.59999,8.7999998 -6.4,2.1000002 -3.2,0.5 0.8,-3.8000002 -5.8,-2.1 -5.9,1.8 -1.1,4.0000002 -3.4,2.4 -4.7,-1.3 -5.3,0.2 -5.1,-2.8000002 -2.2,1.4000002 -2.6,0.2 0.1,3.6 -8,-0.9 -0.6,3.1 h -4 l -2.3,3.9 -3.4,6.1 -5.7,7.9 1.8,2 -1.3,2.2 -4.3,-0.1 -2.4,5.4 1,7.7 3.1,2.9 -0.8,6.9 -3.4,4 -1.8,3.4 -3.3,-3.6 -8.6,6.8 -6.1,1.4 -6.5,-3 -1.8,-6.3 -2,-13.5 4,-3.7 11.3,-4.9 8.1,-5.9 7.2,-7.8 8.9,-10.7 6.4,-4.1 10.3,-6.8000002 8.5,-2.4 6.7,0.3 5.2,-4.4 7.4,0.2 7,-1 13.7,3.9 -4.9,1.4 z"
     id="path68"
     data-code="no" />
  <path
     d="m 197.79999,96.1 5.9,0.7 8.8,-0.1 2.5,0.7 1.4,1.9 0.6,2.7 1.7,2.3 0.4,2.4 -2.8,1.3 1.9,2.8 0.5,2.8 3.2,5.4 -0.3,1.7 -2.3,0.7 -3.8,5.2 1.6,2.8 -1.1,-0.4 -5,-2.4 -3.5,0.9 -2.4,-0.6 -2.8,1.3 -2.7,-2.2 -1.9,0.9 -0.3,-0.4 -2.6,-3.1 -3.7,-0.3 -0.7,-2 -3.4,-0.7 -0.6,1.6 -2.8,-1.3 0.2,-1.7 -3.7,-0.5 -2.5,-2 -2.4,-3.9 0.2,-2.2 -1.5,-3.3 -1.9,-2.1 1.2,-1.7 -1.4,-3.1 3.1,-1.8 7.1,-2.8 5.8,-2 4.8,1 0.6,1.5 z"
     id="PL"
     name="Poland"
     data-code="pl" />
  <path
     d="m 236.79999,134.4 1.6,0.7 1.8,1.8 2,2.6 3.4,3.8 0.6,2.7 -0.2,2.7 1.3,2.9 2.4,1.2 2.3,-1.1 2.4,1.1 0.4,1.7 -2.3,1.3 -1.6,-0.6 -0.4,7.7 -3.1,-0.7 -4,-2.3 -5.9,1.5 -2.3,1.6 -7.6,-0.4 -4,-0.9 -1.9,0.4 -1.8,-2.6 -1,-1.1 1,-1.1 -1.3,-0.7 -1.5,1.4 -3.1,-1.9 -0.7,-2.6 -3.2,-1.4 -0.8,-2.1 -3,-2.4 3.9,-1.2 2.6,-4.3 1.9,-4.2 2.9,-1.3 2,-1.4 3.2,0.7 h 3.2 l 2.5,1.6 1.6,-1 3.6,-0.6 1,-1.5 z"
     id="RO"
     name="Romania"
     data-code="ro" />
  <path
     d="m 219.89999,159.5 -1.1,1.4 0.7,2.4 2.8,2.7 -1.8,2 -0.6,2 0.6,0.8 -0.7,0.8 -2.4,0.2 -1.7,0.3 -0.3,-0.5 0.6,-0.7 0.4,-1.6 -0.7,0.1 -1.1,-1.2 -0.9,-0.3 -0.8,-1 -1,-0.4 -0.8,-0.9 -0.9,0.4 -0.5,2.1 -1.2,0.4 0.4,-0.5 -2.1,-1.3 -1.7,-0.7 -0.9,-0.9 -1.4,-1.1 1.1,-0.3 0.5,-2.9 -2.7,-2.5 1.1,-2.8 -1.9,0.1 1.7,-2.4 -1.7,-1.8 -1.5,-2.5 3.7,-1.6 3.2,0.3 3,2.4 0.8,2.1 3.2,1.4 0.7,2.6 3.1,1.9 1.5,-1.4 1.3,0.7 -1,1.1 z"
     id="RS"
     name="Serbia"
     data-code="rs" />
  <path
     d="m 215.99999,129 -1.2,1.7 -0.7,2.5 -1,0.6 -5.5,-1.9 -1.6,0.4 -1,1.5 -2.3,0.8 -0.6,-0.4 -2.3,0.9 -1.9,0.2 -0.3,1.3 -4.1,0.7 -1.9,-0.6 -2.7,-1.7 -0.7,-2.1 0.3,-0.8 0.6,-1.4 2.2,0.1 1.6,-0.6 0.1,-0.6 0.9,-0.3 0.2,-1.4 1.1,-0.3 0.7,-1.1 h 1.5 l 0.3,0.4 1.9,-0.9 2.7,2.2 2.8,-1.3 2.4,0.6 3.5,-0.9 z"
     id="SK"
     name="Slovakia"
     data-code="sk" />
  <path
     d="m 187.69999,145.2 -3.9,1.7 -0.3,2.5 -1.7,0.7 0.1,1.7 -2,-0.1 -1.8,-1 -0.8,1 -3.6,-0.2 1.1,-0.5 -1.4,-2.7 0.4,-3.1 4.2,0.5 2.4,-1.5 4.4,-0.1 0.9,-1.1 0.8,0.1 z"
     id="SI"
     name="Slovenia"
     data-code="si" />
  <path
     d="m 206.09999,28.3 -7,1.6 -3.5,3.9 1.3,3.5 -6.2,4.5 -7.8,5 -2.1,8.1 3.7,4.1 4.8,3.3 -3.3,6.6 -4.6,1.4 -0.6,10 -2.1,5.7 -5.7,-0.6 -2.2,4.8 -5.5,0.3 -1.9,-5.7 -4.5,-6.9 -4.2,-8.4 1.8,-3.4 3.4,-4 0.8,-6.9 -3.1,-2.9 -1,-7.7 2.4,-5.4 4.3,0.1 1.3,-2.2 -1.8,-2 5.7,-7.9 3.4,-6.1 2.3,-3.9 h 4 l 0.6,-3.1 8,0.9 -0.1,-3.6 2.6,-0.2 6,2.7 7.2,3.7 1.8,8.5 z"
     id="SE"
     name="Sweden"
     data-code="se" />
  <path
     d="m 275.09999,115.9 2.3,2.7 0.1,1.2 6.7,2.2 3.6,-1 3.6,2.9 2.9,-0.1 7.7,2 0.4,1.9 -1.3,3.2 1.8,3.5 -0.3,2.1 -4.8,0.4 -2.2,1.8 0.4,2.7 -3.9,0.5 -3,2.1 -4.6,0.3 -4,2.4 1,3.9 2.8,1.5 5.1,-0.4 -0.6,2.3 -5.4,1.1 -6.3,3.6 -3.1,-1.3 0.7,-2.9 -5.9,-1.9 0.7,-1.2 4.6,-2.1 -1.7,-1.4 -8.1,-1.6 -0.8,-2.4 -4.5,0.8 -1.3,3.5 -3.3,4.6 -2.4,-1.1 -2.3,1.1 -2.4,-1.2 1.2,-0.7 0.6,-2.1 1.1,-2.1 -0.6,-1.1 1,-0.5 0.6,0.9 3,0.2 1.3,-0.5 -1,-0.6 0.2,-1 -2,-1.6 -1.1,-2.6 -2,-1 0.1,-2.1 -2.6,-1.7 -2,-0.3 -4,-1.9 -3.2,0.6 -1.1,0.9 h -2.1 l -1,1.5 -3.6,0.6 -1.6,1 -2.5,-1.6 h -3.2 l -3.2,-0.7 -2,1.4 -0.5,-1.7 -3,-1.7 0.7,-2.5 1.2,-1.7 1.1,0.4 -1.6,-2.8 3.8,-5.2 2.3,-0.7 0.3,-1.7 -3.2,-5.4 2.3,-0.3 2.4,-1.6 3.8,-0.2 4.9,0.5 5.7,1.5 3.9,0.1 1.9,0.9 1.7,-1.1 1.5,1.5 4.3,-0.3 2.1,0.6 -0.3,-3.1 1.3,-1.4 4.1,-0.3 1.8,0.2 1,-1.4 1.5,0.3 4.9,-0.6 3.8,3.5 -0.9,1.3 0.8,1.9 z"
     id="UA"
     name="Ukraine"
     data-code="ua" />
  <path
     d="m 215.69999,172.1 -1.2,0.3 -2.9,1 -0.1,1.3 -0.7,-0.1 -0.6,-2.3 -1.3,-0.7 -1.2,-1.7 0.8,-1.4 1.2,-0.4 0.5,-2.1 0.9,-0.4 0.8,0.9 1,0.4 0.8,1 0.9,0.3 1.1,1.2 0.7,-0.1 -0.4,1.6 -0.6,0.7 z"
     id="XK"
     name="Kosovo"
     data-code="xk" />
  <path
     d="m 134.39999,118.4 -2.8,-1.5 -3.1,-2.7 -4.5,1.3 -3.6,-0.5 2.5,-1.7 4,-9 6.5,-2.6 4,0.2 0.9,2.1 -0.9,5.6 -1.2,2.3 h -2.9 z"
     id="NL"
     name="Netherlands"
     data-code="nl" />
  <path
     d="m 64.799989,205 -2.2,1.6 -2.8,-0.9 -2.7,0.7 0.9,-5 -0.3,-3.9 -2.4,-0.6 -1.1,-2.4 0.5,-4.2 2.2,-2.3 0.5,-2.6 1.2,-3.8 v -2.7 l -0.9,-2.3 -0.2,-2.2 1.9,-1.6 2.2,-0.9 1.2,3.1 h 3 l 0.9,-0.8 3.1,0.2 1.3,3.2 -2.4,1.7 -0.3,5 -0.8,0.9 -0.3,3.1 -2.3,0.5 2,3.8 -1.6,4.2 1.8,1.9 -0.8,1.7 -2,2.4 z"
     id="PT"
     name="Portugal"
     data-code="pt" />
  <path
     class="Russian Federation"
     d="m 212.49999,96.7 -8.8,0.1 -5.9,-0.7 0.7,-2.6 6.3,-2 5.1,1.1 2.2,0.9 -0.2,1.7 z"
     id="path92"
     data-code="ru" />
  <path
     d="m 94.499989,164.7 2,2.4 9.500001,2.9 1.9,-1.4 5.8,2.9 5.9,-0.8 0.4,3.7 -4.9,4.2 -6.6,1.4 -0.5,2.1 -3.2,3.5 -2,5.2 2,3.7 -3,2.8 -1.2,4.2 -4.000001,1.3 -3.7,4.9 -6.8,0.1 -5,-0.1 -3.4,2.2 -2.1,2.4 -2.6,-0.5 -1.9,-2.2 -1.4,-3.6 -4.9,-1 -0.4,-2.2 2,-2.4 0.8,-1.7 -1.8,-1.9 1.6,-4.2 -2,-3.8 2.3,-0.5 0.3,-3.1 0.8,-0.9 0.3,-5 2.4,-1.7 -1.3,-3.2 -3.1,-0.2 -0.9,0.8 h -3 l -1.2,-3.1 -2.2,0.9 -1.9,1.6 0.5,-4.5 -2,-2.7 7.4,-4.6 6.2,1.1 h 6.9 l 5.4,1.1 4.3,-0.4 z"
     id="ES"
     name="Spain"
     data-code="es" />
  <path
     class="France"
     d="m 153.59999,172.7 -1.5,4.9 -2.4,-1.3 -1.3,-4.2 0.9,-2.4 3.2,-2.4 z"
     id="path101"
     data-code="fr" />
  <path
     class="France"
     d="m 132.29999,126.3 1.1,0.5 1.4,-0.1 2.4,1.6 7.2,1.2 -2.4,4.2 -0.4,4.5 -1.3,1.1 -2.3,-0.6 0.2,1.6 -3.6,3.5 v 2.9 l 2.4,-1 1.8,2.7 -0.1,1.8 1.5,2.4 -1.7,1.9 1.5,4.9 2.8,0.8 -0.5,2.7 -4.5,3.6 -10.2,-1.7 -7.4,2.1 -0.6,3.8 -5.9,0.8 -5.8,-2.9 -1.9,1.4 -9.500001,-2.9 -2,-2.4 2.7,-3.8 1,-12.6 -5.1,-6.6 -3.7,-3.2 -7.6,-2.4 -0.4,-4.6 6.5,-1.3 8.3,1.6 -1.5,-7.1 4.7,2.7 11.400001,-4.8 1.5,-5.1 4.2,-1.3 0.8,2.2 2.2,0.1 2.4,2.5 3.5,2.9 2.5,-0.5 z"
     id="path102"
     data-code="fr" />
  <path
     class="Cyprus"
     d="m 286.09999,218 0.1,0.2 0.3,0.4 -0.4,-0.1 h -0.3 l -0.4,0.2 -0.3,-0.3 v -0.3 l 0.3,-0.1 0.2,0.1 z"
     id="path150"
     data-code="cy" />
  <path
     class="Cyprus"
     d="m 284.39999,218.5 v 0.1 l -0.2,0.2 -0.1,0.6 -0.1,0.2 h -0.3 l -0.2,0.2 -0.5,0.2 -0.2,0.1 -0.6,0.3 -0.4,-0.1 -0.5,0.1 -0.3,0.4 -0.2,-0.3 -0.3,0.1 h -0.2 l -0.3,-0.3 -0.4,0.3 h -0.5 l -0.5,-0.2 -0.5,-0.1 -0.4,-0.3 -0.3,-0.6 -0.3,-0.3 -0.2,-0.7 -0.2,-0.3 0.1,-0.3 0.5,0.3 0.4,-0.1 0.2,-0.3 0.1,-0.3 0.3,-0.1 0.2,0.1 0.2,-0.2 h 0.2 l 0.1,0.4 0.5,0.2 0.1,0.2 h 0.6 l 0.6,-0.5 0.4,0.1 0.3,-0.2 0.3,0.1 0.4,0.2 0.2,-0.3 h 0.3 l 0.3,0.4 v 0.6 l 0.3,-0.2 0.3,0.2 0.1,-0.1 z"
     id="path151"
     data-code="cy" />
  <path
     class="Malta"
     d="m 181.79999,213 -0.2,0.3 -0.5,-0.2 -0.5,-0.3 v -0.5 l -0.1,-0.1 h 0.6 l 0.4,0.3 0.2,0.2 z"
     id="path175"
     data-code="mt" />
  <path
     class="Malta"
     d="m 180.19999,211.9 -0.5,-0.1 v -0.2 l 0.4,-0.1 0.4,0.3 z"
     id="path176"
     data-code="mt" />
  <circle
     cx="115.80001"
     cy="130.40001"
     id="0"
     r="0" />
  <circle
     cx="-208.60001"
     cy="665.39996"
     id="1"
     r="0" />
  <circle
     cx="916.09991"
     cy="660.59998"
     id="2"
     r="0" />
</svg>
