<?xml version="1.0" encoding="UTF-8" standalone="no"?>
<!--
*************Map created by Simplemaps.com********************		
*************Attribution is highly appreciated!***************
*************http://simplemaps.com****************************

The MIT License (MIT)

Copyright (c) 2020 Pareto Softare, LLC DBA Simplemaps.com

Permission is hereby granted, free of charge, to any person obtaining a copy
of this software and associated documentation files (the "Software"), to deal
in the Software without restriction, including without limitation the rights
to use, copy, modify, merge, publish, distribute, sublicense, and/or sell
copies of the Software, and to permit persons to whom the Software is
furnished to do so, subject to the following conditions:

The above copyright notice and this permission notice shall be included in
all copies or substantial portions of the Software.

THE SOFTWARE IS PROVIDED "AS IS", WITHOUT WARRANTY OF ANY KIND, EXPRESS OR
IMPLIED, INCLUDING BUT NOT LIMITED TO THE WARRANTIES OF MERCHANTABILITY,
FITNESS FOR A PARTICULAR PURPOSE AND NONINFRINGEMENT. IN NO EVENT SHALL THE
AUTHORS OR COPYRIGHT HOLDERS BE LIABLE FOR ANY CLAIM, DAMAGES OR OTHER
LIABILITY, WHETHER IN AN ACTION OF CONTRACT, TORT OR OTHERWISE, ARISING FROM,
OUT OF OR IN CONNECTION WITH THE SOFTWARE OR THE USE OR OTHER DEALINGS IN
THE SOFTWARE.

-->

<svg
   baseprofile="tiny"
   fill="#ececec"
   height="453.20001"
   stroke="#000000"
   stroke-linecap="round"
   stroke-linejoin="round"
   stroke-width="0.2"
   version="1.2"
   viewBox="0 0 700 450"
   width="678.39996"
   id="svg301"
   sodipodi:docname="nordamerika.svg"
   inkscape:version="1.4.2 (ebf0e940, 2025-05-08)"
   xmlns:inkscape="http://www.inkscape.org/namespaces/inkscape"
   xmlns:sodipodi="http://sodipodi.sourceforge.net/DTD/sodipodi-0.dtd"
   xmlns="http://www.w3.org/2000/svg"
   xmlns:svg="http://www.w3.org/2000/svg">
  <defs
     id="defs301" />
  <sodipodi:namedview
     id="namedview301"
     pagecolor="#ffffff"
     bordercolor="#000000"
     borderopacity="0.25"
     inkscape:showpageshadow="2"
     inkscape:pageopacity="0.0"
     inkscape:pagecheckerboard="0"
     inkscape:deskcolor="#d1d1d1"
     showgrid="false"
     inkscape:zoom="0.49350231"
     inkscape:cx="668.68988"
     inkscape:cy="240.12046"
     inkscape:window-width="1440"
     inkscape:window-height="768"
     inkscape:window-x="0"
     inkscape:window-y="25"
     inkscape:window-maximized="0"
     inkscape:current-layer="svg301" />
  <path
     d="m 388.3,397.4 h -1.7 l 1.3,-7.2 0.7,-5.1 0.1,-1 0.7,-0.3 0.9,0.8 2.5,-3.9 1.1,-0.1 -0.1,1 h 1 l -0.3,1.8 -1.3,2.7 0.4,1 -0.9,2.3 0.3,0.6 -1,3.3 -1.3,1.7 -1.1,0.2 z"
     id="BZ"
     name="Belize"
     data-code="bz" />
  <path
     class="Canada"
     data-code="ca"
     d="m 566.4,201.2 3.4,0.9 4.7,-0.2 -3.3,2.6 -2,0.4 -5.5,-2.7 -0.6,-2.1 2.5,-1.9 z"
     id="path9" />
  <path
     class="Canada"
     data-code="ca"
     d="m 580.8,185.2 -2.4,0.1 -5.8,-1.9 -3.5,-3 1.9,-0.5 5.9,1.6 4.2,2.6 z"
     id="path10" />
  <path
     class="Canada"
     data-code="ca"
     d="m 272.9,188.9 -3.1,0.9 -6.3,-2.8 v -2.2 l -2.9,-2.2 0.3,-1.8 -4.3,-1.1 0.6,-3.4 1.5,-1.4 4.1,1.3 2.4,1 4.1,0.6 0.2,2.2 0.4,2.9 3.2,2.6 z"
     id="path11" />
  <path
     class="Canada"
     data-code="ca"
     d="m 612,175.4 -5,5.4 3.9,-2.1 2.9,1.4 -2.4,2.1 3.8,1.7 2.8,-1.5 4.3,1.9 -2.8,4.6 3.8,-1.1 -0.3,3.3 0.5,3.9 -3.6,5.6 -2.4,0.2 -2.9,-1.2 2.5,-5.1 -1.2,-0.8 -7.3,5.4 -3,-0.2 4.4,-3 -4.4,-1.5 -5.5,0.4 -9.6,-0.2 -0.2,-1.8 3.8,-2.3 -1.7,-1.6 5.4,-3.8 8.2,-9.9 4.2,-3.5 5,-2.1 2.1,0.2 -1.5,1.7 z"
     id="path12" />
  <path
     class="Canada"
     data-code="ca"
     d="m 252,154 1.5,0.8 5,-0.5 -7.2,6.9 0.3,5 h -1.9 l -0.7,-2.8 0.5,-2.9 -0.8,-1.9 1.3,-2.7 z"
     id="path13" />
  <path
     class="Canada"
     data-code="ca"
     d="m 535.4,106.5 -3.6,3 -1.7,-0.5 -0.1,-1.7 0.4,-0.4 2.8,-1.7 1.7,0.1 z"
     id="path14" />
  <path
     class="Canada"
     data-code="ca"
     d="m 525.7,103.3 -7.2,3.2 -3,-0.2 v -1.5 l 5,-2.7 6,0.1 z"
     id="path15" />
  <path
     class="Canada"
     data-code="ca"
     d="m 522.6,86.5 -0.9,2.5 2.7,-0.9 1.5,1.5 3.5,2 3.8,1.7 -1.4,2.7 3.5,-0.4 1.9,1.9 -5,1.8 -5.9,-1.4 -0.8,-2.6 -6.3,3.1 -8.2,2.9 0.7,-3.3 -6.3,0.5 5.7,-2.8 3.6,-4.5 5.1,-5.1 z"
     id="path16" />
  <path
     class="Canada"
     data-code="ca"
     d="m 567.5,78.2 -4.9,0.3 0.7,-2.7 3.8,-3.1 4.3,-0.7 2.3,1.5 -1.5,2.3 -0.9,0.8 z"
     id="path17" />
  <path
     class="Canada"
     data-code="ca"
     d="m 493,67.5 -4.1,1.9 -4.2,-1.6 -3.9,0.5 -3.4,-2.4 5,-1.7 4.9,-2.3 3,1.5 1.6,1 0.4,1 z"
     id="path18" />
  <path
     class="Canada"
     data-code="ca"
     d="m 546,210.1 -2.2,-3.6 2.9,-8.5 -1.6,-1.8 -3.7,1 -1.1,-1.6 -5.5,4.7 -3.2,4.9 -2.8,2.9 -2.5,1 -1.7,0.3 -1.1,1.5 h -9.3 l -7.8,0.1 -2.7,1.1 -6.8,4.4 v -0.1 l -0.9,-0.4 -2,0.9 -1.9,1.3 -1.8,-1.1 -4.7,0.8 -3.9,0.9 -1.9,0.8 -2.3,2.1 1.8,0.7 1.7,-0.4 h 0.3 l -0.3,1.9 -4.8,0.7 -2.8,0.8 -1.7,1 -2.6,-0.6 -1.6,0.3 -2.9,1.8 -4.6,2 -2.7,-0.4 2,-2.2 3.7,-3.5 4.1,-2.1 1.1,-1.8 0.9,-3 3.8,-3.5 0.9,-4 1.1,3.9 3.8,0.9 2.4,-2.1 -1.4,-4.8 -0.9,-2 -4,-1.2 -3.8,-0.7 h -3.9 l -3.4,-0.8 -0.4,-1.4 -1.4,0.9 -1.2,-0.2 1.9,-2.1 -1.8,-0.8 1.9,-2.4 -1.2,-1.8 1.7,-1.8 -5.2,-0.9 -0.1,-3.6 -0.8,-0.8 -3.3,-0.2 -4.1,-1.2 -1.5,0.8 -1.8,1.5 -3.3,1 -3.1,2.5 -5.4,-1.7 -4.4,0.8 -3.9,-1.9 -4.6,-1 -3.3,-0.4 -1,-1 0.9,-3.4 h -1.7 l -1.3,2.4 h -10.2 -17 -16.8 -14.9 -14.8 -14.7 -15.1 -4.8 -14.7 -14.1 -0.7 l -5.4,-6.1 -1.6,-2.7 -7,-2.6 1.3,-5.5 3.6,-3.7 -4.1,-2.7 3.1,-4.9 -2.1,-4.4 2.5,-3.2 5.1,-2.9 3.2,-3.8 -4.6,-3.8 1.4,-6.9 1.1,-4.2 -1.6,-2.7 -0.8,-2.4 0.6,-3.1 -6.5,1.9 -7.6,3.3 -0.3,-3.8 -0.5,-2.6 -2.8,-1.6 -4.2,-0.2 35.6,-32.7 24.6,-20.4 6,1.3 3.3,2.6 3.7,0.5 6.3,-2.2 7,-1.7 5.3,0.6 8.9,-2.3 8.2,-1.3 0.2,2.2 4.5,-1.3 3.9,-2.5 2.1,0.6 1.4,4.8 9.5,-3.7 -3.9,4.1 6,-0.9 3.2,-1.5 4.6,0.3 3.9,2.2 7.5,2 4.7,0.9 4.4,-0.3 2.9,2.8 -8.5,2.7 6.4,1.1 11.9,-0.6 4.4,-1 1.4,3.3 7.1,-2.7 -2.1,-2.4 4.5,-1.8 5.2,-0.3 3.9,-0.5 2.1,1.3 1.5,2.9 5,-0.4 5.3,2.5 7.2,-0.9 6,0.1 2.4,-3.4 4.5,-0.9 4.9,1.8 -4.3,5.2 6.2,-4.4 3.2,0.2 6.4,-5.5 -1.6,-3.3 -2.9,-2.2 5.5,-5.9 8.2,-3.8 4.5,0.9 2,2.3 0.4,6 -5.8,2.6 6.7,1.1 -4.4,5.5 8.9,-4.2 2.2,3.5 -4.3,4 1.3,3.7 7.3,-3.9 6.5,-4.8 4.7,-5.9 5.5,0.4 5.4,0.8 3.6,2.7 -1.7,2.7 -5.1,2.9 0.9,2.9 -2.4,2.7 -10.9,3.9 -6.5,0.9 -3.2,-1.7 -3.3,2.8 -7.4,4.7 -3,2.5 -7.7,3.8 -6.5,0.4 -5.1,2.4 -2.9,3.8 -5.7,0.7 -8.7,4.7 -9.4,6.5 -5,4.6 -4.9,6.9 6,1 -1.5,5.5 -0.8,4.6 7.3,-1.2 7,2.6 3.3,2.3 1.7,2.8 4.9,1.7 3.6,2.5 7.6,0.4 4.8,0.6 -3.6,5.2 -1.7,6.1 0.1,6.9 4.4,5.9 4.7,-2 5.6,-6.4 2.3,-9.6 -1.7,-3.2 9,-2.9 7.5,-4.2 4.8,-4.2 1.7,-4 -0.4,-5.1 -3.2,-4.5 8.9,-6.2 1,-5.3 3.9,-9 3.8,-1.4 6.7,1.6 4.2,0.6 4.5,-1.6 3.1,2 3.6,3.4 0.2,2.2 7.7,0.5 -2.6,4.9 -2.3,7.4 3.8,1 1.6,3.5 8.2,-3.3 7.5,-6.6 4.2,-2.7 1.1,5.3 2.6,7.5 2,7.2 -3.4,3.8 4.8,3.4 2.9,3.4 6.9,1.6 2.4,1.9 v 5.2 l 3.4,0.8 1.1,2.3 -2,6.9 -4.3,2.3 -4.2,2.2 -8.8,2.2 -7.9,5 -8.6,1.1 -10.1,-1.4 h -7.3 l -5.3,0.4 -5.7,4.5 -7.4,2.8 -10.1,8.2 -7.9,5.8 4.7,-1 10.9,-8.3 12.3,-5.2 7.6,-0.6 3.3,3.1 -6.1,4.2 -0.6,6.7 0.1,4.8 5.6,3.1 8.6,-0.9 7.2,-7.1 -1,4.6 2.5,2.3 -7.4,4.1 -12.4,3.8 -5.8,2.5 -7.2,4.6 -3.7,-0.5 1.5,-5.3 10.4,-5.3 -8.1,0.2 z"
     id="path19" />
  <path
     class="Canada"
     data-code="ca"
     d="m 439.5,46.3 -4.7,2.4 10.5,-1.5 2.6,2.6 7.3,-2.7 1.8,1.7 -2.2,5.1 4.3,-2.1 2.8,-5.3 4.3,-0.8 3,0.8 2.2,2.1 -2.7,5.1 -2.4,3.7 4.2,2.6 5,2.6 -2.6,2.3 -7.1,0.5 0.8,2 -3.2,2 -6.7,-0.8 -5.7,-1.5 -5.1,0.3 -9.5,1.9 -11.3,0.8 -7.9,0.5 0.3,-2.6 -4.1,-1.4 -4.3,0.6 -0.6,-4.3 3.3,-0.6 7.3,-0.9 5.5,0.3 6.2,-1 -6.5,-1.2 -9.1,0.4 -5.7,-0.1 v -1.9 l 11.7,-2.2 -6.3,0.1 -5.4,-1.4 7.8,-3.9 5.2,-2.1 14.2,-3.1 z"
     id="path20" />
  <path
     class="Canada"
     data-code="ca"
     d="m 479,44.8 -7,3.4 -2.3,-3.6 2.1,-0.8 5.5,-0.2 z"
     id="path21" />
  <path
     class="Canada"
     data-code="ca"
     d="m 587.6,46.4 -0.7,1.4 -4.1,-0.1 -4.1,-0.1 -4.9,0.7 -0.9,-0.4 -2.1,-2.7 1.7,-1.8 2.2,-0.4 8.4,0.6 z"
     id="path22" />
  <path
     class="Canada"
     data-code="ca"
     d="m 547.8,46.1 0.3,3.2 7.2,-4.1 11.7,-2.1 2.3,5.3 -3.2,3.4 9,-1.5 5.3,-2.1 6.8,2.6 3.7,2.5 -1.1,2.3 8.2,-1.2 1.9,3.4 8.4,2.1 2.2,2.1 0.9,5.1 -9.1,2.5 7.7,3.6 5.9,1.2 3.3,5 6.5,0.4 -3.3,3.9 -10.9,6.5 -4,-2.4 -3.8,-5.4 -5.9,0.7 -2.3,3.3 2.7,3.2 4.5,2.6 1,1.5 -0.1,5.7 -3.6,4.1 -4.7,-1.6 -8.6,-4.5 3.6,4.9 2.8,3.5 -0.3,2 -10.9,-2.3 -7.6,-3.4 -3.8,-2.7 2.4,-1.7 -4.8,-2.9 -4.7,-2.7 -0.9,1.6 -13.1,0.9 -2.4,-1.9 5.4,-4.2 8.1,-0.1 9.3,-0.7 -0.2,-2 3.1,-2.8 8.8,-5.4 0.4,-2.5 -0.5,-1.8 -4.7,-2.7 -7.1,-1.8 3.5,-1.4 -2,-3.4 -3.4,-0.3 -1.9,-1.8 -3.3,1.6 -7.9,0.7 -14,-1.2 -7.4,-1.6 -5.9,-0.8 -1.9,-1.9 6.3,-2.4 H 526 l 3.3,-5.3 7.1,-4.6 6,-2.1 11.2,-1.4 z"
     id="path23" />
  <path
     class="Canada"
     data-code="ca"
     d="m 497.4,42.6 3.6,1.1 7.6,-0.7 -0.5,1.5 -6.1,2.5 3.8,2.2 -5.2,4.7 -8.4,2 -3.4,-0.4 -0.9,-2 -5.9,-4 1.7,-1.7 7.4,0.6 -0.9,-3.3 z"
     id="path24" />
  <path
     class="Canada"
     data-code="ca"
     d="m 520,48.1 -7.8,3.9 -4.4,-0.2 1.8,-4.6 2.6,-2.5 4.2,-2.2 5.2,-1.4 7.9,0.2 6.2,1.2 -10.1,4.6 z"
     id="path25" />
  <path
     class="Canada"
     data-code="ca"
     d="m 404.2,55.3 -13.5,2.6 0.6,-2.3 -6,-2.8 4.4,-2.2 7.5,-3.8 7.6,-3.4 0.4,-3.1 14,-0.8 4.2,1.1 9.5,0.3 1.9,1.4 1.6,2.2 -6.5,1.3 -13.9,3.6 -9.2,3.7 z"
     id="path26" />
  <path
     class="Canada"
     data-code="ca"
     d="m 529.4,36.9 -4.1,1.9 -5.2,-0.4 -3.2,-1.3 4.5,-2.2 6.9,-1.4 1.4,1.8 z"
     id="path27" />
  <path
     class="Canada"
     data-code="ca"
     d="m 520.6,28.2 0.2,2.3 -2.8,2.5 -5.8,3.8 -6.9,0.5 -3.2,-0.8 3.4,-2.9 -6.6,0.3 4.3,-3.8 3.8,0.2 7.7,-1.7 4.9,0.3 z"
     id="path28" />
  <path
     class="Canada"
     data-code="ca"
     d="m 481.2,30.8 -0.7,1.7 4.4,-0.8 3.6,0.2 -2.3,2.5 -5.1,2.3 -13.9,0.8 -12.3,2.2 -6,0.1 1.5,-1.6 10.7,-2.3 -17.9,0.6 -4.2,-0.9 11.7,-4.8 5.4,-1.4 8.3,1.7 2.9,2.9 6.1,0.4 0.7,-4.7 5.8,-1.8 3.1,0.5 z"
     id="path29" />
  <path
     class="Canada"
     data-code="ca"
     d="m 536.9,26.4 2.3,1.6 h 7.4 l 1.4,1.6 -2.8,1.8 3.1,1.1 1.2,1.2 4.9,0.2 5.1,0.4 7.1,-1 8.1,-0.5 5.8,0.4 2.3,1.9 -1,2 -3.6,1.4 -6.7,1.1 -4.3,-0.7 -11.8,0.8 -8,0.1 -5.6,-0.6 -8.6,-1.6 1.6,-2.8 2.1,-2.4 -1.4,-2.2 -7,-0.6 -2.6,-1.5 3.8,-2 z"
     id="path30" />
  <path
     class="Canada"
     data-code="ca"
     d="m 461.2,23.8 -5.8,3.7 -5.3,1.7 -3.8,0.2 -9.9,2.1 -7.1,0.8 -3.6,-1.1 11.7,-3.7 12.2,-3.1 5.5,0.1 z"
     id="path31" />
  <path
     class="Canada"
     data-code="ca"
     d="m 542.4,24.4 -1.8,0.1 -6.6,-0.3 0.7,-1.3 7.2,0.1 1.6,0.8 z"
     id="path32" />
  <path
     class="Canada"
     data-code="ca"
     d="m 483.6,23.5 -8.8,1.4 -3.3,-1.5 5.1,-1.5 6,-0.5 4.1,0.7 z"
     id="path33" />
  <path
     class="Canada"
     data-code="ca"
     d="m 491.4,19.3 -5.7,0.9 h -6 l 1,-0.7 5.7,-1.3 1.7,0.2 z"
     id="path34" />
  <path
     class="Canada"
     data-code="ca"
     d="m 538.2,21.8 -6.6,1 -1.6,-1.1 0.6,-1.7 2.2,-1.9 4.4,0.2 1.7,0.3 2.3,1.6 z"
     id="path35" />
  <path
     class="Canada"
     data-code="ca"
     d="m 524.4,20.6 -1.1,1.9 -5.3,-0.5 -4,-1.5 -7.8,-0.2 5.3,-1.3 -2.8,-1.1 2.2,-1.8 6.1,0.6 7.5,1.7 z"
     id="path36" />
  <path
     class="Canada"
     data-code="ca"
     d="m 578.5,14.5 2.7,1.5 -6.5,1.3 -10.6,3.5 -6.8,0.3 -6.8,-0.6 -1.6,-1.9 2.1,-1.6 4.3,-1.2 h -6.6 l -2,-1.5 0.4,-1.9 4.9,-1.9 4.1,-1.3 4,-0.3 -0.3,-1 8.3,-0.2 1.6,2.2 4.7,0.9 4.8,0.9 z"
     id="path37" />
  <path
     class="Canada"
     data-code="ca"
     d="m 657.7,0.49999999 8.7,0.3 L 673.1,1.3 l 5.2,1 -1.1,1 -9.8,1.7 -9,0.8 -4,0.9 h 7.5 l -10.5,2.5 -6.8,1.2 -9.3,3.5 -8.1,0.7 -3.1,1 -11.3,0.4 4.4,0.6 -3.3,0.8 0.7,2.3 -5,1.6 -6.9,1.3 -3.5,1.8 -6.6,1.5 -0.5,1.1 6.5,-0.2 -1.1,1.2 -12.7,2.9 -8.5,-1.4 -11.7,0.8 -5,-0.6 -6.8,-0.3 2.1,-2.3 8,-1.1 2,-3.4 2.6,-0.3 7.5,2 -1.7,-3 -4.9,-0.9 5,-1.8 7.6,-1.1 2.8,-1.6 -3,-1.7 1.1,-2.2 9.4,0.1 2.2,0.5 7.3,-1.6 -7.3,-0.5 -12.6,0.3 -4.4,-1.4 -0.8,-1.7 -2.5,-1.2 1.1,-1.3 6,-0.8 4.2,-0.1 7.4,-0.6 6.8,-1.5 3.9,0.2 2.4,1.1 5,-2 5.2,-0.60000001 6.5,-0.4 10.4,-0.2 1.3,0.4 10.3,-0.6 7,0.2 z"
     id="path38" />
  <path
     d="m 415.1,429.2 1.2,3.5 2,2.6 2.5,2.7 -2.2,0.6 -0.1,2.6 1.1,0.9 -0.9,0.8 0.2,1.1 -0.6,1.3 -0.3,1.3 -3,-1.4 -1.1,-1.4 0.7,-1.1 -0.1,-1.4 -1.5,-1.5 -2.2,-1.3 -1.8,-0.8 -0.3,-1.9 -1.4,-1.1 0.2,1.8 -1.2,1.6 -1.2,-1.8 -1.7,-0.7 -0.7,-1.2 0.1,-2 0.9,-2 -1.5,-0.9 1.4,-1.3 0.9,-0.8 3.6,1.7 1.3,-0.8 1.8,0.5 0.8,1.3 1.7,0.5 z"
     id="CR"
     name="Costa Rica"
     data-code="cr" />
  <path
     d="m 445.3,353.3 1.9,2.3 5.2,-0.7 1.8,1.5 4.2,4 3.2,2.9 1.8,-0.1 3.2,1.3 -0.6,1.8 4,0.3 3.9,2.6 -0.8,1.5 -3.8,0.8 -3.8,0.3 -3.7,-0.5 -8.1,0.6 4.2,-3.5 -2.1,-1.7 -3.6,-0.4 -1.7,-1.9 -0.8,-3.6 -3.2,0.2 -5,-1.7 -1.5,-1.4 -7.1,-1 -1.8,-1.2 2.3,-1.6 -5.4,-0.3 -4.4,3.3 -2.3,0.1 -1,1.6 -2.8,0.7 -2.3,-0.7 3.2,-1.9 1.5,-2.4 2.7,-1.4 3,-1.2 4.3,-0.6 1.4,-0.8 4.7,0.5 4.4,0.1 z"
     id="CU"
     name="Cuba"
     data-code="cu" />
  <path
     d="m 486.2,383.6 0.3,-1.8 -1.3,-1.9 1.5,-1.1 0.7,-2.5 -0.1,-3.4 0.8,-1.1 h 4.3 l 3.2,1.6 1.5,-0.1 0.7,2.3 3.1,-0.2 -0.4,1.9 2.5,0.3 2.5,2.3 -2.3,2.6 -2.6,-1.4 -2.6,0.3 -1.8,-0.3 -1.1,1.2 -2.2,0.4 -0.7,-1.6 -1.9,0.9 -2.7,4.4 -1.3,-1 z"
     id="DO"
     name="Dominican Republic"
     data-code="do" />
  <path
     d="m 388.6,385.1 -0.7,5.1 -1.3,7.2 h 1.7 l 1.7,1.2 0.6,-1 1.5,0.8 -2.8,2.5 -2.9,1.8 -0.5,1.2 0.3,1.3 -1.3,1.6 -1.4,0.4 0.3,0.8 -1.2,0.7 -2,1.6 -0.3,0.9 -2.8,-1.1 -3.5,-0.1 -2.4,-1.3 -2.8,-2.6 0.4,-1.9 0.8,-1.5 -0.7,-1.2 3.3,-5.2 h 7.2 l 0.4,-2.2 -0.8,-0.4 -0.5,-1.4 -1.9,-1.5 -1.8,-2.1 2.5,-0.1 0.5,-3.6 h 5.2 z"
     id="GT"
     name="Guatemala"
     data-code="gt" />
  <path
     d="m 420.1,403.1 -1.9,-0.1 -0.9,0.9 -2,0.8 h -1.4 l -1.3,0.8 -1.1,-0.2 -0.9,-1 -0.6,0.2 -0.9,1.5 -0.5,-0.1 -0.2,1.4 -2.1,1.7 -1.2,0.8 -0.6,0.8 -1.5,-1.3 -1.4,1.7 h -1.2 l -1.3,0.1 -0.2,3.2 h -0.8 l -0.8,1.5 -1.8,0.3 -0.8,-2 -1.7,-0.6 0.7,-2.6 -0.7,-0.7 -1.2,-0.4 -2.5,0.7 -0.1,-0.8 -1.6,-1.1 -1.1,-1.2 -1.6,-0.6 1.3,-1.6 -0.3,-1.3 0.5,-1.2 2.9,-1.8 2.8,-2.5 0.6,0.3 1.3,-1.1 1.6,-0.1 0.5,0.5 0.9,-0.3 2.6,0.6 2.6,-0.2 1.8,-0.7 0.8,-0.7 1.7,0.3 1.3,0.4 1.5,-0.1 1.2,-0.6 2.5,0.9 0.8,0.2 1.6,1.2 1.5,1.4 1.9,1 z"
     id="HN"
     name="Honduras"
     data-code="hn" />
  <path
     d="m 487.3,372.9 0.1,3.4 -0.7,2.5 -1.5,1.1 1.3,1.9 -0.3,1.8 -3.6,-1.1 -2.7,0.4 -3.4,-0.4 -2.7,1.2 -2.8,-2 0.7,-2.1 5.1,0.9 4.1,0.5 2.2,-1.4 -2.3,-2.8 0.4,-2.5 -3.5,-1 1.5,-1.7 3.4,0.2 z"
     id="HT"
     name="Haiti"
     data-code="ht" />
  <path
     d="m 457,384.7 -1.8,1.1 -3,-1.1 -2.9,-2.3 0.8,-1.5 2.4,-0.4 1.3,0.2 3.7,0.6 2.7,1.5 0.8,1.8 z"
     id="JM"
     name="Jamaica"
     data-code="jm" />
  <path
     d="m 349.8,333.5 2.2,-0.2 -3.2,5.7 -1.8,4.6 -1.8,8.6 -1.1,3.1 0.4,3.5 1.3,3.2 0.4,4.9 3,4.8 0.8,3.7 1.7,3.1 5.7,1.7 1.9,2.7 5.2,-1.8 4.3,-0.6 4.4,-1.2 3.6,-1.1 3.9,-2.6 1.8,-3.7 1.2,-5.4 1.2,-1.9 4,-1.7 6.1,-1.5 4.9,0.3 3.4,-0.6 1.2,1.4 -0.6,3.1 -3.5,3.8 -1.8,3.9 0.9,1.1 -1.2,2.8 -2.1,5 -1.2,-1.7 -1.1,0.1 -1.1,0.1 -2.5,3.9 -0.9,-0.8 -0.7,0.3 -0.1,1 -5.2,-0.1 h -5.2 l -0.5,3.6 -2.5,0.1 1.8,2.1 1.9,1.5 0.5,1.4 0.8,0.4 -0.4,2.2 h -7.2 l -3.3,5.2 0.7,1.2 -0.8,1.5 -0.4,1.9 -5.6,-6.9 -2.6,-2.1 -4.4,-1.7 -3.2,0.5 -4.8,2.4 -2.9,0.6 -3.7,-1.7 -4.1,-1.2 -4.8,-2.9 -4.1,-0.9 -5.9,-3 -4.3,-3.1 -1.1,-1.7 -3.1,-0.4 -5.4,-2 -1.9,-2.9 -5.4,-3.7 -2.2,-4 -0.8,-3.2 1.9,-0.6 -0.3,-1.8 1.6,-1.7 0.4,-2.2 -1.5,-2.9 v -2.5 l -1.3,-3.3 -3.8,-6.4 -4.6,-5 -1.9,-4 -4.1,-2.6 -0.7,-1.6 1.7,-3.9 -2.4,-1.5 -2.5,-3.2 -0.2,-4.4 -2.8,-0.6 -2.3,-3.3 -1.7,-3.2 0.3,-2 -1.5,-4.8 -0.3,-4.9 0.8,-2.5 -3.1,-2.6 -1.9,0.3 -2.4,-1.7 -1.8,2.6 -0.1,3 -1,4.9 1,2.6 2.8,4.4 0.4,1.6 0.7,0.4 0.1,2.2 1,-0.1 v 4.2 l 1.3,1.6 0.5,2.3 2.7,3.2 0.4,6 1,2.8 0.9,3 -0.3,3.4 2.6,0.2 1.6,2.9 1.5,2.9 -0.3,1.2 -2.8,2.3 h -1 l -0.7,-3.9 -2.9,-3.7 -3.4,-3.1 -2.5,-1.6 1.2,-4.7 -0.1,-3.5 -2.1,-2 -3.1,-2.8 -0.9,0.8 -1,-1.7 -3,-1.5 -2.2,-3.8 0.5,-0.4 2.1,0.3 2.7,-2.4 1,-2.9 -2.9,-4.6 -2.6,-1.7 -0.8,-4 -0.6,-4.3 -0.8,-5.1 -0.2,-5.8 6.3,-0.5 7.1,-0.7 -0.9,1.3 7,3.1 10.9,4.5 h 10.8 4.3 l 0.8,-2.7 h 9.4 l 1.3,2.3 2.1,2.1 2.4,2.8 0.8,3.3 0.4,3.6 2.3,1.9 4,1.9 4.8,-5 4.5,-0.2 3.2,2.6 1.6,4.4 0.9,3.8 2.4,3.6 0.2,4.5 0.9,3 3.9,2 z"
     id="MX"
     name="Mexico"
     data-code="mx" />
  <path
     d="m 420.1,403.1 -0.5,0.7 -0.5,1.4 0.4,2.3 -1.5,2.2 -0.8,2.6 -0.5,2.8 0.2,1.7 -0.1,2.9 -0.9,0.6 -0.7,2.8 0.2,1.7 -1.2,1.6 0.1,1.7 0.8,1.1 -1.4,1.4 -1.7,-0.5 -0.8,-1.3 -1.8,-0.5 -1.3,0.8 -3.6,-1.7 -0.9,0.8 -1.8,-2 -2.5,-2.6 -1.1,-2.1 -2.2,-2.1 -2.5,-2.9 0.7,-1 0.8,1 0.5,-0.4 1.8,-0.3 0.8,-1.5 h 0.8 l 0.2,-3.2 1.3,-0.1 h 1.2 l 1.4,-1.7 1.5,1.3 0.6,-0.8 1.2,-0.8 2.1,-1.7 0.2,-1.4 0.5,0.1 0.9,-1.5 0.6,-0.2 0.9,1 1.1,0.2 1.3,-0.8 h 1.4 l 2,-0.8 0.9,-0.9 z"
     id="NI"
     name="Nicaragua"
     data-code="ni" />
  <path
     d="m 449.8,443.8 -0.7,0.9 1.1,3.8 -1.1,1.9 -1.8,-0.5 -0.9,3.1 -1.8,-1.8 -1,-3.5 1.4,-1.7 -1.4,-0.4 -0.9,-2.1 -2.8,-1.8 -2.4,0.4 -1.3,2.2 -2.4,1.6 -1.2,0.2 -0.6,1.4 2.5,3.5 -1.6,0.8 -0.8,0.9 -2.7,0.4 -0.8,-3.9 -0.8,1.1 -1.8,-0.4 -1,-2.5 -2.3,-0.5 -1.5,-0.7 h -2.4 l -0.2,1.4 -0.6,-1 0.3,-1.3 0.6,-1.3 -0.2,-1.1 0.9,-0.8 -1.1,-0.9 0.1,-2.6 2.2,-0.6 1.9,2.3 -0.2,1.4 2.2,0.3 0.6,-0.6 1.5,1.6 2.8,-0.5 2.5,-1.6 3.5,-1.3 2,-1.9 3.1,0.4 -0.2,0.6 3.1,0.2 2.4,1.2 1.8,1.9 z"
     id="PA"
     name="Panama"
     data-code="pa" />
  <path
     d="m 393,413.5 -0.7,1.5 -3.3,-0.1 -2,-0.6 -2.2,-1.3 -3,-0.4 -1.5,-1.4 0.3,-0.9 2,-1.6 1.2,-0.7 -0.3,-0.8 1.4,-0.4 1.6,0.6 1.1,1.2 1.6,1.1 0.1,0.8 2.5,-0.7 1.2,0.4 0.7,0.7 z"
     id="SV"
     name="El Salvador"
     data-code="sv" />
  <path
     class="United States"
     data-code="us"
     d="m 19.299995,376.9 -1.1,1.1 -1.2,-0.9 0.6,-1.8 -0.4,-2.4 0.5,-0.7 1.2,-1 -0.1,-1.3 0.4,-0.6 0.4,0.1 1.9,1.1 0.9,0.6 0.7,0.8 0.9,2.3 -0.2,0.3 -2.5,1.4 z"
     id="path103" />
  <path
     class="United States"
     data-code="us"
     d="m 18.599995,366.9 -2,0.4 -0.6,-1.3 -0.5,-0.5 v -0.4 l 0.7,-0.6 1.8,0.6 1.2,1 z"
     id="path104" />
  <path
     class="United States"
     data-code="us"
     d="m 15.599995,363.5 -0.3,0.7 -3,-0.2 0.6,-0.8 z"
     id="path105" />
  <path
     class="United States"
     data-code="us"
     d="m 10.899995,362.5 -0.4,0.4 -0.4,-0.1 -1.8999995,-0.2 -0.3,-1.5 -0.2,-0.2 1.7,-0.9 0.4,0.4 z"
     id="path106" />
  <path
     class="United States"
     data-code="us"
     d="m 2.4999955,358.3 -0.8,0.6 -1.60000002,-1.1 0.4,-0.5 1.00000002,-0.6 1.3,0.1 z"
     id="path107" />
  <path
     class="United States"
     data-code="us"
     d="m 440,192.1 -6.1,2 -4.7,2.5 -4.6,2.7 -0.5,0.9 5.7,-1.3 2.1,2.1 4.6,-1.5 4.9,-2.1 5.4,-2.1 -3.1,3.3 2.5,0.8 2.5,2.4 5.1,-1.4 5.1,-0.5 0.3,1.8 1.5,0.2 1.2,0.2 1.5,2.5 -4.7,0.6 h -0.1 l -3.7,-0.7 -4.5,1.2 -3.7,0.6 -4.7,4.1 -3,2.3 0.4,0.7 5.5,-4.1 h 0.7 l -4.7,4.9 -2.9,4.4 -2.5,3.6 -0.6,3.1 -0.8,1.5 -0.6,1.7 0.1,3.3 0.3,0.5 1.8,-0.1 1.6,-0.7 1.4,-0.8 3.3,-3.1 1.8,-4.2 -0.1,-3.9 1.4,-2.7 2.6,-3.1 2.1,-2.2 2.7,-1.5 -0.4,2.1 2.2,-3.1 1.3,-0.6 1.7,-2.4 3.8,1.3 2.8,2.4 -0.8,2.9 -1.6,2.9 -3.8,2.5 -0.4,1.6 h 1 l 4.3,-2.7 1.6,0.6 -0.5,3.7 -0.7,2.6 -3.7,3.5 -2,2.2 -2.7,2.4 2.7,1.3 2.5,0.4 4,-0.9 3.7,-1.7 3,-0.9 4.6,-1.8 5.8,-3.8 0.1,-0.6 0.3,-1.9 2.7,-0.8 3.9,0.3 4,0.5 4.6,-2.1 0.6,-2.5 -0.2,-0.9 6.8,-4.4 2.7,-1.1 7.8,-0.1 h 9.3 l 1.1,-1.5 1.7,-0.3 2.5,-1 2.8,-2.9 3.2,-4.9 5.5,-4.7 1.1,1.6 3.7,-1 1.6,1.8 -2.9,8.5 2.2,3.6 0.2,2.1 -6.4,3 -6,2.2 -6,1.9 -4,3.8 -1.3,1.4 -1.2,3.4 0.7,3.3 2.1,0.2 0.2,-2.3 1.1,1.4 -1,1.8 -3.8,1 -2.5,-0.1 -4.2,1.1 -2.3,0.3 -3.1,0.3 -5,1.9 8.1,-1.2 1.1,1.2 -7.9,1.9 h -3.3 l 0.4,-0.8 -2.1,1.8 1.4,0.3 -2.5,4.6 -5.3,4.9 0.1,-1.7 -1.1,-0.3 -1.2,-1.6 v 3.5 l 1,1.1 -0.6,2.4 -2.4,2.5 -4.5,5.1 -0.4,-0.2 2.9,-4.4 -2,-2.4 1,-5.4 -1.9,2.8 v 4.1 l -3.2,-1 3,2 -1.5,6.1 1.4,0.5 v 2.2 l -1,6.4 -4.6,4.7 -6.1,1.9 -4.4,3.8 -2.8,0.4 -3.4,2.4 -1.3,2.1 -6.9,4.2 -3.8,3.1 -3.5,3.8 -1.9,4.5 v 4.5 l 0.6,5.5 1.5,4.5 -0.5,2.8 1.3,7.4 -1,4.4 -0.6,2.5 -2,3.9 -1.8,0.8 -2.6,-0.8 -0.4,-2.8 -1.8,-1.5 -2,-5.5 -1.6,-4.9 -0.4,-2.5 2,-4.3 -0.8,-3.5 -3.1,-5.4 -1.9,-1 -6.1,3 -0.9,-0.4 -2,-3 -3,-1.6 -6.4,0.9 -4.6,-0.8 -4.3,0.5 -2.5,1 0.6,1.7 -0.7,2.6 0.8,1.3 -1.2,0.8 -1.8,-0.9 -2.3,1.2 -3.9,-0.2 -3.3,-3.4 -4.9,0.8 -3.6,-1.5 -3.5,0.5 -5,1.5 -6.1,4.7 -6.1,2.8 -3.7,3 -1.9,2.9 -1,4.5 -0.4,3 0.6,2.2 -2.2,0.2 -3.6,-1.4 -3.9,-2 -0.9,-3 -0.2,-4.5 -2.4,-3.6 -0.9,-3.8 -1.6,-4.4 -3.2,-2.6 -4.5,0.2 -4.8,5 -4,-1.9 -2.3,-1.9 -0.4,-3.6 -0.8,-3.3 -2.4,-2.8 -2.1,-2.1 -1.3,-2.3 h -9.4 l -0.8,2.7 H 296 285.2 l -10.9,-4.5 -7,-3.1 0.9,-1.3 -7.1,0.7 -6.3,0.5 0.3,-3.2 -2.1,-3.7 -2.2,-0.8 0.1,-1.8 -2.9,-0.4 -1.2,-1.7 -4.8,-0.6 -0.9,-1.1 0.8,-3.5 -2.5,-6.4 -0.5,-8.9 0.9,-1.5 -1.3,-2.1 -1.5,-5.4 1.8,-5.2 -0.9,-3.5 3.9,-5.3 2.8,-5.4 1.1,-4.9 5.5,-6 4,-5.7 4,-5.7 4.3,-8.5 1.8,-5.3 0.4,-2.9 1.4,-1.3 5.8,2.2 -1,5.9 2.2,-1.7 2.5,-5.1 1.6,-5.1 h 14.1 14.7 4.8 15.1 14.7 14.8 14.9 16.8 17 10.2 l 1.3,-2.4 h 1.7 l -0.9,3.4 1,1 3.3,0.4 4.6,1 3.9,1.9 4.4,-0.8 z"
     id="path108" />
  <path
     class="United States"
     data-code="us"
     d="m 175.5,136.2 -7,2.3 -0.8,-1.6 2.3,-2.8 6.4,-2.1 3.5,-0.9 2.6,0.4 v 1.9 z"
     id="path109" />
  <path
     class="United States"
     d="m 136.5,119.6 -3.9,0.9 -1.7,-1.1 -0.8,-1.6 5.7,-1 3,0.6 z"
     id="path110" />
  <path
     class="United States"
     data-code="us"
     d="m 137.7,97.2 1.2,1 3.5,-0.5 1.6,1.5 3.3,0.7 -1.2,0.7 -4.9,1.2 -1.7,-1.3 -0.3,-1 -4.3,0.3 -0.3,-0.5 z"
     id="path111" />
  <path
     class="United States"
     data-code="us"
     d="m 310.5,64.2 -24.6,20.4 -35.6,32.7 4.2,0.2 2.8,1.6 0.5,2.6 0.3,3.8 7.6,-3.3 6.5,-1.9 -0.6,3.1 0.8,2.4 1.6,2.7 -1.1,4.2 -1.4,6.9 4.6,3.8 -3.2,3.8 -5.1,2.9 -0.6,-2.2 -2.5,-2 3.3,-5.2 -1.6,-4.9 2.7,-5.6 -4.1,-0.4 -7.1,-0.1 -3.8,-1.8 -3.3,-6.1 -3.3,-1.1 -5.7,-2.1 -6.8,0.5 -6,-2.7 -2.7,-2.5 -6.3,1.2 -3.5,4.1 -2.9,0.4 -6.6,1.2 -6.2,2 -6.4,1.3 3.2,-3.5 8.4,-5.8 6.8,-1.8 0.4,-1.4 -9.4,3.2 -7.4,3.9 -11.2,4.2 0.2,2.9 -9,4.2 -7.7,2.5 -6.6,1.9 -4,2.6 -10.6,3.1 -4.5,2.8 -8.2,2.6 -2.7,-0.4 -6.2,1.6 -7,2.1 -6.1,2 -10,1.8 0.4,-1.1 8.2,-2.8 6.6,-1.9 8.6,-3.3 6.5,-0.6 5,-2.5 10.4,-3.6 2.3,-1.2 5.7,-2.1 5.8,-4.5 6.2,-3.5 -7.3,1.8 -0.3,-1.1 -4.9,2.2 0.4,-3 -3.6,2.1 1.6,-2.9 -7.3,2.3 h -2.8 l 3.7,-3.5 3.3,-2.2 -0.4,-2.1 -7.2,1.2 -0.6,-2.8 -1.3,-1.4 4,-3.3 -0.4,-2.5 5.9,-3.3 7.7,-3.3 5.3,-2.9 4.1,-0.4 1.8,0.9 7.1,-2.8 2.5,0.5 5.6,-1.8 2.5,-2.6 -1.1,-1 6,-2.2 -2.8,0.1 -6.2,1.2 -2.9,1.3 -1.8,-1.3 -6.9,0.7 -4.6,-1.4 1.2,-2.3 -1,-3.2 9.2,-2.4 13.2,-2.7 h 3.5 l -4.3,2.8 9.2,-0.2 1.2,-3.5 -2.3,-2.1 0.8,-2.8 -0.7,-2.3 -3.3,-1.7 6.5,-2.9 7.5,-0.2 8.8,-2.4 4.8,-2.6 7.9,-2.6 4.8,-0.6 11.2,-2.4 3.1,0.4 10.4,-2.8 4.4,1.1 -0.5,2.4 3.3,-1 6.3,0.3 -1.9,1.2 4.9,0.9 4.9,-0.5 6.2,1.6 7.2,0.6 2.2,0.6 6.6,-0.8 4.1,1.6 z"
     id="path112" />
  <path
     class="Puerto Rico"
     d="m 512.7,380.6 0.6,0.1 h 0.6 l 0.3,0.1 0.6,-0.1 0.3,0.1 0.4,-0.1 0.2,0.1 0.5,-0.1 0.4,0.1 h 0.3 l 0.8,0.2 v -0.2 l 0.6,0.2 0.1,-0.1 0.8,0.1 0.2,0.2 h 0.2 l 0.6,0.3 0.2,-0.1 -0.1,0.7 0.2,0.3 -0.9,0.3 -0.3,0.4 -0.3,0.6 -0.3,0.2 -0.3,0.1 H 518 l -0.6,0.1 -0.3,0.2 -0.7,-0.1 -0.2,-0.2 -0.5,0.2 -0.3,-0.3 -0.7,0.2 -0.9,-0.1 -0.3,0.1 -0.6,0.1 -0.2,0.1 -0.2,-0.2 -0.4,-0.1 -0.3,0.2 -0.6,-0.1 0.3,-0.7 V 383 l 0.2,-0.4 -0.2,-0.6 -0.2,-0.1 -0.1,-0.4 0.4,-0.2 0.2,-0.1 v -0.5 l 0.4,-0.2 z"
     id="path195"
     data-code="pr" />
  <circle
     cx="898.40002"
     cy="186.70001"
     id="0"
     r="0" />
  <circle
     cx="574"
     cy="721.69995"
     id="1"
     r="0" />
  <circle
     cx="1698.7"
     cy="716.89996"
     id="2"
     r="0" />
</svg>
