<?xml version="1.0" encoding="UTF-8" standalone="no"?>
<!--
*************Map created by Simplemaps.com********************		
*************Attribution is highly appreciated!***************
*************http://simplemaps.com****************************

The MIT License (MIT)

Copyright (c) 2020 Pareto Softare, LLC DBA Simplemaps.com

Permission is hereby granted, free of charge, to any person obtaining a copy
of this software and associated documentation files (the "Software"), to deal
in the Software without restriction, including without limitation the rights
to use, copy, modify, merge, publish, distribute, sublicense, and/or sell
copies of the Software, and to permit persons to whom the Software is
furnished to do so, subject to the following conditions:

The above copyright notice and this permission notice shall be included in
all copies or substantial portions of the Software.

THE SOFTWARE IS PROVIDED "AS IS", WITHOUT WARRANTY OF ANY KIND, EXPRESS OR
IMPLIED, INCLUDING BUT NOT LIMITED TO THE WARRANTIES OF MERCHANTABILITY,
FITNESS FOR A PARTICULAR PURPOSE AND NONINFRINGEMENT. IN NO EVENT SHALL THE
AUTHORS OR COPYRIGHT HOLDERS BE LIABLE FOR ANY CLAIM, DAMAGES OR OTHER
LIABILITY, WHETHER IN AN ACTION OF CONTRACT, TORT OR OTHERWISE, ARISING FROM,
OUT OF OR IN CONNECTION WITH THE SOFTWARE OR THE USE OR OTHER DEALINGS IN
THE SOFTWARE.

-->

<svg
   baseprofile="tiny"
   fill="#ececec"
   height="434.20001"
   stroke="#000000"
   stroke-linecap="round"
   stroke-linejoin="round"
   stroke-width="0.2"
   version="1.2"
   viewBox="0 0 250 500"
   width="264.89999"
   id="svg301"
   sodipodi:docname="suedamerika.svg"
   inkscape:version="1.4.2 (ebf0e940, 2025-05-08)"
   xmlns:inkscape="http://www.inkscape.org/namespaces/inkscape"
   xmlns:sodipodi="http://sodipodi.sourceforge.net/DTD/sodipodi-0.dtd"
   xmlns="http://www.w3.org/2000/svg"
   xmlns:svg="http://www.w3.org/2000/svg">
  <defs
     id="defs301" />
  <sodipodi:namedview
     id="namedview301"
     pagecolor="#ffffff"
     bordercolor="#000000"
     borderopacity="0.25"
     inkscape:showpageshadow="2"
     inkscape:pageopacity="0.0"
     inkscape:pagecheckerboard="0"
     inkscape:deskcolor="#d1d1d1"
     showgrid="false"
     inkscape:zoom="0.36214985"
     inkscape:cx="66.270909"
     inkscape:cy="128.39989"
     inkscape:window-width="1056"
     inkscape:window-height="708"
     inkscape:window-x="242"
     inkscape:window-y="59"
     inkscape:window-maximized="0"
     inkscape:current-layer="svg301" />
  <path
     class="Argentina"
     data-code="ar"
     d="m 143.9,429.8 -3,-0.2 h -5 l -6,-13.6 3.1,2.8 4.3,4.6 7.8,3.7 7.3,1.5 -0.8,3 -4.4,0.3 z"
     id="path3" />
  <path
     class="Argentina"
     data-code="ar"
     d="m 113.4,222.8 11.3,10.4 4.6,1 7.3,4.8 5.9,2.5 1.1,2.8 -4.2,9.8 5.8,1.7 6.3,1 4.2,-1 4.3,-5 0.3,-5.6 2.6,-1.3 3.2,3.8 0.4,5.1 -4.2,3.5 -3.3,2.6 -5.3,6.3 -6,8.7 -0.5,5.2 -0.4,6.6 1.2,6.4 -0.9,1.4 0.4,4.1 0.3,3.4 7.8,5.5 0.2,4.4 3.9,2.8 0.3,3.1 -3.3,8.2 -7,3.5 -10.2,1.3 -6,-0.7 2.1,3.9 0.1,4.7 1.8,3.2 -2.5,2.3 -5.1,0.9 -5.6,-2.4 -1.5,1.7 2.5,6.3 4,1.9 2.3,-2 2.5,3.3 -4.2,2 -2.9,4 1.2,6.3 -0.1,3.4 h -4.8 l -3,3.2 0.1,4.8 6.5,4.6 5.2,1.2 0.2,5.7 -4.6,3.5 -0.6,7.3 -3.5,2.4 -0.9,2.9 4.2,6.5 4.6,3.5 -2.1,-0.3 -4.9,-1 -12.1,-0.8 -3.5,-3.6 -1.9,-4.6 -3.1,0.4 -2.6,-2.3 -3.100001,-6.5 2.700001,-2.8 0.1,-3.9 -1.800001,-3.2 0.7,-5.4 -1.1,-8.3 -1.8,-3.7 1.8,-1.2 -1.4,-2.4 -2.8,-1.2 0.8,-2.7 -3.1,-2.4 -3.7,-7.3 1.7,-1.3 -3.3,-7.8 -0.8,-6.5 -0.2,-5.7 2.5,-2.3 -3.3,-6.3 -1.6,-5.8 3,-4.2 -1.4,-5.4 1.6,-6.2 -1.4,-5.9 -1.6,-1.2 -4.9,-11.1 2.1,-6.6 -1.7,-6.2 0.9,-5.9 2.6,-6 3.3,-4 -2,-2.5 0.8,-2.1 -1.6,-10.7 5.6,-3.1 1.2,-6.7 -0.9,-1.6 4,-5.8 7.500001,1.6 3.7,4.6 1.6,-5.2 6.4,0.3 z"
     id="path4" />
  <path
     d="m 137.3,209.5 -0.3,-2 -5.4,-3.3 -5.2,-0.1 -9.6,1.9 -2.1,5.6 0.2,3.5 -1.5,7.7 -1,-1.4 -6.4,-0.3 -1.6,5.2 -3.7,-4.6 -7.500001,-1.6 -4,5.8 -3.9,0.9 -3.1,-8.9 -3.7,-7.2 1.1,-6.2 -3.2,-2.7 -1.2,-4.6 -3.2,-4.4 2.9,-6.9 -2.9,-5.4 1.1,-2.2 -1.2,-2.4 1.9,-3.2 -0.3,-5.4 v -4.6 l 1.1,-2.1 -5.5,-10.4 4.2,0.6 2.9,-0.2 1.1,-1.9 4.8,-2.6 2.9,-2.4 7.3,-1.1 -0.4,4.8 0.9,2.5 -0.3,4.3 6.5,5.7 6.400001,1.1 2.3,2.4 3.9,1.3 2.5,1.8 h 3.5 l 3.4,1.9 0.5,3.7 1.2,1.9 0.3,2.7 -1.7,0.1 2.8,7.5 10.7,0.3 -0.5,3.7 0.8,2.5 3.2,1.8 1.7,4 -0.6,5.1 -1.3,2.8 0.8,3.6 z"
     id="BO"
     name="Bolivia"
     data-code="bo" />
  <path
     d="m 140.6,67.699999 3.1,0.6 0.6,-1.4 -1,-1.2 0.6,-1.9 2.3,0.6 2.7,-0.7 3.2,1.4 2.5,1.3 1.7,-1.7 1.3,0.2 0.8,1.8 2.7,-0.4 2.2,-2.5 1.8,-4.7 3.4,-5.9 2,-0.3 1.3,3.6 3,11.2 3.1,1.1 0.1,4.4 -4.3,5.3 1.7,1.9 10.1,1 0.2,6.5 4.3,-4.2 7.1,2.3 9.5,3.9 2.8,3.7 -0.9,3.6 6.6,-2 11,3.4 8.5,-0.2 8.4,5.300001 7.4,7.2 4.4,1.8 4.8,0.3 2.1,2 2,8.2 1.1,3.9 -2.1,10.6 -2.7,4.2 -7.7,8.9 -3.4,7.3 -4,5.5 -1.4,0.2 -1.3,4.7 0.9,12 -1.1,9.9 -0.3,4.2 -1.6,2.6 -0.5,8.6 -5.2,8.3 -0.5,6.7 -4.3,2.7 -1.1,3.9 h -6 l -8.5,2.4 -3.7,2.9 -6,1.9 -6.1,5.1 -4.1,6.4 -0.3,4.8 1.3,3.5 -0.3,6.5 -0.8,3.1 -3.4,3.6 -4.5,11.3 -4,5 -3.2,3.1 -1.5,6.1 -2.9,3.6 -2.1,-3.6 1.8,-3.1 -3.8,-4.3 -4.8,-3.6 -6.3,-4.1 -1.9,0.2 -6.3,-5 -3.4,0.7 6,-8.7 5.3,-6.3 3.3,-2.6 4.2,-3.5 -0.4,-5.1 -3.2,-3.8 -2.6,1.3 0.7,-3.7 0.3,-3.8 -0.3,-3.6 -2.1,-1.1 -2,1 -2.1,-0.3 -0.8,-2.4 -1.1,-5.9 -1.2,-1.9 -3.9,-1.8 -2.2,1.3 -5.9,-1.3 -0.4,-8.7 -2,-3.5 1.6,-1.4 -0.8,-3.6 1.3,-2.8 0.6,-5.1 -1.7,-4 -3.2,-1.8 -0.8,-2.5 0.5,-3.7 -10.7,-0.3 -2.8,-7.5 1.7,-0.1 -0.3,-2.7 -1.2,-1.9 -0.5,-3.7 -3.4,-1.9 h -3.5 l -2.5,-1.8 -3.9,-1.3 -2.3,-2.4 -6.400001,-1.1 -6.5,-5.7 0.3,-4.3 -0.9,-2.5 0.4,-4.8 -7.3,1.1 -2.9,2.4 -4.8,2.6 -1.1,1.9 -2.9,0.2 -4.2,-0.6 -3.2,1.1 -2.6,-0.7 -0.1,-9.7 -4.4,3.7 -5,-0.1 -2.3,-3.5 -3.8,-0.3 1,-2.8 -3.3,-3.9 -2.6,-5.8 1.5,-1.1 -0.2,-2.8 3.4,-1.8 -0.7,-3.5 1.4,-2.2 0.3,-3 6.3,-4.4 4.6,-1.2 0.8,-1 5.1,0.3 2.2,-17.600001 0.1,-2.8 -0.9,-3.6 -2.6,-2.4 0.1,-4.7 3.2,-1 1.1,0.7 0.2,-2.5 -3.3,-0.7 v -4 l 11,0.2 1.9,-2.3 1.6,2.1 1,3.8 1.1,-0.8 3.1,3.4 4.4,-0.4 1.1,-2 4.2,-1.5 2.4,-1.1 0.7,-2.7 4.100001,-1.8 -0.3,-1.4 -4.800001,-0.5 -0.7,-4.1 0.3,-4.3 -2.5,-1.6 1.1,-0.6 4.1,0.8 4.500001,1.6 1.7,-1.5 4.1,-1 6.4,-2.4 2.1,-2.5 -0.7,-1.8 3,-0.2 1.2,1.4 -0.8,2.9 2,0.9 1.2,3 -1.6,2.3 -1,5.4 1.4,3.3 0.3,3 3.5,3 2.8,0.3 0.6,-1.3 1.8,-0.3 2.6,-1.1 1.8,-1.7 3.2,0.6 z"
     id="BR"
     name="Brazil"
     data-code="br" />
  <path
     d="m 59.199999,4.2999991 -3.7,1.1 -1.6,3.2 -2.3,1.7999999 -1.8,2.4 -0.9,4.6 -1.8,3.8 2.9,0.4 0.6,2.9 1.2,1.5 0.3,2.5 -0.7,2.4 0.1,1.4 1.4,0.5 1.2,2.2 7.3,-0.6 3.3,0.8 3.8,5.6 2.3,-0.7 4.1,0.3 3.2,-0.7 2,1.1 -1.2,3.4 -1.3,2.2 -0.6,4.6 1.1,4.3 1.5,1.9 0.2,1.4 -2.9,3.2 2,1.4 1.5,2.3 1.6,6.4 -1.1,0.8 -1,-3.8 -1.6,-2.1 -1.9,2.3 -11,-0.2 v 4 l 3.3,0.7 -0.2,2.5 -1.1,-0.7 -3.2,1 -0.1,4.7 2.6,2.4 0.9,3.6 -0.1,2.8 -2.2,17.600001 -2.9,-3.4 -1.7,-0.1 3.5,-6.600001 -4.4,-3 -3.4,0.6 -2.1,-1.1 -3.1,1.7 -4.2,-0.9 -3.5,-6.7 -2.6,-1.6 -1.8,-3.1 -3.8,-3 -1.5,0.6 -2.4,-1.5 -2.8,-2.1 -1.6,1 -4.8,-0.9 -1.4,-2.8 -1.1,0.1 -5.6,-3.6 -0.7,-2 2.1,-0.5 -0.2,-3.2 1.4,-2.4 2.8,-0.4 2.5,-4 2.2,-3.4 -2,-1.5 1.2,-3.7 -1.1,-5.9 1.3,-1.7 -0.7,-5.4 -2.2,-3.5 0.9,-3.1 1.8,0.5 1.1,-1.9 -1.1,-3.8 0.7,-0.9 2.9,0.2 4.5,-4.5 2.4,-0.7 0.1,-2.1 1.4,-5.5 3.4,-2.8999999 3.5,-0.2 0.6,-1.3 4.4,0.5 4.6,-3.2 2.3,-1.4 2.9,-3.1 2,0.4 1.3,1.7 z"
     id="CO"
     name="Colombia"
     data-code="co" />
  <path
     d="m 33.799999,80.899999 0.8,4.9 -1.7,4.1 -6.1,6.8 -6.7,2.5 -3.4,5.600001 -0.9,4.3 -3.1,2.7 -2.5,-3.3 -2.2999999,-0.7 -2.3,0.5 -0.3,-2.3 1.6,-1.5 -0.7,-2.7 2.9,-4.800001 -1.3,-2.8 -2.1,3 -3.5,-2.9 1.1,-1.8 -1,-5.8 2,-1 1,-4 2.1,-4.1 -0.3,-2.6 3.0999999,-1.4 3.9,-2.5 5.6,3.6 1.1,-0.1 1.4,2.8 4.8,0.9 1.6,-1 2.8,2.1 z"
     id="EC"
     name="Ecuador"
     data-code="ec" />
  <path
     d="m 137.7,41.599999 -1,5.8 -3.5,1.6 0.3,1.5 -1.1,3.4 2.4,4.6 h 1.8 l 0.7,3.6 3.3,5.6 -1.3,0.3 -3.2,-0.6 -1.8,1.7 -2.6,1.1 -1.8,0.3 -0.6,1.3 -2.8,-0.3 -3.5,-3 -0.3,-3 -1.4,-3.3 1,-5.4 1.6,-2.3 -1.2,-3 -2,-0.9 0.8,-2.9 -1.2,-1.4 -3,0.2 -3.7,-4.8 1.6,-1.8 v -3 l 3.5,-1 1.4,-1.2 -1.8,-2.4 0.5,-2.3 4.7,-3.8 3.6,2.4 3.3,4.1 0.1,3.4 2.1,0.1 3,3.1 z"
     id="GY"
     name="Guyana"
     data-code="gy" />
  <path
     d="m 65.299999,107.5 -5.1,-0.3 -0.8,1 -4.6,1.2 -6.3,4.4 -0.3,3 -1.4,2.2 0.7,3.5 -3.4,1.8 0.2,2.8 -1.5,1.1 2.6,5.8 3.3,3.9 -1,2.8 3.8,0.3 2.3,3.5 5,0.1 4.4,-3.7 0.1,9.7 2.6,0.7 3.2,-1.1 5.5,10.4 -1.1,2.1 v 4.6 l 0.3,5.4 -1.9,3.2 1.2,2.4 -1.1,2.2 2.9,5.4 -2.9,6.9 -1.1,3.3 -2.8,1.6 -5.9,-3.7 -0.8,-2.6 -11.7,-6.4 -10.7,-7.1 -4.7,-3.9 -2.8,-5.3 0.8,-1.9 -5.4,-8.4 -6.4,-11.8 -6,-12.8 -2.4,-3 -2,-4.7 -4.5999999,-4.2 -4.1,-2.6 1.7,-2.8 -2.99999997,-6.2 1.69999997,-4.5 4.4,-4 0.7,2.7 -1.6,1.5 0.3,2.3 2.3,-0.5 2.2999999,0.7 2.5,3.3 3.1,-2.7 0.9,-4.3 3.4,-5.600001 6.7,-2.5 6.1,-6.8 1.7,-4.1 -0.8,-4.9 1.5,-0.6 3.8,3 1.8,3.1 2.6,1.6 3.5,6.7 4.2,0.9 3.1,-1.7 2.1,1.1 3.4,-0.6 4.4,3 -3.5,6.600001 1.7,0.1 z"
     id="PE"
     name="Peru"
     data-code="pe" />
  <path
     d="m 137.3,209.5 2,3.5 0.4,8.7 5.9,1.3 2.2,-1.3 3.9,1.8 1.2,1.9 1.1,5.9 0.8,2.4 2.1,0.3 2,-1 2.1,1.1 0.3,3.6 -0.3,3.8 -0.7,3.7 -0.3,5.6 -4.3,5 -4.2,1 -6.3,-1 -5.8,-1.7 4.2,-9.8 -1.1,-2.8 -5.9,-2.5 -7.3,-4.8 -4.6,-1 -11.3,-10.4 1.5,-7.7 -0.2,-3.5 2.1,-5.6 9.6,-1.9 5.2,0.1 5.4,3.3 z"
     id="PY"
     name="Paraguay"
     data-code="py" />
  <path
     d="m 155.8,42.999999 -3.1,5.5 0.3,4.4 2.2,3.8 -1.1,2.7 -0.5,3 -1.5,2.7 -3.2,-1.4 -2.7,0.7 -2.3,-0.6 -0.6,1.9 1,1.2 -0.6,1.4 -3.1,-0.6 -3.3,-5.6 -0.7,-3.6 h -1.8 l -2.4,-4.6 1.1,-3.4 -0.3,-1.5 3.5,-1.6 1,-5.8 6.8,1.3 0.6,-1.2 4.6,-0.5 z"
     id="SR"
     name="Suriname"
     data-code="sr" />
  <path
     d="m 174.5,296.7 -1.6,4.1 -5.4,3.5 -4.2,-1.3 -2.8,0.7 -5.5,-2.7 -3.6,0.2 -3.9,-3.6 -0.4,-4.1 0.9,-1.4 -1.2,-6.4 0.4,-6.6 0.5,-5.2 3.4,-0.7 6.3,5 1.9,-0.2 6.3,4.1 4.8,3.6 3.8,4.3 -1.8,3.1 z"
     id="UY"
     name="Uruguay"
     data-code="uy" />
  <path
     d="m 123.5,26.199999 -4.7,3.8 -0.5,2.3 1.8,2.4 -1.4,1.2 -3.5,1 v 3 l -1.6,1.8 3.7,4.8 0.7,1.8 -2.1,2.5 -6.4,2.4 -4.1,1 -1.7,1.5 -4.500001,-1.6 -4.1,-0.8 -1.1,0.6 2.5,1.6 -0.3,4.3 0.7,4.1 4.800001,0.5 0.3,1.4 -4.100001,1.8 -0.7,2.7 -2.4,1.1 -4.2,1.5 -1.1,2 -4.4,0.4 -3.1,-3.4 -1.6,-6.4 -1.5,-2.3 -2,-1.4 2.9,-3.2 -0.2,-1.4 -1.5,-1.9 -1.1,-4.3 0.6,-4.6 1.3,-2.2 1.2,-3.4 -2,-1.1 -3.2,0.7 -4.1,-0.3 -2.3,0.7 -3.8,-5.6 -3.3,-0.8 -7.3,0.6 -1.2,-2.2 -1.4,-0.5 -0.1,-1.4 0.7,-2.4 -0.3,-2.5 -1.2,-1.5 -0.6,-2.9 -2.9,-0.4 1.8,-3.8 0.9,-4.6 1.8,-2.4 2.3,-1.7999999 1.6,-3.2 3.7,-1.1 -0.2,1.5 -3.4,0.8 1.7,2.9 -0.3,3.3999999 -2.7,3.7 1.9,5.1 2.5,-0.4 1.5,-4.7 -1.7,-2.2 V 9.4999991 l 7.2,-2.6 -0.6,-3 2.1,-2.1 1.7,4.6 4,0.1 3.4,3.5 0.2,2.1999999 h 5 l 6.1,-0.6 3.1,2.8 4.2,0.8 3.3,-2 0.1,-1.6 7.100001,-0.4 6.7,-0.1 -4.9,1.9 1.8,3.1 4.5,0.4 4.2,3.2 0.7,5.1 2.9,-0.1 z"
     id="VE"
     name="Venezuela"
     data-code="ve" />
  <path
     class="Chile"
     d="m 129.9,416 6,13.6 h 5 l 3,0.2 -0.5,2.4 -3.2,1.9 -2.4,-0.2 -3.1,-0.5 -4.2,-1.8 -5.4,-0.9 -7.5,-3.4 -6.4,-3.2 -9.8,-6.9 4.6,1.3 8.6,4.1 7.3,2.2 1.2,-2.8 -0.3,-4.2 3.4,-2.6 z"
     id="path89"
     data-code="cl" />
  <path
     class="Chile"
     data-code="cl"
     d="m 89.199999,225.9 0.9,1.6 -1.2,6.7 -5.6,3.1 1.6,10.7 -0.8,2.1 2,2.5 -3.3,4 -2.6,6 -0.9,5.9 1.7,6.2 -2.1,6.6 4.9,11.1 1.6,1.2 1.4,5.9 -1.6,6.2 1.4,5.4 -3,4.2 1.6,5.8 3.3,6.3 -2.5,2.3 0.2,5.7 0.8,6.5 3.3,7.8 -1.7,1.3 3.7,7.3 3.1,2.4 -0.8,2.7 2.8,1.2 1.4,2.4 -1.8,1.2 1.8,3.7 1.1,8.3 -0.7,5.4 1.800001,3.2 -0.1,3.9 -2.700001,2.8 3.100001,6.5 2.6,2.3 3.1,-0.4 1.9,4.6 3.5,3.6 12.1,0.8 4.9,1 h -4.3 l -1.7,1.5 -3.4,2.2 1.7,5.7 -1.9,0.1 -6.3,-1.9 -7.5,-4.3 -7.600001,-3.5 -3.2,-3.9 -0.3,-3.6 -4.2,-4.2 -5,-10.6 -0.2,-6 3.4,-4.8 -8.3,-1.9 2.7,-5.5 -2,-10.5 6.5,2.2 -1.8,-13.1 -4,-1.7 1,7.9 -3.5,-0.9 -1.5,-9 -2,-11.8 1.1,-4.4 -3.3,-6.2 -2.4,-7.2 2.2,-0.3 0.6,-10.3 1.2,-10.3 0.1,-9.5 -3.3,-9.7 0.6,-5.3 -2.1,-7.9 1.8,-7.8 -0.9,-12.4 v -13.4 l 0.1,-14.3 -1.5,-10.5 -2.1,-9.1 2.8,-1.6 1.1,-3.3 3.2,4.4 1.2,4.6 3.2,2.7 -1.1,6.2 3.7,7.2 3.1,8.9 z"
     id="path90" />
  <path
     d="m 152.1,65.099999 1.5,-2.8 0.5,-2.9 1,-2.7 -2.1,-3.8 -0.3,-4.4 3.1,-5.5 1.9,0.7 4.1,1.5 5.9,5.4 0.8,2.6 -3.4,5.9 -1.8,4.7 -2.2,2.5 -2.7,0.4 -0.8,-1.8 -1.3,-0.2 -1.7,1.7 z"
     id="GF"
     name="French Guiana"
     data-code="gf" />
  <circle
     cx="472.70001"
     cy="-232.79999"
     id="0"
     r="0" />
  <circle
     cx="148.3"
     cy="302.19998"
     id="1"
     r="0" />
  <circle
     cx="1273"
     cy="297.39999"
     id="2"
     r="0" />
</svg>
